<?xml version="1.0" standalone="no"?>
<!DOCTYPE svg PUBLIC "-//W3C//DTD SVG 20010904//EN"
 "http://www.w3.org/TR/2001/REC-SVG-20010904/DTD/svg10.dtd">
<svg version="1.0" xmlns="http://www.w3.org/2000/svg"
 width="255.000000pt" height="239.000000pt" viewBox="0 0 255.000000 239.000000"
 preserveAspectRatio="xMidYMid meet">
<metadata>
Created by potrace 1.13, written by Peter Selinger 2001-2015
</metadata>
<g transform="translate(0.000000,239.000000) scale(0.100000,-0.100000)"
fill="#000000" stroke="none">
<path d="M920 2313 c-223 -24 -414 -100 -548 -219 -111 -98 -204 -268 -221
-404 -5 -39 -16 -82 -25 -95 -13 -20 -16 -61 -16 -259 0 -340 10 -372 153
-508 l92 -86 -20 -25 c-11 -14 -33 -42 -50 -63 -28 -35 -30 -43 -33 -143 -2
-58 1 -121 7 -141 12 -40 80 -115 147 -161 77 -53 110 -59 306 -59 l179 0 38
40 c43 45 71 50 98 17 62 -78 148 -107 318 -107 l121 0 54 40 c29 22 55 40 56
40 2 0 20 -11 40 -25 65 -44 134 -58 263 -53 92 3 126 9 165 26 113 51 161
111 182 229 25 142 19 176 -47 254 l-41 49 34 45 c162 219 146 189 195 383
l45 177 -4 200 c-4 177 -7 207 -27 260 -12 33 -29 84 -37 113 -19 70 -55 121
-147 209 -88 84 -183 142 -287 177 -120 40 -597 96 -798 94 -86 0 -173 -3
-192 -5z m600 -77 c486 -61 743 -236 820 -557 24 -102 27 -274 5 -358 -8 -31
-21 -109 -29 -173 -13 -107 -18 -125 -55 -190 -23 -40 -54 -98 -69 -129 -15
-31 -40 -65 -55 -75 -16 -11 -35 -32 -43 -47 -16 -30 -72 -58 -219 -110 l-90
-32 -340 0 -340 0 -165 38 c-219 50 -229 53 -347 98 -140 55 -319 186 -355
261 -62 126 -68 152 -68 269 0 63 5 130 10 149 6 19 13 94 16 165 3 72 10 153
16 180 32 150 167 311 333 397 106 55 226 93 350 112 123 19 479 20 625 2z
m-985 -1597 c87 -44 125 -74 125 -98 0 -9 -9 -31 -20 -48 -16 -27 -26 -33 -55
-33 -34 0 -35 1 -35 40 0 40 0 40 -39 40 -44 0 -54 -9 -71 -67 -11 -37 -10
-46 7 -80 41 -79 130 -98 223 -47 60 32 107 83 115 122 18 86 19 87 55 86 19
-1 59 -7 88 -15 l52 -14 0 -81 c0 -77 -2 -84 -39 -141 -56 -86 -81 -103 -155
-103 -80 0 -233 25 -304 50 -103 37 -174 138 -174 252 0 72 32 136 82 160 48
25 55 23 145 -23z m1599 -77 c32 -29 46 -69 46 -129 -1 -101 -68 -208 -161
-257 -46 -24 -61 -26 -168 -26 -113 0 -119 1 -153 28 -62 47 -70 69 -57 153 6
40 9 95 7 121 -5 47 -5 48 23 48 29 0 29 -1 30 -62 1 -82 10 -111 37 -123 12
-5 22 -15 22 -22 0 -10 23 -13 83 -13 81 0 84 1 114 33 33 33 53 74 53 108 0
14 -7 19 -28 19 -24 0 -31 -6 -45 -40 -13 -34 -20 -40 -45 -40 -62 0 -87 64
-51 127 20 35 29 41 123 70 104 33 137 34 170 5z m-1394 -38 c0 -58 -28 -100
-84 -125 -59 -27 -108 -24 -145 7 -17 14 -31 34 -31 45 0 28 17 23 35 -11 14
-28 20 -30 70 -30 30 0 55 5 55 10 0 6 8 10 18 10 21 0 66 98 56 123 -4 12 -1
17 10 17 12 0 16 -10 16 -46z m393 -89 c10 -95 23 -130 58 -160 43 -35 108
-34 173 3 46 27 51 33 73 101 31 96 48 121 84 121 l29 0 0 -67 c0 -124 -14
-178 -61 -233 l-42 -50 -122 0 c-112 0 -123 2 -141 21 -10 12 -42 37 -71 55
l-52 34 -3 115 c-2 68 1 120 7 126 5 5 21 9 35 7 23 -3 26 -8 33 -73z m255 1
c-8 -98 -46 -146 -116 -146 -54 0 -106 90 -100 174 l3 36 109 0 109 0 -5 -64z
m388 0 c-1 -72 -10 -67 -21 12 -5 42 -4 52 7 52 12 0 15 -15 14 -64z"/>
<path d="M875 2156 c-154 -31 -252 -83 -366 -196 -71 -71 -93 -101 -132 -180
-38 -77 -49 -110 -56 -176 -4 -44 -13 -90 -20 -102 -16 -30 -13 -204 4 -287
54 -256 255 -393 680 -462 161 -26 597 -26 708 0 124 29 248 97 332 181 85 86
109 131 169 308 45 135 46 139 46 267 0 71 -5 142 -11 158 -6 15 -18 55 -25
87 -30 122 -105 214 -242 296 -72 42 -158 66 -342 96 -144 23 -644 29 -745 10z
m735 -30 c324 -49 513 -201 576 -462 26 -108 24 -281 -5 -374 -53 -174 -179
-376 -258 -415 -23 -11 -42 -25 -43 -32 0 -6 -8 -14 -17 -17 -10 -3 -61 -17
-113 -31 l-95 -27 -350 4 c-342 4 -352 5 -447 31 -246 67 -426 175 -484 289
-23 46 -24 55 -24 256 0 282 13 334 21 82 7 -241 23 -308 90 -376 52 -53 164
-113 290 -155 85 -29 113 -33 289 -42 326 -17 490 -14 594 11 255 63 444 219
500 411 21 72 23 360 2 423 -7 24 -18 62 -25 85 -46 165 -397 287 -826 287
-257 -1 -446 -38 -620 -124 -151 -74 -232 -154 -276 -273 l-19 -52 6 50 c4 28
21 74 38 105 18 30 38 70 45 87 20 48 132 148 209 187 147 73 218 84 567 85
196 1 308 -3 375 -13z m113 -134 c346 -95 462 -381 312 -773 l-36 -96 -96 -67
c-156 -112 -263 -150 -450 -162 l-103 -7 0 115 c0 77 4 119 13 129 6 8 51 27
100 43 56 17 87 32 87 42 0 8 6 14 13 14 17 0 37 91 37 165 0 207 -76 364
-190 395 -55 15 -146 8 -188 -14 -30 -16 -34 -15 -79 8 -95 48 -149 58 -342
65 l-183 6 84 47 c91 50 203 92 290 107 29 5 188 8 353 7 270 -3 308 -5 378
-24z m-668 -240 c136 -64 215 -149 241 -259 18 -76 16 -250 -4 -443 l-17 -155
-64 -3 c-57 -3 -211 18 -356 49 -81 17 -81 17 -31 55 51 39 62 74 23 74 -12 0
-67 -11 -121 -25 -54 -14 -109 -25 -122 -25 -55 0 -140 119 -163 228 -16 78
-14 288 4 349 30 100 97 160 206 183 24 5 109 8 189 7 140 -3 148 -4 215 -35z
m375 -14 c44 -22 49 -29 83 -110 36 -85 37 -88 37 -221 l0 -135 -40 -36 c-42
-37 -73 -50 -111 -44 -36 5 -30 38 11 65 71 45 90 65 101 105 13 52 5 96 -27
143 -22 33 -24 41 -14 70 30 92 -92 196 -178 151 -38 -20 -52 -20 -52 -2 0 38
121 47 190 14z m-35 -83 c34 -33 34 -78 0 -93 -14 -7 -28 -12 -30 -12 -5 0
-65 112 -65 122 0 4 16 8 35 8 25 0 44 -8 60 -25z m49 -177 c36 -51 5 -158
-45 -158 -17 0 -19 8 -19 83 0 46 3 87 7 90 13 14 42 6 57 -15z"/>
<path d="M665 1655 c-109 -42 -155 -157 -104 -261 52 -108 248 -123 340 -27
49 51 61 77 61 134 0 65 -30 111 -90 140 -58 29 -151 35 -207 14z m15 -100 c0
-28 -15 -34 -24 -9 -10 25 -7 34 9 34 9 0 15 -9 15 -25z m115 6 c7 -23 -3 -51
-19 -51 -19 0 -37 45 -23 59 17 17 35 13 42 -8z m105 -46 c0 -14 -4 -25 -8
-25 -5 0 -14 11 -20 25 -10 22 -9 25 8 25 15 0 20 -7 20 -25z m-170 -25 c0
-22 -20 -26 -38 -8 -19 19 -14 28 13 28 18 0 25 -5 25 -20z m122 -26 c29 -41
27 -74 -6 -74 -14 0 -28 13 -43 39 -20 35 -21 39 -5 54 22 23 25 22 54 -19z
m-172 -28 c0 -23 -41 -48 -57 -34 -11 9 -11 14 3 29 20 22 54 25 54 5z m96
-31 c18 -43 18 -45 -2 -45 -8 0 -22 16 -30 35 -18 43 -18 45 2 45 8 0 22 -16
30 -35z"/>
</g>
</svg>
