<?xml version="1.0" standalone="no"?>
<!DOCTYPE svg PUBLIC "-//W3C//DTD SVG 20010904//EN"
 "http://www.w3.org/TR/2001/REC-SVG-20010904/DTD/svg10.dtd">
<svg version="1.0" xmlns="http://www.w3.org/2000/svg"
 width="255.000000pt" height="239.000000pt" viewBox="0 0 255.000000 239.000000"
 preserveAspectRatio="xMidYMid meet">
<metadata>
Created by potrace 1.13, written by Peter Selinger 2001-2015
</metadata>
<g transform="translate(0.000000,239.000000) scale(0.100000,-0.100000)"
fill="#000000" stroke="none">
<path d="M1305 2310 c-181 -4 -341 -10 -355 -14 -14 -4 -124 -10 -245 -15
-201 -7 -224 -10 -269 -31 -134 -65 -220 -219 -268 -480 -26 -145 -37 -591
-18 -721 19 -130 57 -238 125 -355 l18 -31 -33 -48 c-43 -62 -70 -151 -70
-229 0 -109 59 -193 180 -257 43 -23 54 -24 246 -24 l202 0 79 41 80 40 34
-28 c55 -46 126 -63 269 -63 140 0 236 23 299 70 19 14 38 25 42 25 3 0 22
-15 42 -34 20 -18 65 -45 101 -60 60 -23 79 -26 194 -26 154 0 201 13 271 76
85 76 127 197 102 290 -11 40 -44 76 -127 140 -24 18 -26 22 -14 45 7 13 46
59 86 101 85 90 116 146 147 266 20 80 22 109 21 367 -1 303 -12 408 -58 543
-59 177 -168 288 -345 352 -99 36 -275 71 -349 68 -31 -1 -205 -5 -387 -8z
m590 -54 c100 -22 149 -42 244 -100 l84 -51 53 -110 c30 -60 61 -137 69 -170
26 -101 38 -287 32 -530 -4 -188 -9 -244 -25 -306 -46 -174 -131 -281 -274
-349 -131 -62 -193 -71 -518 -77 -246 -5 -292 -3 -333 11 -39 13 -96 16 -325
16 -304 0 -378 9 -456 55 -95 55 -174 170 -213 306 -16 57 -18 107 -18 444 0
327 2 389 17 447 50 192 150 313 307 370 50 19 91 22 376 29 176 4 329 10 340
13 87 28 518 29 640 2z m-1454 -1675 c78 -26 176 -78 182 -95 11 -27 -25 -58
-76 -63 -90 -10 -41 -63 58 -63 70 1 153 65 170 133 7 27 8 27 95 27 l88 0 13
-32 c8 -18 14 -58 14 -89 -1 -69 -38 -136 -103 -186 -60 -46 -97 -53 -272 -53
-173 0 -214 11 -278 73 -73 70 -89 150 -53 267 33 104 58 117 162 81z m1736
-73 c87 -40 116 -107 89 -201 -19 -65 -71 -123 -142 -158 -43 -21 -62 -24
-164 -24 -99 0 -122 4 -168 24 -29 13 -64 37 -78 54 -22 26 -25 37 -20 71 3
23 9 83 12 134 l6 92 57 0 56 0 1 -58 c1 -55 15 -99 38 -114 22 -15 127 -8
157 9 43 26 37 43 -15 43 -59 0 -76 8 -76 34 0 24 70 103 104 116 29 12 92 2
143 -22z m-1447 2 c0 -16 -30 -58 -46 -64 -11 -4 -14 4 -14 34 0 38 2 40 30
40 17 0 30 -5 30 -10z m493 -42 c13 -106 61 -152 136 -129 45 13 58 26 91 95
30 62 57 76 128 69 l52 -6 0 -66 c-2 -203 -125 -293 -381 -278 -106 6 -176 27
-209 62 -21 23 -22 28 -11 62 7 21 15 84 18 140 l6 102 82 -2 83 -2 5 -47z
m197 12 c0 -29 -55 -96 -87 -105 -34 -10 -63 26 -63 78 0 24 3 47 7 51 4 3 37
5 75 4 65 -3 68 -4 68 -28z m500 26 c0 -2 -7 -23 -15 -46 -8 -23 -15 -54 -15
-69 0 -20 -2 -23 -10 -11 -5 8 -10 41 -10 73 0 54 1 57 25 57 14 0 25 -2 25
-4z"/>
<path d="M1111 2030 c-209 -23 -384 -126 -503 -294 -72 -104 -88 -166 -88
-351 0 -124 4 -165 20 -217 60 -194 279 -349 549 -388 121 -18 578 -8 656 15
226 64 383 233 416 444 6 44 9 157 7 280 -4 239 -11 263 -99 356 -61 65 -125
107 -205 137 -55 20 -79 21 -369 24 -170 1 -343 -1 -384 -6z m724 -70 c46 -16
101 -38 122 -49 54 -28 110 -89 128 -140 39 -110 45 -427 10 -556 -52 -197
-182 -329 -378 -383 -92 -25 -592 -25 -687 1 -152 41 -317 150 -388 257 -62
92 -67 115 -67 295 0 143 3 165 22 208 62 134 185 270 300 329 117 62 148 66
521 67 l334 1 83 -30z"/>
<path d="M1327 1895 c-4 -11 -14 -70 -22 -130 -35 -250 -107 -310 -401 -333
-187 -14 -173 -26 36 -32 181 -5 186 -6 225 -32 84 -58 114 -142 115 -323 1
-139 17 -122 32 33 8 82 16 118 35 153 68 127 133 165 303 179 62 5 115 11
117 14 15 15 -17 26 -75 26 -138 1 -259 41 -306 103 -32 42 -50 131 -43 212 6
71 -5 161 -16 130z m-2 -314 c10 -32 102 -119 140 -131 42 -14 45 -28 8 -37
-18 -3 -53 -34 -93 -78 -54 -61 -67 -70 -75 -57 -33 50 -77 88 -132 113 -35
16 -63 31 -63 33 0 3 24 17 53 32 65 33 94 58 118 107 21 41 35 47 44 18z"/>
<path d="M1044 1810 c-29 -12 -64 -58 -64 -86 0 -45 18 -74 45 -74 57 0 115
49 115 97 0 56 -43 85 -96 63z m49 -51 c14 -23 -19 -69 -49 -69 -20 0 -24 5
-24 29 0 20 8 35 22 45 25 18 37 17 51 -5z"/>
<path d="M1582 1750 c-54 -33 -62 -93 -18 -129 26 -21 115 -9 138 19 24 29 23
71 -3 104 -25 32 -70 35 -117 6z m76 -26 c43 -30 18 -83 -40 -84 -26 0 -28 3
-28 40 0 27 6 42 18 49 23 14 24 14 50 -5z"/>
<path d="M954 1218 c-29 -14 -66 -82 -62 -115 7 -59 82 -79 128 -33 28 28 28
112 0 140 -22 22 -35 24 -66 8z m40 -45 c-1 -7 -2 -31 -2 -54 -2 -37 -4 -40
-28 -37 -42 5 -52 31 -30 73 14 26 25 35 40 33 12 -2 21 -9 20 -15z"/>
<path d="M1580 1177 c-16 -8 -28 -26 -34 -50 -13 -51 15 -91 67 -95 32 -3 38
1 66 42 17 24 31 54 31 65 0 43 -76 65 -130 38z m80 -37 c18 -34 -4 -62 -48
-58 -43 4 -54 28 -26 59 22 25 60 24 74 -1z"/>
</g>
</svg>
