<?xml version="1.0" standalone="no"?>
<!DOCTYPE svg PUBLIC "-//W3C//DTD SVG 20010904//EN"
 "http://www.w3.org/TR/2001/REC-SVG-20010904/DTD/svg10.dtd">
<svg version="1.0" xmlns="http://www.w3.org/2000/svg"
 width="255.000000pt" height="239.000000pt" viewBox="0 0 255.000000 239.000000"
 preserveAspectRatio="xMidYMid meet">
<metadata>
Created by potrace 1.13, written by Peter Selinger 2001-2015
</metadata>
<g transform="translate(0.000000,239.000000) scale(0.100000,-0.100000)"
fill="#000000" stroke="none">
<path d="M880 2290 c-344 -29 -584 -219 -693 -548 -54 -162 -69 -292 -65 -545
4 -190 6 -218 26 -267 35 -89 99 -175 172 -232 l34 -26 -73 -78 c-108 -116
-132 -176 -111 -277 32 -158 175 -244 390 -235 88 3 101 7 181 46 l86 43 57
-31 58 -30 271 0 270 0 63 35 c34 19 70 35 80 35 9 0 60 -14 113 -32 118 -38
204 -41 299 -9 160 54 251 157 252 284 0 68 -14 106 -64 171 -20 26 -36 53
-36 59 0 7 16 35 36 62 77 108 143 280 200 524 32 137 34 157 34 321 0 96 -4
203 -9 237 -25 168 -132 292 -336 389 -118 56 -256 91 -412 104 -139 11 -688
11 -823 0z m913 -55 c188 -33 341 -108 458 -224 109 -109 121 -145 127 -365 5
-186 -10 -360 -39 -475 -11 -41 -42 -127 -70 -191 -28 -63 -61 -142 -74 -174
-20 -53 -30 -65 -101 -118 -90 -68 -173 -110 -265 -135 -55 -16 -108 -18 -374
-18 -308 1 -312 1 -535 37 -292 48 -481 111 -567 192 -76 71 -83 80 -108 132
-46 98 -58 185 -52 403 5 179 8 208 40 341 22 94 46 164 66 200 17 30 31 63
31 72 0 10 45 63 101 117 89 88 111 104 182 134 191 81 225 85 698 86 309 1
415 -2 482 -14z m-1272 -1652 c38 -22 56 -66 41 -98 -11 -24 -26 -35 -102 -78
-27 -14 -30 -20 -20 -32 9 -11 32 -15 79 -15 89 0 124 22 159 100 51 113 89
50 40 -68 -18 -44 -33 -60 -81 -92 -32 -22 -73 -42 -92 -46 -44 -8 -98 11
-141 48 -32 28 -34 34 -34 94 l0 64 40 0 c33 0 40 3 40 20 0 17 -7 20 -39 20
-34 0 -42 -5 -61 -36 -30 -47 -31 -124 -4 -162 34 -45 89 -66 174 -66 87 0
134 18 186 72 43 44 84 127 84 169 0 26 4 33 19 33 22 0 36 -29 21 -44 -5 -5
-10 -28 -10 -51 0 -198 -78 -271 -290 -270 -77 1 -105 5 -145 23 -130 59 -179
180 -120 298 57 114 171 167 256 117z m1675 -78 c21 -44 25 -63 20 -96 -21
-134 -138 -219 -311 -227 -74 -3 -100 0 -147 18 -77 28 -88 47 -88 140 0 57 5
83 20 108 30 50 48 42 55 -25 10 -90 14 -104 44 -133 79 -79 240 -61 334 37
31 33 38 46 35 73 -5 50 -24 47 -48 -7 -42 -95 -103 -131 -192 -114 -95 17
-147 74 -135 147 11 64 23 68 70 17 64 -70 117 -88 181 -63 29 11 37 50 10 50
-9 0 -32 9 -50 21 -75 46 -18 106 103 108 l72 1 27 -55z m-1042 -80 c31 -82
58 -100 151 -100 89 0 115 17 115 76 0 21 7 44 15 53 21 21 74 29 115 19 42
-11 53 -43 44 -131 -8 -79 -34 -120 -99 -152 -48 -24 -58 -25 -270 -28 -213
-3 -221 -3 -264 20 -64 33 -67 43 -53 140 7 46 12 103 12 126 l0 43 106 -3
106 -3 22 -60z m179 45 l37 0 0 -50 0 -51 -77 3 -78 3 -3 43 c-3 36 0 44 20
52 13 5 32 7 43 5 11 -3 37 -5 58 -5z"/>
<path d="M1190 2099 c-287 -7 -331 -14 -438 -68 -249 -126 -452 -499 -452
-830 0 -157 43 -264 143 -357 156 -144 287 -168 994 -180 341 -6 404 9 526
124 99 95 143 182 203 403 34 127 34 127 34 348 0 204 -2 225 -21 266 -68 144
-370 281 -659 297 -36 2 -184 1 -330 -3z m421 -35 c270 -45 502 -175 540 -303
7 -25 10 -114 7 -272 -6 -270 -18 -333 -92 -484 -80 -163 -209 -274 -354 -304
-70 -15 -466 -15 -512 0 -19 6 -120 15 -225 19 -176 6 -196 9 -278 37 -59 21
-124 55 -197 103 l-108 71 -27 84 c-26 80 -27 90 -22 237 4 123 9 166 27 218
28 83 91 208 146 291 57 86 182 205 248 234 55 25 213 60 336 74 132 15 408
12 511 -5z"/>
<path d="M1039 1945 c-307 -58 -520 -244 -585 -510 -26 -104 -24 -292 4 -368
50 -138 144 -213 313 -251 35 -8 141 -20 234 -26 94 -6 215 -18 270 -27 217
-34 467 25 590 138 59 54 90 116 122 238 32 127 44 355 21 428 -9 26 -21 71
-28 100 -32 139 -136 215 -365 265 -122 26 -465 34 -576 13z m461 -35 c47 -6
135 -24 195 -41 103 -28 113 -33 153 -77 91 -100 115 -203 110 -461 -5 -210
-15 -245 -112 -368 l-62 -78 -95 -32 c-139 -47 -232 -57 -454 -50 -407 13
-619 82 -701 229 -28 52 -29 56 -29 203 0 132 3 158 23 215 68 188 153 322
225 351 17 7 37 18 42 24 12 13 103 49 165 65 109 29 385 38 540 20z"/>
<path d="M1185 1559 c-180 -15 -342 -57 -381 -100 -26 -29 -23 -83 5 -113 30
-32 61 -42 182 -60 103 -15 152 -34 169 -65 5 -11 10 -57 11 -103 0 -132 8
-160 49 -180 66 -33 141 -20 197 34 37 35 49 67 59 152 5 44 14 66 36 92 33
37 56 46 188 69 105 19 139 33 168 70 26 32 37 97 22 124 -15 29 -79 60 -159
77 -73 15 -374 17 -546 3z m542 -45 c111 -25 132 -49 98 -113 -19 -37 -55 -53
-208 -92 l-128 -32 -46 -91 c-25 -50 -56 -120 -68 -156 l-22 -65 -52 -3 c-51
-3 -52 -2 -66 32 -10 23 -15 69 -15 131 0 99 -12 148 -44 174 -11 10 -56 17
-125 22 -119 8 -191 31 -211 69 -16 30 -7 46 38 69 99 50 237 68 564 70 165 1
233 -3 285 -15z"/>
<path d="M1142 1455 c-182 -19 -212 -25 -212 -39 0 -29 33 -40 144 -47 165
-10 169 -13 185 -175 14 -135 44 -165 86 -84 8 15 22 60 31 100 12 54 25 82
49 109 l33 36 111 5 c127 6 164 23 169 78 l3 32 -238 -1 c-131 -1 -293 -7
-361 -14z m556 -37 c-7 -21 -69 -29 -125 -17 -116 26 -186 -28 -234 -183 -17
-55 -33 -97 -37 -94 -3 3 -6 48 -6 101 -1 88 -3 96 -27 120 -22 23 -42 29
-142 42 -65 9 -117 19 -117 24 0 13 54 16 378 17 244 2 313 -1 310 -10z"/>
</g>
</svg>
