<?xml version="1.0" standalone="no"?>
<!DOCTYPE svg PUBLIC "-//W3C//DTD SVG 20010904//EN"
 "http://www.w3.org/TR/2001/REC-SVG-20010904/DTD/svg10.dtd">
<svg version="1.0" xmlns="http://www.w3.org/2000/svg"
 width="255.000000pt" height="239.000000pt" viewBox="0 0 255.000000 239.000000"
 preserveAspectRatio="xMidYMid meet">
<metadata>
Created by potrace 1.13, written by Peter Selinger 2001-2015
</metadata>
<g transform="translate(0.000000,239.000000) scale(0.100000,-0.100000)"
fill="#000000" stroke="none">
<path d="M975 2279 c-302 -19 -442 -69 -576 -202 -132 -132 -201 -260 -253
-469 l-37 -146 3 -224 c4 -273 4 -274 155 -428 l103 -105 -33 -25 c-66 -51
-129 -116 -147 -150 -45 -89 -45 -201 0 -290 55 -108 240 -177 407 -151 100
15 132 32 225 115 l83 74 46 -48 c100 -104 183 -135 364 -134 137 0 181 12
280 75 34 21 68 39 75 39 7 0 45 -18 85 -40 102 -56 178 -74 295 -67 148 7
266 62 339 158 l33 44 -4 95 c-7 146 -35 189 -166 254 -40 20 -71 40 -69 44 2
4 37 62 76 128 80 136 99 191 111 335 4 53 13 106 19 117 17 32 14 440 -4 527
-59 279 -293 439 -692 474 -133 12 -536 12 -718 0z m831 -74 c115 -20 171 -38
268 -88 158 -81 231 -185 246 -350 5 -53 14 -124 20 -159 23 -143 6 -400 -36
-546 -66 -226 -216 -375 -444 -439 -58 -16 -109 -18 -480 -18 l-415 0 -120 29
c-358 85 -568 195 -637 334 -22 45 -23 58 -26 328 l-3 281 84 174 c94 196 182
324 250 363 45 26 224 67 392 90 150 21 783 21 901 1z m-1281 -1568 c48 -48
53 -79 21 -127 -23 -35 -31 -40 -65 -40 -53 0 -72 -20 -60 -62 5 -18 9 -34 9
-35 0 -11 68 -33 103 -33 78 0 160 78 193 185 10 30 23 55 30 55 7 0 35 -5 63
-12 61 -14 67 -27 57 -121 -8 -89 -57 -181 -121 -229 -64 -49 -128 -68 -230
-68 -188 0 -288 74 -302 223 -9 99 1 129 63 196 96 104 179 128 239 68z m1715
-36 c84 -45 125 -149 101 -256 -23 -103 -94 -157 -231 -177 -142 -21 -315 23
-376 96 -23 26 -25 36 -20 76 16 119 18 158 7 177 -13 25 -5 29 69 39 l50 7 0
-50 c0 -107 97 -193 218 -193 72 0 112 21 112 60 l0 30 -72 0 c-52 0 -76 4
-90 17 -35 31 -17 103 36 143 69 54 135 64 196 31z m-1560 -40 c0 -34 -9 -50
-56 -105 -37 -45 -62 -66 -77 -66 -19 1 -15 7 26 43 47 42 67 83 67 139 0 21
5 28 20 28 17 0 20 -7 20 -39z m1243 -18 c-21 -52 -23 -52 -23 -5 0 35 3 42
19 42 19 0 19 -2 4 -37z m-824 -18 c34 -17 37 -25 50 -119 11 -76 27 -100 78
-117 123 -40 242 50 243 184 l0 47 90 0 90 0 0 -68 c0 -224 -146 -328 -413
-293 -146 20 -221 71 -252 173 -15 53 -21 199 -7 212 10 11 87 -1 121 -19z
m321 -51 c0 -53 -2 -59 -44 -100 -38 -39 -49 -44 -87 -44 -50 0 -79 19 -103
67 -19 38 -19 46 -5 96 l10 37 114 0 115 0 0 -56z"/>
<path d="M1160 2094 c-174 -15 -422 -65 -495 -99 -79 -38 -166 -185 -205 -346
-27 -113 -30 -517 -4 -593 53 -154 287 -274 598 -305 222 -22 520 -10 669 29
211 54 334 172 368 355 6 34 9 183 7 378 l-3 322 -27 51 c-46 88 -136 150
-273 189 -49 14 -109 18 -325 20 -146 1 -285 1 -310 -1z m228 -69 c-13 -30
-33 -32 -48 -6 -15 29 -13 31 25 31 33 0 34 -1 23 -25z m112 -2 c0 -25 0 -26
-20 -8 -11 10 -20 22 -20 27 0 4 9 8 20 8 15 0 20 -7 20 -27z m128 -99 c-3
-111 -5 -127 -22 -140 -26 -19 -55 -18 -63 3 -4 9 -1 62 6 119 9 76 10 108 1
123 -10 20 -8 21 35 21 l47 0 -4 -126z m-400 100 c-9 -9 -21 -13 -27 -10 -20
13 -11 26 16 26 25 0 26 -1 11 -16z m585 -16 c102 -32 165 -74 198 -133 51
-91 63 -160 64 -367 0 -174 -1 -188 -21 -215 -21 -27 -24 -28 -125 -31 -204
-6 -249 58 -178 250 24 66 30 94 26 137 -4 56 -15 71 -88 122 -21 14 -22 18
-11 62 7 25 12 83 12 128 l0 81 28 -6 c15 -4 58 -16 95 -28z m-733 -109 c0
-130 0 -130 -22 -127 -29 4 -57 80 -57 158 -1 60 4 71 34 88 43 24 45 19 45
-119z m-122 -16 l-3 -128 -30 -18 c-16 -10 -55 -33 -85 -50 -60 -35 -100 -95
-100 -150 0 -45 -28 -95 -93 -164 -59 -62 -60 -63 -113 -63 l-54 0 0 130 c0
94 4 139 14 159 8 15 22 58 30 95 26 110 72 188 140 233 52 34 197 81 254 82
l43 1 -3 -127z m212 112 c11 -13 10 -18 -6 -29 -24 -18 -34 -12 -34 20 0 27
21 32 40 9z m145 -5 c18 -20 18 -21 -9 -48 l-27 -27 -19 25 c-23 29 -24 42 -8
58 18 18 43 15 63 -8z m150 -44 c3 -21 -1 -26 -20 -26 -13 0 -30 10 -40 26
-16 24 -16 27 1 45 18 20 18 20 37 0 11 -10 21 -31 22 -45z m-215 -63 c0 -17
-39 -27 -55 -13 -11 9 -14 5 -17 -22 -4 -47 -32 -45 -36 3 -3 30 3 42 29 69
l33 32 23 -28 c13 -16 23 -34 23 -41z m132 30 c23 -21 23 -36 -3 -59 -15 -13
-24 -16 -36 -8 -32 20 -38 41 -19 63 23 25 34 26 58 4z m108 -28 c0 -8 -7 -15
-15 -15 -8 0 -15 7 -15 15 0 8 7 15 15 15 8 0 15 -7 15 -15z m-183 -58 c9 -20
8 -26 -9 -36 -18 -11 -24 -10 -41 8 -17 17 -18 22 -7 35 18 23 45 19 57 -7z
m154 1 c29 -36 24 -48 -20 -48 -55 0 -70 22 -34 49 35 25 31 25 54 -1z m-241
-48 c0 -5 -7 -10 -15 -10 -8 0 -15 5 -15 10 0 6 7 10 15 10 8 0 15 -4 15 -10z
m483 -92 c31 -38 27 -93 -13 -180 -59 -127 -52 -188 29 -261 l41 -37 140 0
140 0 0 -29 c0 -41 -61 -182 -100 -231 -70 -88 -179 -138 -325 -147 l-90 -5
-62 46 c-95 72 -127 139 -139 294 -9 112 -25 110 -87 -8 -73 -139 -122 -212
-181 -269 -54 -51 -55 -51 -119 -51 -214 0 -447 191 -465 380 -5 54 -10 50 83
65 101 17 175 89 224 219 38 100 76 156 131 192 74 49 109 53 453 51 l319 -2
21 -27z m-404 -715 c16 -32 50 -85 76 -118 l46 -60 -167 -3 c-92 -1 -169 0
-172 2 -2 3 17 29 43 58 26 29 68 81 92 116 25 34 47 62 49 62 2 0 17 -26 33
-57z"/>
</g>
</svg>
