<?xml version="1.0" standalone="no"?>
<!DOCTYPE svg PUBLIC "-//W3C//DTD SVG 20010904//EN"
 "http://www.w3.org/TR/2001/REC-SVG-20010904/DTD/svg10.dtd">
<svg version="1.0" xmlns="http://www.w3.org/2000/svg"
 width="255.000000pt" height="239.000000pt" viewBox="0 0 255.000000 239.000000"
 preserveAspectRatio="xMidYMid meet">
<metadata>
Created by potrace 1.13, written by Peter Selinger 2001-2015
</metadata>
<g transform="translate(0.000000,239.000000) scale(0.100000,-0.100000)"
fill="#000000" stroke="none">
<path d="M978 2304 c-4 -3 -68 -12 -145 -20 -166 -17 -231 -34 -342 -86 -70
-33 -101 -56 -176 -132 -74 -72 -100 -106 -128 -166 -66 -139 -70 -165 -74
-480 -4 -252 -2 -299 16 -409 23 -138 38 -171 120 -263 28 -31 51 -59 51 -62
0 -4 -20 -31 -44 -61 -54 -65 -66 -103 -73 -215 -7 -109 7 -160 58 -215 50
-54 116 -83 221 -96 134 -17 244 6 324 67 24 19 49 34 54 34 5 0 36 -14 67
-30 77 -40 157 -54 267 -45 120 9 228 38 288 77 l50 31 72 -37 73 -38 189 4
c170 3 195 6 248 27 111 44 196 158 204 273 6 81 -4 122 -39 159 -22 24 -28
37 -22 50 4 10 45 58 91 108 l82 89 0 81 c0 44 5 83 10 86 6 4 10 91 10 228 0
333 -31 498 -134 712 -89 184 -121 215 -256 248 -192 48 -580 87 -853 87 -112
0 -206 -3 -209 -6z m542 -72 c287 -14 445 -43 577 -107 75 -37 109 -70 119
-114 3 -14 28 -82 54 -151 73 -188 85 -276 85 -611 l0 -275 -55 -107 c-30 -59
-61 -107 -68 -107 -7 0 -23 -9 -35 -20 -29 -28 -124 -71 -222 -103 -131 -41
-323 -48 -925 -29 -262 8 -315 12 -375 30 -179 53 -326 123 -391 187 -76 74
-96 178 -101 530 l-3 260 68 181 c64 167 72 183 116 224 149 138 290 190 606
224 48 5 292 -1 550 -12z m-1047 -1616 c42 -17 87 -70 87 -103 0 -34 -28 -90
-48 -98 -19 -7 -42 19 -42 47 0 13 -8 18 -30 18 -28 0 -30 -2 -30 -40 0 -63
24 -80 113 -80 107 0 147 28 161 115 18 106 19 108 72 80 16 -8 37 -15 47 -15
14 0 17 -9 17 -47 -1 -140 -42 -262 -103 -307 -26 -19 -42 -21 -185 -21 -184
0 -212 9 -249 85 -25 49 -40 166 -29 222 8 45 61 125 95 143 33 18 83 19 124
1z m1742 -40 c16 -11 17 -23 12 -90 -7 -93 -42 -164 -106 -214 l-43 -32 -226
0 c-125 0 -232 4 -238 8 -25 16 -34 56 -34 146 0 107 10 126 63 126 18 0 49 3
70 6 l37 7 0 -39 c0 -98 42 -165 115 -183 77 -19 165 13 165 61 0 27 -1 27
-72 30 l-73 3 -3 48 c-2 33 1 47 9 47 7 0 27 14 45 31 17 17 49 37 70 44 51
19 184 19 209 1z m-1570 -37 c-4 -12 -7 -36 -7 -55 0 -19 -4 -34 -9 -34 -5 0
-9 25 -9 55 0 43 3 55 16 55 11 0 14 -6 9 -21z m425 -56 c0 -79 8 -101 41
-118 34 -18 77 -19 129 -3 32 10 40 18 40 36 0 28 15 59 43 90 17 19 31 22 86
22 91 0 95 -4 89 -82 -8 -102 -59 -179 -140 -212 -29 -12 -76 -16 -205 -16
-149 0 -172 2 -200 20 -58 35 -63 51 -56 193 l6 127 84 0 83 0 0 -57z m770 51
c0 -3 -8 -29 -17 -57 -14 -41 -18 -47 -21 -28 -6 39 8 91 23 91 8 0 15 -3 15
-6z m-590 -45 c0 -66 -12 -79 -75 -79 l-55 0 0 44 c0 55 24 76 87 76 l43 0 0
-41z"/>
<path d="M1220 2024 c-220 -26 -409 -67 -466 -100 -56 -32 -142 -127 -180
-199 -80 -151 -111 -295 -101 -468 14 -239 83 -364 240 -438 202 -94 588 -114
863 -44 261 66 443 217 520 431 20 54 24 84 24 177 0 141 -19 230 -70 333 -69
141 -202 242 -380 289 -64 17 -363 29 -450 19z m100 -58 c0 -7 -16 -26 -36
-41 l-36 -28 -21 21 c-20 21 -20 22 -2 42 22 24 95 29 95 6z m140 -5 c0 -10
-7 -24 -15 -31 -17 -14 -38 -2 -56 32 -9 16 -5 18 31 18 32 0 40 -4 40 -19z
m100 -12 c0 -18 -2 -19 -15 -9 -8 7 -15 16 -15 21 0 5 7 9 15 9 9 0 15 -9 15
-21z m-420 0 c0 -11 -46 -59 -56 -59 -2 0 -4 13 -4 29 0 20 6 31 18 34 31 8
42 7 42 -4z m530 -81 c0 -60 -6 -98 -21 -138 -11 -30 -21 -57 -22 -60 -2 -20
-79 -93 -121 -117 -49 -27 -56 -28 -186 -28 -115 0 -144 3 -195 23 -82 30
-157 84 -183 131 -27 47 -30 137 -7 202 17 47 29 59 62 59 20 0 21 -3 11 -37
-16 -58 -6 -146 22 -186 87 -127 331 -167 473 -77 69 44 106 121 132 273 4 23
11 37 20 37 12 0 15 -17 15 -82z m-287 46 c27 -10 20 -37 -16 -61 -41 -29 -59
-29 -75 -2 -12 19 -10 24 20 50 18 15 38 26 43 24 6 -3 18 -8 28 -11z m575
-151 c34 -47 67 -105 73 -127 6 -23 18 -61 25 -85 8 -25 14 -84 14 -132 0 -73
-5 -102 -31 -173 -17 -48 -34 -88 -38 -90 -4 -3 -20 33 -35 79 -27 86 -40 105
-57 88 -6 -6 -1 -37 16 -86 42 -127 28 -195 -57 -274 -48 -44 -106 -78 -116
-69 -3 3 1 25 9 48 18 55 16 201 -3 253 -8 22 -23 42 -33 43 -15 3 -17 -1 -12
-30 3 -18 10 -51 16 -73 19 -70 14 -165 -11 -215 -18 -36 -34 -51 -78 -72 -30
-15 -65 -28 -76 -28 l-22 0 24 75 c19 60 24 98 24 180 0 104 0 105 -24 105
-23 0 -24 -1 -29 -127 -8 -216 -28 -247 -163 -258 -47 -4 -87 -5 -89 -3 -2 1
12 28 31 58 65 105 85 320 30 320 -11 0 -15 -23 -18 -102 -5 -124 -33 -198
-94 -244 -33 -25 -48 -29 -117 -33 l-79 -3 40 54 c63 83 74 118 73 227 -1 52
-3 96 -4 98 -2 2 -13 -43 -25 -100 -26 -118 -70 -217 -110 -243 -32 -22 -90
-24 -125 -5 l-25 14 39 49 c48 62 61 104 57 192 l-3 69 -57 -139 -56 -139 -46
-3 c-54 -4 -156 37 -156 62 0 8 14 23 31 33 43 25 78 100 86 179 l6 64 -33 0
-32 0 6 -44 c11 -72 -47 -166 -103 -166 -37 0 -43 11 -66 114 -38 173 4 517
74 605 55 70 218 201 249 201 l27 0 0 -88 c1 -125 18 -176 80 -238 62 -62 134
-89 278 -104 192 -20 336 23 400 118 30 45 51 109 72 227 9 49 19 93 21 97 3
5 40 -10 82 -32 69 -37 83 -49 140 -127z m-434 141 c19 -19 20 -36 4 -52 -16
-16 -28 -15 -28 3 0 8 -7 15 -15 15 -15 0 -21 31 -8 43 11 12 31 8 47 -9z
m-319 -14 c18 -20 18 -21 -10 -50 -32 -33 -60 -39 -69 -14 -10 26 -7 43 12 63
23 25 45 26 67 1z m257 -57 c25 -22 24 -25 -23 -62 l-40 -33 -24 22 -23 22 31
33 c36 38 53 42 79 18z m-184 -65 c-47 -38 -56 -40 -78 -16 -11 12 -20 25 -20
28 0 3 17 16 37 27 l38 22 23 -22 23 -21 -23 -18z m-178 33 c14 -28 13 -31
-15 -31 -20 0 -25 5 -25 25 0 30 25 34 40 6z m413 -47 c13 -13 -34 -64 -59
-64 -30 0 -31 17 -2 47 21 22 48 30 61 17z m-164 -25 c14 -23 13 -24 -32 -50
-22 -12 -57 -3 -57 16 0 11 52 51 70 54 3 1 11 -9 19 -20z m-179 -9 c11 -7 12
-12 3 -21 -12 -12 -53 4 -53 21 0 13 30 13 50 0z"/>
<path d="M720 1735 c0 -20 5 -25 25 -25 20 0 25 5 25 25 0 20 -5 25 -25 25
-20 0 -25 -5 -25 -25z"/>
<path d="M1827 1753 c-4 -3 -7 -15 -7 -25 0 -13 8 -18 30 -18 25 0 30 4 30 25
0 20 -5 25 -23 25 -13 0 -27 -3 -30 -7z"/>
<path d="M1777 1563 c-13 -13 -7 -54 9 -60 19 -7 44 21 44 49 0 12 -7 18 -23
18 -13 0 -27 -3 -30 -7z"/>
<path d="M766 1541 c-23 -25 -13 -41 25 -41 29 0 35 12 23 44 -8 21 -27 20
-48 -3z"/>
<path d="M948 1429 c-10 -5 -18 -21 -18 -34 0 -21 5 -25 31 -25 28 0 30 2 27
32 -3 35 -14 42 -40 27z"/>
<path d="M1544 1425 c-14 -35 24 -68 51 -45 8 7 15 23 15 36 0 20 -5 24 -30
24 -18 0 -33 -6 -36 -15z"/>
<path d="M1247 1382 c-29 -32 -22 -52 18 -52 28 0 35 4 35 19 0 16 -24 51 -34
51 -2 0 -10 -8 -19 -18z"/>
</g>
</svg>
