<?xml version="1.0" standalone="no"?>
<!DOCTYPE svg PUBLIC "-//W3C//DTD SVG 20010904//EN"
 "http://www.w3.org/TR/2001/REC-SVG-20010904/DTD/svg10.dtd">
<svg version="1.0" xmlns="http://www.w3.org/2000/svg"
 width="255.000000pt" height="239.000000pt" viewBox="0 0 255.000000 239.000000"
 preserveAspectRatio="xMidYMid meet">
<metadata>
Created by potrace 1.13, written by Peter Selinger 2001-2015
</metadata>
<g transform="translate(0.000000,239.000000) scale(0.100000,-0.100000)"
fill="#000000" stroke="none">
<path d="M899 2290 c-269 -45 -367 -87 -489 -209 -112 -113 -168 -235 -205
-447 -25 -141 -26 -392 -2 -499 31 -133 87 -236 178 -327 44 -44 79 -82 79
-86 0 -4 -17 -16 -37 -27 -20 -11 -54 -33 -76 -48 -81 -59 -115 -207 -70 -308
59 -133 248 -239 403 -226 117 10 241 72 293 146 l17 25 55 -61 c34 -38 76
-72 109 -88 52 -26 59 -26 209 -23 l155 3 56 40 c32 22 64 45 72 50 15 11 15
11 128 -59 l60 -36 153 0 c174 0 197 6 255 66 104 110 138 296 75 420 -14 28
-33 56 -41 63 -9 8 -16 19 -16 25 0 7 31 40 69 74 l69 62 23 92 c21 85 23 122
27 435 5 378 -1 435 -48 540 -64 141 -165 252 -290 317 -125 66 -199 86 -319
86 -58 0 -189 7 -291 15 -271 21 -405 18 -601 -15z m954 -50 c210 -42 379
-158 454 -310 72 -147 76 -177 81 -562 4 -396 3 -406 -72 -523 l-45 -71 -143
-42 c-309 -90 -406 -102 -842 -102 -359 0 -445 8 -570 54 -181 65 -352 206
-419 346 -45 93 -57 165 -57 345 1 190 39 397 94 503 50 97 158 193 293 261
123 61 241 92 448 115 17 1 176 4 353 5 288 1 335 -1 425 -19z m-1268 -1605
c21 -22 25 -35 25 -85 0 -76 -14 -90 -86 -90 -42 0 -54 -3 -54 -16 0 -21 84
-102 115 -110 40 -10 94 2 130 30 41 32 85 118 85 167 0 52 19 65 75 49 24 -7
56 -10 70 -6 l25 6 0 -75 c0 -66 -5 -87 -35 -153 -41 -88 -55 -105 -111 -138
-62 -36 -143 -47 -221 -29 -77 18 -169 60 -177 80 -3 8 -12 15 -21 15 -8 0
-15 7 -15 15 0 8 -6 15 -12 15 -22 0 -53 80 -52 131 1 59 52 149 108 190 52
39 114 40 151 4z m1653 -33 c12 -7 22 -21 22 -30 0 -10 9 -35 20 -57 11 -22
20 -49 20 -61 0 -12 -20 -64 -45 -116 -25 -53 -45 -101 -45 -107 0 -7 -30 -26
-67 -43 -59 -27 -80 -32 -153 -32 -105 -1 -165 20 -214 74 -42 46 -51 93 -44
221 6 104 23 139 67 139 27 0 29 -3 35 -49 11 -81 31 -118 77 -142 56 -28 118
-28 179 1 43 20 50 28 50 52 0 37 -32 38 -64 1 -18 -20 -28 -25 -49 -19 -14 3
-29 15 -32 26 -3 11 -11 20 -16 20 -5 0 -9 32 -9 71 l0 71 123 -4 c69 -2 132
-9 145 -16z m-1488 -48 c0 -44 -23 -124 -36 -124 -7 0 -22 -9 -33 -21 -12 -13
-28 -19 -47 -17 -28 3 -47 28 -22 28 8 0 26 12 40 28 24 24 32 47 52 136 7 27
8 28 26 11 11 -10 20 -28 20 -41z m1159 -59 c0 -29 0 -29 -14 -11 -16 21 -20
72 -8 103 6 14 9 8 15 -22 4 -22 7 -53 7 -70z m-659 21 c0 -30 4 -66 10 -80
13 -35 54 -59 101 -59 62 0 95 39 119 141 l12 52 89 0 89 0 0 -52 c0 -28 -7
-87 -16 -132 -15 -71 -22 -87 -61 -131 -56 -63 -113 -84 -233 -84 -114 -1
-176 16 -233 64 -57 48 -65 72 -74 223 l-6 112 101 0 102 0 0 -54z m186 17
c-3 -16 -8 -45 -12 -65 l-6 -38 -58 0 c-56 0 -58 1 -64 31 -8 41 -8 84 1 92 3
4 37 7 75 7 l70 0 -6 -27z"/>
<path d="M1183 2159 c-24 -4 -51 -13 -60 -19 -14 -9 -8 -10 27 -6 25 3 80 9
123 12 48 4 73 10 65 15 -16 11 -99 10 -155 -2z"/>
<path d="M1401 2156 c6 -6 325 -36 374 -35 27 1 26 2 -15 16 -44 15 -372 32
-359 19z"/>
<path d="M970 2118 c-40 -16 -10 -19 50 -4 55 14 55 14 15 14 -22 1 -51 -4
-65 -10z"/>
<path d="M1842 2097 c9 -7 44 -32 79 -57 110 -79 193 -196 224 -317 18 -69 21
-355 4 -435 -38 -180 -189 -336 -400 -413 -38 -13 -55 -25 -51 -32 5 -8 49 9
139 53 109 52 144 75 196 126 68 68 107 135 132 233 21 82 21 394 0 484 -36
150 -136 282 -260 341 -65 31 -92 38 -63 17z"/>
<path d="M810 2084 c-143 -38 -258 -172 -322 -374 -20 -66 -23 -94 -23 -235 1
-243 39 -350 170 -481 120 -119 234 -162 450 -169 l130 -4 -95 10 c-289 30
-456 118 -553 294 -66 121 -72 149 -72 345 1 136 5 189 19 240 42 154 133 262
281 336 49 25 92 47 94 50 8 7 -23 3 -79 -12z"/>
<path d="M1309 2050 c-426 -41 -661 -186 -709 -439 -16 -86 -13 -308 6 -371
31 -106 177 -213 369 -272 63 -19 99 -22 345 -25 227 -4 287 -2 344 11 96 23
175 68 244 140 98 102 155 242 168 415 20 266 -99 452 -336 526 -65 20 -297
28 -431 15z m394 -55 c90 -19 198 -77 247 -133 86 -97 78 -196 -22 -288 -67
-62 -117 -77 -235 -72 -218 9 -279 103 -258 401 l7 107 96 0 c54 0 127 -7 165
-15z m-303 -182 c1 -144 4 -194 15 -213 24 -42 19 -60 -17 -60 -41 0 -78 34
-78 72 0 42 -24 35 -54 -17 -31 -53 -60 -75 -99 -75 -42 0 -42 22 3 70 53 57
70 115 80 275 5 72 9 131 9 133 1 1 33 2 71 2 l70 0 0 -187z m-190 39 c0 -138
0 -139 -31 -186 -70 -105 -180 -158 -329 -160 -145 -1 -197 36 -188 134 16
162 278 343 506 349 l42 1 0 -138z m812 -334 c-2 -40 -6 -75 -8 -77 -5 -6 -74
42 -74 52 0 6 79 97 84 97 1 0 0 -33 -2 -72z m-702 -3 c21 -19 408 -75 515
-75 85 0 113 -16 139 -80 42 -105 -33 -220 -204 -314 -115 -62 -159 -69 -449
-63 -290 5 -339 14 -483 89 -138 71 -197 151 -198 265 0 51 4 67 24 90 24 28
25 28 148 29 94 0 141 6 201 22 57 16 83 19 97 12 32 -17 83 -11 130 15 54 29
59 29 80 10z m-660 -26 c0 -5 -4 -9 -10 -9 -5 0 -10 7 -10 16 0 8 5 12 10 9 6
-3 10 -10 10 -16z"/>
<path d="M1731 1794 c-41 -29 -60 -30 -111 -4 l-40 20 0 -30 c0 -58 55 -110
118 -110 45 0 92 55 92 108 0 49 -9 51 -59 16z m-6 -74 c-10 -11 -26 -20 -35
-20 -9 0 -25 9 -35 20 -18 20 -17 20 35 20 52 0 53 0 35 -20z"/>
<path d="M853 1794 c-9 -24 28 -95 62 -115 36 -23 83 -24 130 -5 41 17 55 42
55 95 0 45 -9 49 -50 26 -33 -19 -92 -19 -137 0 -45 19 -52 19 -60 -1z m201
-59 c-9 -22 -37 -35 -74 -35 -37 0 -65 13 -74 35 -4 13 7 15 74 15 67 0 78 -2
74 -15z"/>
<path d="M1226 1360 c-87 -44 -108 -91 -60 -129 44 -35 93 -43 151 -26 59 18
86 44 86 86 0 72 -98 110 -177 69z m122 -44 l23 -23 -26 -31 c-23 -28 -33 -32
-75 -32 -60 0 -101 28 -84 57 6 10 28 28 50 41 45 26 77 22 112 -12z"/>
<path d="M1608 833 c6 -2 18 -2 25 0 6 3 1 5 -13 5 -14 0 -19 -2 -12 -5z"/>
</g>
</svg>
