<?xml version="1.0" standalone="no"?>
<!DOCTYPE svg PUBLIC "-//W3C//DTD SVG 20010904//EN"
 "http://www.w3.org/TR/2001/REC-SVG-20010904/DTD/svg10.dtd">
<svg version="1.0" xmlns="http://www.w3.org/2000/svg"
 width="255.000000pt" height="239.000000pt" viewBox="0 0 255.000000 239.000000"
 preserveAspectRatio="xMidYMid meet">
<metadata>
Created by potrace 1.13, written by Peter Selinger 2001-2015
</metadata>
<g transform="translate(0.000000,239.000000) scale(0.100000,-0.100000)"
fill="#000000" stroke="none">
<path d="M905 2289 c-429 -57 -711 -300 -780 -672 -13 -69 -16 -136 -13 -315
l3 -228 32 -65 c37 -75 129 -188 190 -235 23 -18 84 -48 135 -68 127 -49 149
-69 159 -137 7 -58 -7 -99 -36 -99 -11 0 -15 13 -15 56 0 68 -19 104 -70 133
-72 40 -148 24 -223 -48 -56 -52 -80 -105 -80 -172 2 -162 133 -277 330 -287
100 -5 157 12 250 74 36 24 69 44 72 44 4 0 37 -27 74 -60 42 -37 82 -63 108
-70 25 -7 109 -10 213 -8 l172 3 67 48 68 49 54 -46 c89 -76 119 -86 276 -86
136 0 136 0 207 35 124 63 181 153 169 269 -7 65 -26 105 -84 174 l-45 53 55
52 c62 58 103 119 170 252 82 163 87 193 87 469 0 262 -7 327 -47 455 -76 241
-233 356 -568 418 -96 18 -819 27 -930 12z m877 -74 c170 -36 385 -130 470
-205 25 -21 52 -56 61 -77 9 -21 30 -126 48 -233 31 -192 32 -197 21 -355 -13
-185 -36 -286 -91 -400 -89 -184 -231 -292 -431 -325 -83 -14 -235 -10 -575
15 -305 23 -471 48 -649 100 -166 48 -266 97 -344 169 -92 84 -107 155 -107
491 l0 240 31 76 c62 153 194 309 332 393 78 47 201 92 300 110 117 21 834 22
934 1z m-1276 -1619 c28 -28 34 -42 34 -75 0 -39 -2 -41 -29 -41 -16 0 -39 -8
-51 -18 -19 -16 -20 -20 -9 -45 15 -32 42 -41 110 -35 82 8 114 53 125 178 l7
72 39 -6 c21 -3 56 -9 78 -12 48 -7 56 -26 46 -107 -20 -158 -157 -297 -293
-297 -96 0 -235 75 -272 147 -6 12 -11 48 -11 80 0 71 31 126 93 167 56 36 91
34 133 -8z m634 -18 c15 -103 32 -165 51 -180 26 -22 90 -23 127 -4 30 16 72
82 72 115 0 20 5 21 79 21 44 0 82 -4 85 -9 11 -17 -23 -169 -50 -224 -26 -53
-31 -58 -88 -77 -107 -37 -238 -36 -370 1 -53 15 -122 85 -131 132 -4 21 0 64
9 106 9 38 16 81 16 95 l0 26 100 0 c55 0 100 -1 100 -2z m169 -19 c36 -13 37
-19 14 -76 -17 -41 -20 -43 -60 -43 -51 0 -73 27 -53 65 9 17 9 28 1 44 -11
20 -9 21 27 21 22 0 53 -5 71 -11z m508 -84 c4 -82 27 -141 64 -160 77 -40
189 10 189 85 0 22 -33 40 -76 40 -20 0 -24 5 -24 32 0 51 23 68 95 68 54 0
63 -3 68 -20 3 -11 12 -20 20 -20 24 0 51 -93 43 -149 -4 -25 -7 -52 -8 -58
-1 -7 -7 -13 -13 -13 -7 0 -17 -11 -23 -24 -6 -13 -36 -38 -68 -55 -57 -31
-60 -31 -198 -31 -154 0 -160 2 -226 67 -28 27 -34 42 -38 88 -2 30 1 82 7
115 9 43 9 65 1 80 -10 19 -8 20 87 20 l98 0 2 -65z m98 56 c-5 -10 7 -96 20
-138 9 -30 -17 -31 -45 -3 -16 16 -20 33 -20 85 0 63 1 65 26 65 14 0 23 -4
19 -9z"/>
<path d="M945 2016 c-236 -54 -393 -190 -462 -400 -25 -76 -26 -94 -27 -271
-1 -187 -1 -191 26 -240 34 -66 108 -147 181 -201 49 -36 74 -46 170 -68 260
-60 388 -76 602 -76 222 0 272 8 378 61 42 21 89 59 148 119 70 70 94 103 127
171 46 98 59 145 68 254 4 59 2 96 -10 141 -9 34 -16 88 -16 120 0 143 -104
250 -313 323 -177 62 -255 73 -547 77 -200 3 -280 0 -325 -10z m578 -41 c278
-36 466 -129 542 -266 29 -52 30 -60 33 -202 4 -141 3 -152 -28 -255 -32 -109
-97 -259 -107 -248 -4 3 0 32 8 63 29 119 9 465 -31 549 -41 84 -132 144 -283
188 -123 36 -260 49 -469 44 -207 -5 -269 -17 -389 -76 -74 -37 -74 -37 -116
-122 -49 -98 -73 -122 -117 -118 -29 3 -31 6 -34 51 -9 138 157 304 365 367
39 12 93 25 120 30 84 14 385 11 506 -5z m-383 -197 c-1 -30 -80 -93 -145
-115 -69 -23 -198 -24 -221 -1 -15 14 -15 19 -4 33 34 41 218 104 308 104 58
1 62 0 62 -21z m365 11 c174 -24 269 -72 334 -168 56 -82 59 -91 29 -91 -40 0
-131 -30 -169 -56 -114 -78 -177 -300 -118 -421 27 -55 119 -139 170 -154 22
-7 36 -16 32 -20 -4 -4 -66 -24 -137 -44 l-130 -38 -200 6 c-121 3 -235 12
-286 22 -252 48 -416 147 -486 292 -25 52 -28 71 -32 189 -5 147 2 174 42 167
40 -8 73 5 114 42 l38 34 56 -57 c31 -31 61 -67 67 -79 14 -27 14 -136 1 -181
-8 -29 -6 -37 15 -58 34 -34 71 -31 109 10 38 40 56 94 56 169 0 30 3 63 6 72
4 8 34 35 68 59 33 25 71 55 83 68 27 29 53 89 53 123 0 33 12 32 33 -4 35
-59 25 -83 -72 -179 -81 -80 -91 -94 -110 -156 -42 -138 -12 -266 63 -266 22
0 20 13 -9 56 -21 30 -25 49 -25 103 1 89 20 128 118 234 96 103 114 145 91
210 -9 28 -29 52 -59 75 -25 19 -46 38 -48 43 -5 13 211 11 303 -2z m-345
-129 c0 -43 -26 -89 -56 -100 -28 -11 -104 -13 -128 -4 -19 7 -22 53 -3 58 6
2 30 9 53 15 22 6 56 22 75 35 46 33 59 32 59 -4z m-264 -89 c-16 -30 -34 -41
-70 -41 -30 0 -66 27 -66 51 0 17 7 19 75 19 l76 0 -15 -29z m92 -76 c11 -10
-13 -45 -39 -55 -26 -11 -36 -10 -65 3 -19 9 -34 20 -34 24 0 16 75 41 105 36
17 -3 32 -7 33 -8z m912 -24 c0 -4 -21 -13 -47 -18 -27 -6 -57 -13 -68 -17
-11 -4 0 4 25 18 45 25 90 34 90 17z m-172 -73 c-51 -48 -80 -111 -86 -189 -6
-84 9 -130 62 -187 32 -36 36 -42 16 -32 -94 48 -124 106 -119 223 5 89 35
142 106 188 60 37 65 37 21 -3z m116 -14 c14 -5 14 -8 -1 -30 -8 -13 -19 -24
-24 -24 -16 0 -22 30 -9 45 14 17 13 17 34 9z m-878 -56 c-10 -70 -40 -127
-68 -128 -4 0 -15 11 -24 25 -15 23 -15 30 1 90 l18 65 40 0 40 0 -7 -52z
m800 -45 c-3 -3 -13 -3 -22 1 -15 6 -15 8 2 27 l19 21 3 -22 c2 -12 1 -24 -2
-27z m134 18 c14 -28 13 -38 -11 -62 l-21 -21 -19 28 c-18 28 -18 29 3 51 26
28 34 29 48 4z m-77 -80 c16 -27 16 -29 -3 -46 -20 -18 -21 -18 -35 1 -15 20
-20 56 -8 67 13 14 29 6 46 -22z m100 -48 c-7 -45 -8 -47 -22 -38 -12 7 -15
58 -4 68 19 20 31 5 26 -30z m-173 -10 c0 -33 -12 -63 -25 -63 -15 0 -25 22
-25 56 0 19 5 24 25 24 17 0 25 -5 25 -17z m120 -58 c0 -7 -6 -18 -14 -24 -12
-10 -17 -8 -26 9 -15 28 5 57 26 39 8 -6 14 -17 14 -24z m-70 -40 c0 -27 -1
-28 -24 -19 -28 11 -17 40 17 43 4 1 7 -10 7 -24z m95 -35 c3 -5 -1 -10 -9
-10 -9 0 -16 5 -16 10 0 6 4 10 9 10 6 0 13 -4 16 -10z m-37 -85 c12 -12 -51
-4 -78 10 -17 9 -30 17 -30 19 0 4 102 -23 108 -29z"/>
<path d="M1770 1610 c0 -5 9 -10 20 -10 11 0 20 5 20 10 0 6 -9 10 -20 10 -11
0 -20 -4 -20 -10z"/>
<path d="M1630 1570 c0 -5 7 -10 15 -10 8 0 15 5 15 10 0 6 -7 10 -15 10 -8 0
-15 -4 -15 -10z"/>
<path d="M1537 1464 c-8 -8 1 -24 14 -24 5 0 9 7 9 15 0 15 -12 20 -23 9z"/>
<path d="M1470 1305 c0 -8 7 -15 15 -15 8 0 15 7 15 15 0 8 -7 15 -15 15 -8 0
-15 -7 -15 -15z"/>
<path d="M1460 1150 c0 -5 5 -10 10 -10 6 0 10 5 10 10 0 6 -4 10 -10 10 -5 0
-10 -4 -10 -10z"/>
<path d="M1588 913 c6 -2 18 -2 25 0 6 3 1 5 -13 5 -14 0 -19 -2 -12 -5z"/>
</g>
</svg>
