<?xml version="1.0" standalone="no"?>
<!DOCTYPE svg PUBLIC "-//W3C//DTD SVG 20010904//EN"
 "http://www.w3.org/TR/2001/REC-SVG-20010904/DTD/svg10.dtd">
<svg version="1.0" xmlns="http://www.w3.org/2000/svg"
 width="255.000000pt" height="239.000000pt" viewBox="0 0 255.000000 239.000000"
 preserveAspectRatio="xMidYMid meet">
<metadata>
Created by potrace 1.13, written by Peter Selinger 2001-2015
</metadata>
<g transform="translate(0.000000,239.000000) scale(0.100000,-0.100000)"
fill="#000000" stroke="none">
<path d="M634 2280 c-241 -63 -425 -256 -510 -535 -27 -88 -28 -98 -32 -389
l-4 -299 28 -71 c35 -89 59 -123 154 -214 68 -66 73 -73 56 -83 -42 -26 -94
-81 -121 -130 -37 -68 -46 -177 -21 -244 47 -122 194 -198 386 -198 119 -1
186 15 247 59 26 19 53 34 59 34 5 0 23 -14 39 -30 47 -49 166 -83 295 -83
133 -1 199 17 263 73 l46 41 78 -41 c100 -52 183 -64 332 -50 216 20 348 88
396 203 25 61 30 154 11 219 -14 48 -24 61 -71 98 -30 23 -55 46 -55 51 0 5
20 37 45 71 25 35 50 81 56 103 6 22 26 77 45 123 22 54 34 98 34 130 0 27 7
57 15 68 12 15 14 64 15 259 0 138 -5 257 -11 280 -33 125 -84 274 -104 300
-12 17 -26 41 -30 55 -26 87 -176 155 -434 199 -115 19 -160 21 -630 20 -461
0 -512 -2 -577 -19z m1031 -35 c291 -33 431 -73 487 -138 86 -98 151 -218 183
-337 26 -97 31 -325 11 -477 -28 -213 -104 -462 -158 -520 -31 -33 -120 -78
-194 -97 -32 -8 -167 -29 -299 -47 -226 -29 -253 -31 -460 -26 -238 6 -359 23
-575 77 -200 50 -337 110 -399 174 -17 18 -41 57 -54 87 -21 52 -22 69 -25
414 -1 198 0 369 2 380 3 11 18 41 34 65 16 25 33 63 37 85 32 179 254 313
595 360 139 19 650 19 815 0z m-1173 -1597 c51 -15 98 -59 98 -90 0 -31 -42
-71 -103 -98 -27 -12 -47 -27 -44 -33 2 -7 19 -20 38 -30 75 -40 202 -3 232
67 6 16 21 48 32 70 20 41 21 41 73 40 76 -2 85 -14 80 -96 -10 -134 -101
-260 -211 -293 -107 -32 -251 -11 -343 50 -128 84 -138 262 -22 373 52 49 101
61 170 40z m1705 -43 c57 -34 83 -85 83 -165 0 -170 -146 -259 -426 -260 -130
0 -198 17 -249 61 l-35 31 0 128 0 128 40 16 c23 9 69 16 108 16 l69 0 -1 -69
c-1 -55 3 -75 20 -97 47 -63 119 -91 187 -73 45 12 127 83 127 110 0 23 -28
25 -56 4 -44 -33 -116 -6 -130 49 -8 32 19 91 50 112 62 40 153 44 213 9z
m-1507 -40 c0 -32 -34 -101 -54 -108 -12 -5 -11 3 5 36 10 23 19 54 19 70 0
17 5 27 15 27 9 0 15 -9 15 -25z m1224 -164 c24 -25 26 -31 12 -31 -21 0 -58
19 -68 34 -12 18 -9 126 5 149 11 20 13 14 17 -50 4 -62 9 -76 34 -102z m-851
85 c8 -113 39 -157 125 -182 58 -17 115 -13 161 10 33 18 65 74 85 150 17 69
26 80 55 71 18 -6 21 -14 21 -69 0 -77 -39 -199 -77 -238 -79 -83 -266 -96
-411 -28 -81 38 -99 73 -77 147 8 26 15 70 15 97 0 59 37 116 74 116 22 0 23
-5 29 -74z m102 17 c13 -88 59 -134 118 -119 36 9 56 43 64 105 8 70 28 61 28
-14 -1 -53 -3 -60 -38 -91 -33 -31 -42 -34 -98 -34 -54 0 -64 3 -90 29 -26 27
-29 36 -29 95 0 59 2 66 20 66 14 0 20 -9 25 -37z m115 -13 c0 -42 -3 -50 -19
-50 -20 0 -31 25 -31 73 0 22 4 27 25 27 23 0 25 -3 25 -50z"/>
<path d="M1003 2039 c-123 -12 -268 -50 -361 -95 -102 -49 -215 -160 -260
-254 -85 -181 -101 -445 -35 -592 58 -130 169 -183 476 -228 76 -12 159 -28
185 -36 65 -22 509 -14 622 11 215 48 352 152 413 313 20 53 22 75 22 317 0
218 -3 269 -17 315 -36 115 -102 186 -217 232 -54 21 -70 22 -396 24 -187 1
-381 -2 -432 -7z m797 -57 c118 -38 173 -107 200 -249 19 -98 8 -407 -19 -506
-41 -156 -114 -251 -234 -308 -91 -42 -146 -49 -400 -49 -218 0 -243 2 -496
41 -175 26 -280 47 -308 60 -53 26 -89 67 -142 162 l-41 74 0 131 0 130 49
109 c27 59 57 132 67 162 16 45 28 60 79 96 73 52 181 107 255 130 39 12 118
19 273 25 121 5 222 12 225 15 4 4 102 5 217 3 180 -4 219 -8 275 -26z"/>
<path d="M650 1810 c0 -78 20 -131 69 -180 67 -67 121 -82 308 -88 l152 -4
100 -127 c130 -165 140 -171 300 -171 109 0 121 2 131 19 5 11 10 22 10 25 0
10 -50 6 -72 -5 -31 -17 -80 -2 -126 37 -34 29 -42 42 -42 69 0 54 -36 137
-77 177 -66 65 -84 68 -351 68 -227 0 -240 1 -282 23 -57 28 -85 75 -85 142 0
39 -4 50 -17 53 -15 3 -18 -4 -18 -38z m665 -228 c33 -16 66 -36 73 -44 12
-15 73 -220 67 -226 -2 -2 -16 3 -33 12 -18 9 -49 46 -77 92 -95 152 -126 173
-270 184 l-90 7 135 1 c129 2 138 1 195 -26z"/>
<path d="M1695 1749 c-42 -37 -45 -70 -10 -104 33 -34 87 -36 138 -7 38 23 38
73 -2 113 -40 39 -79 39 -126 -2z m95 -49 c0 -33 -28 -51 -63 -42 -48 12 -25
72 28 72 32 0 35 -2 35 -30z"/>
<path d="M861 1449 c-41 -40 -43 -88 -4 -118 31 -25 53 -21 103 18 47 37 52
80 14 110 -38 30 -77 27 -113 -10z m99 -23 c0 -21 -42 -64 -65 -68 -16 -2 -21
3 -23 30 -3 26 1 34 20 41 35 15 68 13 68 -3z"/>
</g>
</svg>
