<?xml version="1.0" standalone="no"?>
<!DOCTYPE svg PUBLIC "-//W3C//DTD SVG 20010904//EN"
 "http://www.w3.org/TR/2001/REC-SVG-20010904/DTD/svg10.dtd">
<svg version="1.0" xmlns="http://www.w3.org/2000/svg"
 width="255.000000pt" height="239.000000pt" viewBox="0 0 255.000000 239.000000"
 preserveAspectRatio="xMidYMid meet">
<metadata>
Created by potrace 1.13, written by Peter Selinger 2001-2015
</metadata>
<g transform="translate(0.000000,239.000000) scale(0.100000,-0.100000)"
fill="#000000" stroke="none">
<path d="M682 2271 c-298 -74 -495 -314 -557 -680 -13 -74 -16 -149 -13 -360
4 -261 4 -268 32 -351 36 -108 74 -182 126 -248 l41 -52 -46 -64 c-58 -82 -79
-141 -73 -212 6 -72 43 -118 133 -164 67 -34 70 -35 209 -39 175 -4 226 7 314
66 59 39 69 43 87 32 11 -7 49 -28 85 -47 l65 -34 160 5 c164 5 233 19 333 71
44 23 59 20 100 -15 108 -95 302 -105 464 -23 64 32 153 116 180 168 27 53 22
152 -10 196 l-23 30 69 203 c104 301 105 309 100 619 -3 145 -9 283 -16 308
-6 25 -16 72 -21 105 -34 192 -224 366 -489 449 -167 52 -217 56 -716 55 -408
0 -469 -3 -534 -18z m1093 -56 c50 -14 120 -32 158 -40 153 -32 284 -136 364
-291 97 -185 119 -383 82 -724 -26 -232 -98 -486 -156 -551 -73 -80 -233 -136
-456 -159 -167 -17 -767 -8 -902 14 -365 60 -584 186 -656 377 -15 40 -24 108
-36 301 -19 280 -15 338 38 546 59 237 149 362 322 447 180 89 281 102 792
104 356 1 361 0 450 -24z m-1299 -1730 c42 -14 93 -34 115 -45 65 -34 45 -80
-35 -80 -30 0 -35 3 -38 28 -2 19 -9 27 -23 27 -16 0 -21 -8 -23 -35 -4 -53
14 -71 74 -72 69 0 112 24 133 73 10 25 22 39 35 39 47 0 196 -34 196 -45 0
-6 -21 -44 -46 -83 -40 -63 -53 -75 -110 -103 -64 -32 -64 -32 -186 -26 -152
6 -219 26 -270 77 -33 33 -38 44 -38 84 0 81 69 186 122 186 11 0 53 -11 94
-25z m1786 -12 c30 -27 25 -111 -10 -159 -34 -46 -134 -108 -211 -130 -77 -23
-231 -16 -286 13 -63 33 -83 89 -56 156 11 27 12 28 83 25 l73 -3 20 -38 c24
-46 37 -54 90 -58 83 -5 104 0 145 37 42 38 50 61 24 71 -10 3 -29 -8 -53 -31
-29 -28 -45 -36 -74 -36 -37 0 -97 23 -97 38 1 28 34 45 130 66 41 10 100 28
130 41 68 29 69 29 92 8z m-1082 -121 c0 -40 19 -62 60 -68 28 -4 54 4 128 40
87 43 99 46 173 46 79 0 80 0 74 -22 -25 -80 -122 -138 -263 -158 -154 -22
-292 -1 -349 52 -19 18 -23 32 -23 80 l0 58 100 0 100 0 0 -28z m124 8 c15 0
16 -3 6 -15 -7 -9 -29 -15 -52 -15 -36 0 -38 1 -27 21 8 15 17 19 32 15 12 -3
30 -6 41 -6z"/>
<path d="M1265 2100 c-413 -29 -691 -188 -796 -453 -22 -55 -73 -300 -84 -402
-9 -79 14 -187 56 -266 49 -91 169 -199 283 -253 154 -74 194 -81 481 -80 453
1 641 41 783 169 94 85 144 174 212 379 l43 129 -6 136 c-6 159 -29 259 -83
362 -67 128 -201 227 -355 264 -77 18 -376 27 -534 15z m519 -70 c94 -24 208
-82 257 -131 45 -45 56 -86 35 -127 -15 -30 -90 -102 -105 -102 -5 0 -3 21 5
47 8 25 14 66 14 90 0 36 -3 43 -20 43 -17 0 -20 -7 -20 -47 -2 -119 -49 -171
-222 -244 -110 -46 -148 -57 -148 -43 0 3 14 25 31 50 17 25 41 69 55 100 27
62 33 144 10 144 -10 0 -17 -18 -21 -57 -11 -86 -41 -147 -97 -198 -75 -67
-136 -86 -303 -92 l-140 -5 90 89 c79 79 93 97 113 156 27 81 29 110 5 105
-12 -2 -20 -17 -25 -45 -10 -61 -44 -120 -106 -185 -97 -102 -151 -125 -240
-102 -56 15 -162 59 -162 67 0 3 24 20 52 38 83 53 117 88 149 150 27 55 39
119 21 119 -4 0 -15 -20 -24 -45 -46 -124 -145 -219 -223 -213 -50 4 -65 30
-65 116 0 107 56 181 185 245 153 77 264 95 576 96 214 1 256 -2 323 -19z
m-1130 -433 c45 -92 166 -161 329 -187 148 -24 422 3 670 65 220 56 346 112
425 191 29 30 57 54 62 54 18 0 32 -113 37 -292 l6 -187 -51 -108 c-27 -59
-62 -136 -78 -171 -15 -34 -42 -76 -61 -92 -44 -39 -130 -82 -216 -109 -231
-71 -716 -93 -897 -41 -179 51 -324 158 -385 284 -57 116 -62 215 -24 431 14
82 83 253 122 307 l32 43 6 -75 c3 -41 13 -92 23 -113z"/>
<path d="M875 1331 c-32 -14 -73 -60 -85 -97 -16 -48 0 -83 52 -117 69 -44
160 -30 231 36 73 70 -12 188 -135 186 -23 0 -52 -4 -63 -8z m85 -36 c0 -8 -9
-15 -20 -15 -11 0 -20 7 -20 15 0 8 9 15 20 15 11 0 20 -7 20 -15z m-62 -27
c19 -19 15 -58 -6 -58 -20 0 -46 45 -37 61 8 13 29 11 43 -3z m132 -8 c0 -5
-9 -10 -20 -10 -11 0 -20 5 -20 10 0 6 9 10 20 10 11 0 20 -4 20 -10z m-80
-74 c0 -2 -7 -6 -15 -10 -8 -3 -15 -1 -15 4 0 6 7 10 15 10 8 0 15 -2 15 -4z"/>
<path d="M1444 1321 c-43 -26 -64 -59 -64 -97 0 -70 94 -131 159 -104 17 7 47
30 66 51 41 46 48 101 16 140 -26 33 -132 39 -177 10z m126 -41 c0 -5 -7 -10
-15 -10 -8 0 -15 5 -15 10 0 6 7 10 15 10 8 0 15 -4 15 -10z m-116 -45 c-6
-16 -24 -21 -24 -7 0 11 11 22 21 22 5 0 6 -7 3 -15z m41 -35 c-10 -11 -22
-20 -27 -20 -4 0 -3 9 4 20 7 11 19 20 27 20 11 0 10 -5 -4 -20z"/>
<path d="M1235 1105 c-57 -15 -125 -79 -125 -118 0 -39 53 -102 101 -121 63
-26 114 -14 167 39 57 57 58 99 5 156 -48 50 -83 60 -148 44z m95 -65 c0 -5
-4 -10 -9 -10 -6 0 -13 5 -16 10 -3 6 1 10 9 10 9 0 16 -4 16 -10z m-113 -6
c-3 -3 -12 -4 -19 -1 -8 3 -5 6 6 6 11 1 17 -2 13 -5z m163 -31 c0 -7 -7 -13
-15 -13 -8 0 -15 6 -15 13 0 8 7 14 15 14 8 0 15 -6 15 -14z m-103 -9 c-3 -3
-12 -4 -19 -1 -8 3 -5 6 6 6 11 1 17 -2 13 -5z m73 -44 c0 -26 -25 -36 -46
-19 -14 12 -14 14 2 26 26 19 44 16 44 -7z"/>
</g>
</svg>
