<?xml version="1.0" standalone="no"?>
<!DOCTYPE svg PUBLIC "-//W3C//DTD SVG 20010904//EN"
 "http://www.w3.org/TR/2001/REC-SVG-20010904/DTD/svg10.dtd">
<svg version="1.0" xmlns="http://www.w3.org/2000/svg"
 width="255.000000pt" height="239.000000pt" viewBox="0 0 255.000000 239.000000"
 preserveAspectRatio="xMidYMid meet">
<metadata>
Created by potrace 1.13, written by Peter Selinger 2001-2015
</metadata>
<g transform="translate(0.000000,239.000000) scale(0.100000,-0.100000)"
fill="#000000" stroke="none">
<path d="M1005 2313 c-167 -14 -361 -63 -452 -114 -99 -57 -189 -175 -264
-349 -86 -200 -93 -235 -97 -516 -3 -209 0 -262 13 -315 24 -91 83 -211 149
-303 l57 -79 -36 -53 c-39 -56 -65 -128 -65 -177 0 -95 69 -186 186 -244 137
-67 292 -56 433 32 l55 33 58 -44 c101 -79 135 -89 278 -88 150 0 194 14 262
81 l47 46 53 -47 c29 -25 68 -53 88 -63 44 -21 185 -29 265 -14 143 26 280
130 310 236 28 94 11 168 -70 301 l-19 32 41 63 c95 146 118 292 110 699 -8
442 -37 574 -147 673 -70 63 -123 92 -242 131 -188 63 -403 87 -748 84 -124
-1 -243 -3 -265 -5z m527 -57 c35 -8 140 -20 235 -25 188 -11 260 -28 346 -83
100 -64 182 -192 211 -332 40 -188 52 -568 23 -741 -39 -239 -79 -320 -184
-377 -141 -77 -589 -148 -931 -148 -418 0 -691 64 -832 196 -72 67 -119 166
-126 264 -3 41 -12 96 -20 122 -11 35 -14 85 -11 205 5 243 25 322 141 566 85
178 95 189 251 262 163 77 313 103 612 104 161 1 239 -3 285 -13z m686 -1662
c37 -26 65 -92 69 -169 6 -90 -20 -144 -95 -196 -75 -53 -148 -73 -267 -74
-91 0 -104 2 -147 27 -70 42 -88 87 -88 220 l0 106 50 11 c71 15 70 16 70 -32
0 -146 81 -226 218 -215 51 5 59 9 94 49 27 31 38 53 38 77 0 45 -34 45 -49 0
-18 -50 -49 -78 -89 -78 -96 0 -154 112 -102 197 43 72 235 121 298 77z
m-1636 -28 c124 -44 158 -87 123 -153 -36 -66 -95 -69 -121 -8 -18 43 -29 44
-49 5 -12 -23 -13 -35 -4 -51 15 -29 85 -59 137 -59 74 0 109 24 168 117 l54
83 56 0 56 0 -7 -37 c-24 -136 -69 -211 -150 -252 -43 -23 -61 -26 -145 -25
-73 0 -108 5 -150 22 -148 58 -207 180 -145 302 27 53 58 80 90 80 11 0 50
-11 87 -24z m238 -83 c0 -16 -11 -41 -25 -58 l-24 -30 -1 58 c0 54 1 57 25 57
21 0 25 -5 25 -27z m630 -19 c0 -40 -31 -98 -60 -114 -10 -6 -31 -10 -45 -10
-35 0 -95 59 -95 92 0 47 34 61 158 66 l42 2 0 -36z m169 22 c18 -21 -3 -137
-35 -197 -61 -111 -181 -157 -339 -130 -86 15 -160 53 -185 94 -35 57 -21 191
23 222 31 22 82 19 106 -6 10 -11 28 -46 40 -78 29 -79 50 -96 118 -96 51 0
57 3 93 41 22 23 47 67 60 102 l23 62 42 0 c24 0 48 -6 54 -14z"/>
<path d="M1192 2059 c-275 -23 -486 -99 -588 -211 -56 -63 -76 -118 -85 -238
-4 -64 -15 -128 -28 -165 -12 -33 -24 -94 -28 -135 -22 -287 186 -486 581
-555 118 -20 625 -21 736 -1 210 38 299 118 347 313 13 54 17 114 16 283 0
272 -11 390 -41 452 -47 96 -216 216 -358 253 -65 17 -367 19 -552 4z m566
-53 c23 -8 79 -36 125 -61 180 -101 245 -271 234 -613 -5 -171 -20 -246 -68
-349 -43 -90 -108 -145 -190 -160 -35 -7 -74 -15 -86 -19 -18 -5 -23 -2 -23
13 0 11 9 28 20 38 27 24 64 105 85 185 36 136 28 469 -15 583 -38 101 -121
156 -268 178 -118 16 -496 7 -577 -15 -130 -36 -165 -61 -308 -220 -38 -42
-47 -48 -71 -42 -43 11 -68 61 -61 124 15 142 135 256 340 322 63 21 95 24
310 28 191 3 244 7 260 19 26 19 230 12 293 -11z m-263 -256 c164 -19 247 -58
299 -143 25 -40 30 -59 30 -115 l1 -67 -40 -1 c-120 -5 -223 -45 -265 -103
-46 -65 -62 -163 -40 -240 22 -77 104 -121 222 -121 57 0 59 -1 53 -22 -12
-37 -54 -87 -98 -116 l-42 -27 -270 1 c-269 0 -271 0 -385 31 -360 95 -447
187 -444 468 1 84 6 131 17 158 l16 37 70 0 c38 0 82 5 97 10 22 9 37 7 75
-10 98 -42 242 -15 297 55 19 24 22 41 22 116 l0 89 58 0 c57 0 58 -1 70 -33
17 -46 15 -209 -2 -251 -21 -49 -55 -71 -164 -100 -114 -32 -150 -56 -158
-107 -5 -29 -1 -41 21 -67 l27 -33 -27 -61 c-25 -54 -26 -65 -16 -99 8 -27 17
-39 31 -39 15 0 19 10 23 58 2 31 12 78 23 103 l18 47 -28 40 c-30 43 -29 75
2 87 9 4 59 18 110 31 164 41 182 67 182 267 0 75 3 142 6 151 7 19 74 21 209
6z m-485 -40 c0 -28 -33 -43 -56 -25 -19 15 -19 15 0 30 28 21 56 19 56 -5z
m54 -46 c9 -24 7 -54 -3 -54 -12 0 -41 40 -41 57 0 19 37 16 44 -3z m-118 -8
c20 -20 18 -40 -6 -61 -20 -18 -21 -18 -42 2 -20 21 -20 23 -4 47 19 29 31 32
52 12z m-131 -86 c-7 -21 -30 -27 -40 -10 -4 6 1 23 10 37 15 23 19 24 27 9 5
-9 6 -25 3 -36z m211 -8 c-11 -35 -66 -41 -66 -8 0 7 10 22 21 35 19 20 23 21
36 8 9 -9 12 -23 9 -35z m-142 -3 c30 -14 24 -39 -9 -39 -28 0 -38 12 -29 34
7 19 7 19 38 5z m773 -247 c-16 -2 -31 -1 -33 1 -9 9 8 35 29 44 19 9 23 7 27
-16 5 -23 2 -26 -23 -29z m161 46 c15 -15 16 -65 0 -74 -13 -8 -68 49 -68 71
0 18 51 20 68 3z m-65 -75 c15 -20 27 -43 27 -51 0 -19 -29 -52 -46 -52 -17 0
-74 58 -74 76 0 14 47 64 59 64 3 -1 18 -17 34 -37z m-174 -59 c-31 -37 -41
14 -11 56 l17 25 3 -33 c2 -18 -2 -40 -9 -48z m90 -39 c35 -40 38 -57 16 -75
-8 -7 -15 -19 -15 -26 0 -28 -27 -13 -59 31 -32 45 -32 53 -3 88 21 23 25 22
61 -18z m151 -20 c0 -53 -21 -71 -40 -34 -9 16 -8 26 5 45 18 28 35 23 35 -11z
m-226 -96 c15 -22 25 -43 23 -46 -8 -7 -77 58 -77 73 0 27 28 13 54 -27z m165
5 c27 -34 26 -38 -5 -53 -53 -24 -86 18 -47 61 21 24 28 23 52 -8z"/>
</g>
</svg>
