<?xml version="1.0" standalone="no"?>
<!DOCTYPE svg PUBLIC "-//W3C//DTD SVG 20010904//EN"
 "http://www.w3.org/TR/2001/REC-SVG-20010904/DTD/svg10.dtd">
<svg version="1.0" xmlns="http://www.w3.org/2000/svg"
 width="255.000000pt" height="239.000000pt" viewBox="0 0 255.000000 239.000000"
 preserveAspectRatio="xMidYMid meet">
<metadata>
Created by potrace 1.13, written by Peter Selinger 2001-2015
</metadata>
<g transform="translate(0.000000,239.000000) scale(0.100000,-0.100000)"
fill="#000000" stroke="none">
<path d="M1326 2323 c-4 -5 -157 -10 -339 -13 -329 -6 -333 -6 -410 -33 -43
-15 -102 -42 -130 -61 -179 -114 -306 -346 -347 -631 -14 -102 -12 -316 4
-425 29 -190 66 -266 185 -385 l71 -69 -69 -66 c-58 -54 -72 -74 -85 -119 -52
-177 26 -302 228 -368 63 -20 102 -26 176 -26 111 -1 174 17 246 68 51 36 62
36 99 -5 56 -61 193 -97 334 -86 85 6 116 17 226 81 30 17 31 17 80 -14 141
-90 388 -101 542 -26 121 60 173 142 173 275 0 90 -22 147 -84 219 l-52 60 81
83 c92 95 136 171 165 284 17 66 20 111 20 306 0 309 -18 467 -76 649 -17 54
-36 90 -65 122 -77 89 -259 154 -490 176 -130 12 -472 15 -483 4z m685 -77
c95 -26 218 -102 246 -152 60 -104 93 -274 93 -474 0 -83 5 -138 15 -165 17
-48 20 -230 5 -325 -37 -229 -220 -386 -531 -455 -102 -22 -444 -31 -647 -16
-481 36 -654 59 -749 101 -51 22 -132 80 -133 94 0 4 -13 24 -30 42 -85 97
-100 174 -100 516 0 216 3 272 15 295 8 15 31 71 51 123 88 232 213 359 397
407 108 27 198 31 757 29 492 -1 551 -3 611 -20z m-1496 -1600 c38 -16 55 -42
55 -85 0 -35 -36 -67 -86 -77 -24 -4 -34 -12 -34 -24 0 -39 127 -54 189 -22
49 24 92 82 98 132 l6 42 81 -4 81 -4 -3 -100 c-5 -167 -37 -240 -126 -287
-36 -19 -56 -22 -166 -22 -105 1 -134 5 -181 23 -161 64 -211 200 -126 343 50
85 133 118 212 85z m1621 -22 c97 -63 141 -201 95 -299 -42 -91 -157 -162
-278 -172 -133 -11 -288 30 -338 89 -24 29 -25 34 -25 184 l0 154 60 0 c50 0
60 -3 60 -17 0 -44 25 -101 59 -134 46 -47 101 -62 204 -57 64 3 81 7 93 23 8
10 13 24 11 30 -6 17 -44 17 -70 0 -22 -14 -29 -14 -60 -2 -72 31 -89 102 -37
160 62 71 154 88 226 41z m-1462 -46 c-6 -50 -18 -78 -33 -78 -3 0 -6 29 -6
65 0 61 1 65 23 65 22 0 22 -3 16 -52z m376 -11 c0 -124 84 -217 196 -217 80
0 126 38 150 126 9 35 25 72 36 84 24 25 60 26 83 0 15 -17 17 -33 13 -118 -8
-170 -68 -256 -196 -283 -115 -24 -261 12 -335 83 -37 35 -39 40 -33 75 17 94
26 161 26 201 0 53 14 82 40 82 16 0 20 -7 20 -33z m773 6 c-4 -16 -7 -45 -7
-65 -1 -43 -17 -49 -40 -16 -19 27 -21 79 -4 96 7 7 22 12 35 12 21 0 23 -3
16 -27z m-679 -5 c3 -13 7 -38 10 -57 8 -47 32 -71 70 -71 41 0 72 22 80 57
21 91 56 114 56 38 0 -115 -76 -172 -174 -131 -65 27 -103 109 -80 170 9 24
33 19 38 -6z m104 -23 c-3 -47 -22 -61 -33 -24 -9 29 2 69 20 69 12 0 15 -11
13 -45z"/>
<path d="M1465 2070 c-18 -5 18 -8 95 -7 99 0 114 1 70 7 -69 10 -126 10 -165
0z"/>
<path d="M1060 2060 c-374 -14 -523 -52 -623 -159 -93 -100 -130 -220 -131
-426 -1 -155 9 -205 57 -298 81 -155 296 -263 593 -297 61 -7 228 -10 439 -8
l340 3 77 37 c108 51 193 113 228 166 16 25 44 81 62 126 l33 81 0 225 c-1
206 -2 230 -22 282 -33 86 -87 161 -146 202 -51 35 -146 67 -197 65 -14 0 4
-8 40 -17 129 -34 206 -100 269 -231 l36 -76 0 -236 0 -235 -37 -76 c-67 -135
-195 -231 -373 -280 -71 -20 -103 -22 -295 -21 -281 0 -535 33 -745 95 -135
40 -235 107 -235 159 0 31 33 22 59 -16 29 -43 123 -107 193 -132 49 -16 93
-18 538 -18 l485 0 52 24 c58 26 131 97 161 157 59 117 93 295 95 498 2 124 0
146 -19 186 -27 58 -71 95 -137 115 -122 37 -745 43 -998 10 -189 -24 -304
-70 -376 -148 -60 -65 -81 -160 -48 -217 25 -44 18 -65 -46 -131 l-60 -64 5
105 c10 212 87 354 239 444 73 43 110 49 477 81 403 35 405 39 10 25z m738
-128 c60 -32 120 -88 144 -136 16 -31 19 -52 15 -96 -5 -56 -39 -140 -57 -140
-5 0 -37 18 -70 39 -34 22 -66 41 -73 44 -6 2 -14 37 -18 82 -6 74 -8 80 -42
111 -58 53 -80 56 -510 52 -356 -3 -397 -6 -447 -23 -80 -28 -157 -108 -197
-203 -27 -65 -31 -71 -44 -56 -8 10 -14 38 -13 65 2 123 139 212 390 254 161
26 282 33 589 31 282 -1 291 -2 333 -24z m-358 -109 c0 -31 -46 -103 -66 -103
-21 0 -47 46 -39 69 9 28 53 61 81 61 19 0 24 -5 24 -27z m-460 4 c0 -8 -9
-22 -19 -31 -18 -16 -20 -16 -35 6 -23 32 -20 38 19 38 23 0 35 -5 35 -13z
m170 5 c0 -4 -7 -18 -16 -31 l-16 -22 -24 22 c-33 31 -30 39 16 39 22 0 40 -3
40 -8z m110 -61 c0 -23 -41 -61 -65 -61 -14 0 -26 10 -33 26 -11 22 -8 30 20
65 l33 41 22 -29 c13 -15 23 -34 23 -42z m60 59 c0 -5 -11 -10 -25 -10 -14 0
-25 5 -25 10 0 6 11 10 25 10 14 0 25 -4 25 -10z m281 0 c18 -10 18 -13 4 -40
-21 -41 -33 -45 -61 -19 -28 27 -30 44 -6 58 22 13 39 13 63 1z m-816 -50
c-20 -22 -40 -26 -50 -10 -11 17 5 30 37 30 30 0 31 0 13 -20z m114 -12 c15
-26 14 -29 -14 -58 -35 -36 -57 -38 -79 -6 -15 23 -14 27 7 60 27 44 63 45 86
4z m167 11 c17 -19 17 -23 3 -47 -36 -65 -104 -17 -69 49 14 25 42 24 66 -2z
m622 -1 c7 -7 12 -28 12 -48 0 -43 -14 -60 -51 -60 -53 0 -60 40 -18 94 22 28
39 32 57 14z m-163 -49 c4 -11 5 -22 3 -23 -1 -1 -16 -12 -32 -24 -33 -25 -68
-28 -85 -8 -18 21 64 99 89 86 10 -6 22 -19 25 -31z m-811 9 c8 -13 5 -23 -14
-43 -28 -30 -41 -31 -64 -6 -14 15 -15 24 -7 39 19 35 65 41 85 10z m607 -20
c26 -32 24 -43 -14 -72 -42 -32 -52 -32 -73 -1 -17 25 -16 27 16 60 40 41 46
42 71 13z m-342 -27 c35 -27 22 -47 -35 -55 -64 -8 -76 5 -39 44 33 35 42 36
74 11z m159 7 c30 -30 -3 -70 -51 -61 -33 6 -34 19 -5 50 24 26 38 29 56 11z
m-350 -24 c28 -20 28 -35 -3 -64 -23 -22 -25 -22 -50 -6 -30 20 -30 20 -4 57
24 34 27 34 57 13z m-156 -30 c15 -33 0 -59 -33 -59 -18 0 -25 6 -27 26 -3 26
19 59 39 59 5 0 15 -12 21 -26z m574 -29 c13 -20 14 -28 4 -40 -11 -14 -15
-14 -31 1 -19 17 -25 45 -12 57 12 12 22 7 39 -18z m529 -22 c94 -49 137 -131
143 -274 5 -114 -6 -156 -54 -209 -42 -46 -110 -77 -201 -90 -94 -13 -758 -13
-822 1 -57 12 -114 47 -119 72 -3 14 5 17 45 17 80 0 120 -11 153 -41 43 -40
85 -39 108 1 28 48 55 54 147 28 95 -26 158 -27 219 -4 79 30 129 112 112 182
-11 43 -82 68 -170 59 -88 -8 -107 -8 -278 1 -183 9 -182 20 2 40 63 7 68 9
137 73 142 131 252 174 433 168 82 -3 114 -8 145 -24z m-645 -6 c35 -17 39
-76 10 -117 -31 -43 -58 -40 -62 7 -4 52 -39 72 -97 55 -31 -10 -41 -18 -41
-34 0 -17 4 -19 23 -13 58 18 77 18 77 -2 0 -11 -9 -28 -20 -38 -45 -41 -196
13 -188 68 8 55 227 110 298 74z m-380 -12 c11 -13 8 -15 -19 -15 -21 0 -31 5
-31 15 0 8 8 15 19 15 10 0 24 -7 31 -15z m-37 -69 c49 -18 70 -37 118 -108
58 -84 50 -118 -17 -83 -69 36 -233 8 -366 -63 -12 -6 -20 39 -13 74 5 29 10
34 33 34 16 0 34 10 47 27 16 19 34 28 66 32 30 4 44 11 44 21 0 17 -59 20
-109 7 -29 -8 -29 -8 -14 15 34 53 129 73 211 44z m1277 -43 c-1 -44 -2 -47
-15 -29 -20 26 -20 76 0 76 11 0 15 -12 15 -47z m-3 -75 c-3 -8 -6 -5 -6 6 -1
11 2 17 5 13 3 -3 4 -12 1 -19z m-802 -95 c33 -16 38 -16 83 0 106 38 192 11
192 -60 0 -47 -50 -96 -114 -112 -39 -10 -58 -8 -125 9 -44 11 -88 20 -100 20
-26 0 -36 17 -21 35 16 19 44 19 117 0 31 -8 83 -15 115 -15 50 0 60 3 74 25
27 42 16 60 -41 63 -28 2 -67 -2 -87 -9 -30 -10 -43 -9 -70 2 -56 24 -153 17
-244 -16 l-81 -29 -69 23 c-96 32 -180 38 -245 17 -54 -18 -76 -13 -45 9 46
34 201 45 292 21 36 -10 56 -10 70 -3 69 39 236 50 299 20z m-525 -153 c0 -33
-4 -60 -9 -60 -15 0 -63 42 -71 64 -11 28 15 56 52 56 28 0 28 -1 28 -60z
m120 35 c25 -14 24 -14 -17 -15 -34 0 -41 3 -37 15 7 19 22 19 54 0z m217 -37
c-7 -27 -16 -48 -22 -48 -11 0 -50 59 -43 65 5 5 73 34 74 32 1 -1 -3 -23 -9
-49z"/>
</g>
</svg>
