<?xml version="1.0" standalone="no"?>
<!DOCTYPE svg PUBLIC "-//W3C//DTD SVG 20010904//EN"
 "http://www.w3.org/TR/2001/REC-SVG-20010904/DTD/svg10.dtd">
<svg version="1.0" xmlns="http://www.w3.org/2000/svg"
 width="255.000000pt" height="239.000000pt" viewBox="0 0 255.000000 239.000000"
 preserveAspectRatio="xMidYMid meet">
<metadata>
Created by potrace 1.13, written by Peter Selinger 2001-2015
</metadata>
<g transform="translate(0.000000,239.000000) scale(0.100000,-0.100000)"
fill="#000000" stroke="none">
<path d="M846 2284 c-290 -57 -482 -216 -586 -485 -51 -133 -71 -253 -77 -464
-6 -206 4 -295 47 -408 23 -62 73 -127 96 -127 28 0 12 -32 -45 -89 -105 -105
-143 -231 -106 -356 12 -43 28 -71 59 -101 58 -58 117 -75 292 -81 158 -6 229
7 282 52 39 32 54 31 121 -6 117 -66 168 -79 317 -79 145 0 169 7 276 78 l38
25 38 -41 c21 -23 65 -54 98 -69 54 -26 70 -28 204 -31 204 -5 254 14 325 121
96 145 100 329 7 397 l-30 22 48 64 c70 91 119 184 160 299 l35 100 0 315 c0
269 -3 324 -18 380 -57 213 -201 365 -417 441 -155 55 -203 59 -669 58 -316
-1 -444 -4 -495 -15z m1074 -54 c227 -36 400 -239 450 -530 18 -103 24 -422
11 -532 -34 -289 -212 -515 -440 -558 -94 -18 -306 -11 -631 20 -457 43 -694
79 -802 120 -68 26 -198 157 -235 236 l-28 59 0 270 c0 301 5 336 71 474 112
237 323 408 546 440 89 12 978 13 1058 1z m-1466 -1524 c51 -21 86 -74 86
-129 0 -26 -4 -47 -8 -47 -5 0 -19 -9 -32 -20 -13 -11 -34 -20 -47 -20 -12 0
-32 9 -43 20 -28 28 -40 25 -40 -9 0 -20 12 -41 39 -69 48 -49 101 -67 161
-53 82 18 110 55 131 169 15 80 22 86 93 78 32 -3 65 -11 72 -17 28 -23 11
-176 -27 -250 -28 -56 -91 -106 -156 -125 -76 -22 -214 -15 -297 16 -71 27
-140 88 -157 137 -32 96 46 280 136 319 39 17 49 17 89 0z m206 -97 c0 -102
-50 -179 -116 -179 l-38 0 26 28 c49 52 61 80 59 137 l-1 55 35 0 c34 0 35 -1
35 -41z m477 -35 c40 -16 43 -19 43 -55 0 -102 73 -158 165 -126 37 13 39 16
54 83 l16 69 73 3 72 3 0 -59 c0 -122 -48 -210 -144 -260 -48 -26 -58 -27
-187 -27 -136 0 -136 0 -205 35 -55 28 -73 43 -88 73 -17 37 -18 42 -2 127 9
48 16 102 16 119 l0 31 72 0 c43 0 90 -7 115 -16z m1030 -4 c21 -11 43 -20 50
-20 19 0 17 -155 -3 -213 -22 -65 -91 -139 -156 -167 -46 -20 -64 -22 -150
-18 -84 4 -106 9 -162 37 -85 42 -109 75 -114 160 -3 35 1 95 8 133 l12 68 82
0 83 0 7 -61 c7 -74 36 -142 68 -163 38 -25 110 -37 152 -25 53 15 106 64 106
100 0 34 -14 36 -55 9 -71 -47 -117 -13 -114 84 2 44 6 56 18 56 9 0 34 9 56
19 52 25 67 25 112 1z m-807 -54 c0 -63 -15 -86 -55 -86 -49 0 -85 36 -85 85
l0 35 70 0 70 0 0 -34z m573 -43 c3 -43 9 -89 13 -101 6 -22 5 -23 -15 -10
-45 27 -67 83 -63 161 2 23 6 27 31 27 28 0 28 0 34 -77z"/>
<path d="M1230 2024 c-174 -13 -400 -58 -478 -95 -83 -41 -160 -175 -227 -394
-36 -119 -36 -121 -33 -275 3 -145 5 -158 30 -205 32 -62 108 -135 176 -169
69 -35 202 -72 288 -80 39 -4 100 -16 135 -26 57 -18 95 -20 366 -20 283 0
306 1 359 21 167 63 287 301 316 631 19 217 -16 360 -112 456 -105 104 -270
146 -610 155 -85 3 -180 3 -210 1z m91 -125 c3 -35 1 -102 -3 -149 -18 -191
-121 -306 -307 -346 -118 -25 -400 -13 -438 18 -19 15 -16 76 8 145 l20 61
162 4 c144 3 168 6 215 27 94 42 150 127 167 253 l6 47 72 3 c40 2 77 3 82 3
6 -1 13 -30 16 -66z m206 49 c11 -9 13 -25 8 -67 -5 -42 -1 -72 14 -121 25
-80 61 -118 153 -160 59 -26 79 -30 154 -30 48 0 85 2 82 5 -2 3 -51 16 -107
30 -206 51 -251 100 -251 278 0 74 1 77 24 77 23 0 24 -3 28 -88 5 -102 29
-156 88 -197 55 -38 92 -45 247 -45 l143 0 0 -24 c0 -23 -5 -25 -47 -28 l-48
-3 45 -16 c49 -17 57 -33 59 -106 l1 -43 -189 0 c-204 0 -285 11 -428 56 -53
17 -94 37 -119 59 l-38 34 12 103 c7 57 12 145 12 196 0 87 1 93 23 102 28 12
114 5 134 -12z m368 -27 c33 -15 75 -41 94 -57 37 -31 111 -138 111 -161 0
-10 -28 -13 -134 -13 -74 0 -146 4 -160 10 -47 17 -115 89 -127 133 -12 47 -6
106 13 119 24 16 140 -2 203 -31z m-795 -24 c0 -47 -5 -60 -46 -116 -68 -94
-111 -111 -281 -111 -112 0 -133 2 -133 15 0 21 30 32 139 50 161 27 209 60
233 164 11 50 12 51 50 51 l38 0 0 -53z m-140 14 c0 -10 -25 -42 -56 -70 l-56
-51 -74 0 c-41 0 -74 4 -74 8 0 4 22 29 48 55 51 51 108 75 175 76 30 1 37 -3
37 -18z m374 -435 c44 -33 82 -51 156 -75 50 -16 220 -51 247 -51 14 0 -15
-23 -65 -50 l-57 -31 -20 24 c-36 44 -133 69 -292 74 -79 3 -143 9 -143 12 0
15 122 121 139 121 2 0 18 -11 35 -24z m-282 -158 c-32 -32 -33 -33 -48 -13
-13 18 -13 21 3 32 9 7 31 13 47 13 l31 0 -33 -32z m-146 0 c27 -15 34 -28 54
-97 20 -72 25 -81 46 -81 21 0 24 5 24 38 0 44 28 76 99 112 42 21 55 22 180
17 141 -5 190 -16 229 -50 18 -17 22 -31 22 -84 l0 -63 35 0 c32 0 35 3 35 28
0 65 85 141 181 161 73 16 203 14 246 -4 l36 -15 -6 -71 c-12 -142 -125 -310
-254 -374 l-58 -30 -220 -3 c-165 -3 -255 0 -360 13 -274 34 -453 82 -507 135
-15 15 -33 30 -41 33 -19 7 -86 150 -104 224 -19 75 -12 108 24 122 45 17 301
9 339 -11z"/>
<path d="M676 1239 c-49 -58 -27 -117 38 -105 32 6 76 45 76 67 0 17 -53 69
-70 69 -10 0 -30 -14 -44 -31z m74 -33 c0 -31 -38 -60 -57 -44 -30 24 -5 67
40 68 11 0 17 -8 17 -24z"/>
<path d="M1271 1222 c-40 -20 -56 -57 -46 -109 16 -86 107 -113 171 -49 27 27
34 42 34 74 0 54 -7 70 -41 87 -37 20 -76 19 -118 -3z m119 -62 c0 -74 -18
-100 -71 -100 -34 0 -42 5 -59 33 -28 45 -25 71 11 101 24 21 40 26 75 24 l44
-3 0 -55z"/>
<path d="M1821 1197 c-13 -7 -29 -19 -34 -28 -13 -21 -1 -68 19 -76 21 -8 64
17 77 45 9 19 7 27 -14 47 -21 21 -27 23 -48 12z m29 -52 c0 -8 -9 -15 -20
-15 -11 0 -20 7 -20 15 0 8 9 15 20 15 11 0 20 -7 20 -15z"/>
</g>
</svg>
