<?xml version="1.0" standalone="no"?>
<!DOCTYPE svg PUBLIC "-//W3C//DTD SVG 20010904//EN"
 "http://www.w3.org/TR/2001/REC-SVG-20010904/DTD/svg10.dtd">
<svg version="1.0" xmlns="http://www.w3.org/2000/svg"
 width="255.000000pt" height="239.000000pt" viewBox="0 0 255.000000 239.000000"
 preserveAspectRatio="xMidYMid meet">
<metadata>
Created by potrace 1.13, written by Peter Selinger 2001-2015
</metadata>
<g transform="translate(0.000000,239.000000) scale(0.100000,-0.100000)"
fill="#000000" stroke="none">
<path d="M960 2350 c-304 -41 -532 -204 -666 -476 -89 -182 -115 -361 -95
-665 24 -367 65 -509 176 -606 30 -26 55 -52 55 -56 0 -5 -18 -29 -39 -53 -89
-101 -75 -267 28 -338 108 -75 363 -76 494 -3 34 19 41 20 70 8 106 -44 148
-54 246 -59 127 -6 192 7 287 58 l72 38 43 -29 c67 -45 140 -62 254 -62 79 0
112 4 155 21 110 43 170 118 170 212 0 66 -21 115 -71 166 -47 48 -47 48 26
144 85 112 103 163 156 458 l40 227 -3 230 c-4 220 -5 233 -31 309 -62 178
-181 312 -352 397 -155 76 -193 82 -595 85 -195 1 -384 -1 -420 -6z m645 -55
c280 -29 314 -38 438 -121 66 -44 79 -59 130 -145 31 -52 69 -124 84 -160 l28
-64 -1 -305 c0 -303 -7 -382 -40 -518 -55 -220 -182 -387 -357 -471 -152 -72
-179 -76 -557 -76 -279 0 -353 3 -445 18 -352 59 -515 183 -587 444 -20 71
-22 108 -25 408 -5 377 1 425 65 560 49 101 113 179 199 243 180 135 426 208
708 211 61 0 222 -10 360 -24z m479 -1830 c40 -37 69 -109 61 -151 -8 -43 -55
-98 -109 -127 -35 -19 -57 -22 -151 -22 -97 0 -116 3 -160 25 -58 29 -83 67
-92 139 l-6 51 34 0 c29 0 36 -5 46 -30 16 -43 79 -69 165 -70 57 0 71 4 97
26 25 21 31 33 31 65 0 31 -4 39 -18 39 -13 0 -22 -12 -30 -39 -14 -45 -38
-55 -79 -35 -35 18 -66 55 -56 65 15 15 197 88 219 89 12 0 33 -11 48 -25z
m-1517 -6 c79 -30 113 -55 113 -85 0 -21 -5 -24 -33 -24 -21 0 -41 8 -52 20
-28 31 -45 25 -45 -15 0 -66 67 -105 162 -92 46 6 83 37 100 83 12 35 36 44
102 36 34 -4 36 -6 36 -42 0 -32 -9 -46 -62 -103 -60 -63 -66 -66 -122 -73
-154 -18 -288 16 -333 85 -45 67 -22 196 40 221 31 12 30 12 94 -11z m186
-104 c-9 -19 -20 -35 -24 -35 -9 0 24 69 33 70 4 0 0 -16 -9 -35z m1017 14 c0
-18 -2 -19 -15 -9 -8 7 -15 16 -15 21 0 5 7 9 15 9 9 0 15 -9 15 -21z m-607
-2 c23 0 29 -6 37 -37 14 -53 41 -73 105 -78 64 -5 82 6 110 68 l18 40 59 0
58 0 0 -34 c0 -53 -37 -97 -114 -136 -64 -32 -76 -35 -160 -34 -108 0 -193 23
-237 62 -30 27 -31 29 -19 72 6 25 18 56 27 69 13 20 20 22 51 16 21 -4 49 -8
65 -8z m207 -24 c0 -24 -30 -53 -55 -53 -27 0 -75 36 -75 56 0 11 15 14 65 14
54 0 65 -3 65 -17z"/>
<path d="M1014 2060 c-155 -24 -274 -95 -359 -214 -113 -160 -171 -347 -182
-586 -9 -199 22 -311 113 -409 86 -93 214 -152 410 -187 149 -27 465 -25 595
3 334 73 480 275 496 684 15 384 -94 615 -326 691 -61 20 -89 22 -381 24 -173
1 -338 -1 -366 -6z m162 -125 c-11 -135 -36 -179 -79 -137 -15 15 -20 39 -24
105 -7 113 -5 117 58 117 l52 0 -7 -85z m264 -12 c0 -112 17 -159 64 -182 23
-11 37 -11 67 -2 55 17 71 47 80 152 9 110 18 123 78 115 122 -17 236 -148
286 -331 9 -33 19 -119 22 -191 5 -123 4 -133 -15 -152 -30 -30 -104 -36 -402
-29 -1130 28 -1043 24 -1062 47 -13 17 -16 32 -11 68 10 84 60 267 86 317 31
62 96 136 152 175 51 35 166 80 206 80 27 0 29 -3 29 -40 0 -53 19 -139 38
-172 21 -36 60 -52 96 -38 41 15 68 85 74 192 l5 88 103 0 104 0 0 -97z m170
25 c0 -124 -25 -174 -83 -166 -31 4 -46 55 -46 156 l-1 82 65 0 65 0 0 -72z
m-664 -728 c7 -36 12 -163 13 -282 1 -248 9 -231 -91 -197 -249 84 -338 200
-338 442 0 52 5 88 12 95 9 9 63 12 203 10 l190 -3 11 -65z m174 -165 c0 -180
3 -232 15 -254 8 -16 14 -46 13 -66 l-1 -37 -55 5 c-30 3 -58 11 -63 18 -24
39 -53 532 -32 552 3 4 33 7 65 7 l58 0 0 -225z m330 -65 l0 -290 -129 0 -129
0 -6 73 c-13 157 -27 488 -21 497 4 6 64 10 146 10 l139 0 0 -290z m168 274
l22 -6 0 -259 c0 -255 0 -258 -22 -273 -12 -9 -39 -16 -60 -16 l-38 0 0 280 0
280 38 0 c20 0 47 -3 60 -6z m412 -23 c0 -34 -86 -266 -124 -331 -56 -100
-128 -160 -190 -160 l-26 0 0 260 0 260 170 0 170 0 0 -29z"/>
</g>
</svg>
