<?xml version="1.0" standalone="no"?>
<!DOCTYPE svg PUBLIC "-//W3C//DTD SVG 20010904//EN"
 "http://www.w3.org/TR/2001/REC-SVG-20010904/DTD/svg10.dtd">
<svg version="1.0" xmlns="http://www.w3.org/2000/svg"
 width="255.000000pt" height="239.000000pt" viewBox="0 0 255.000000 239.000000"
 preserveAspectRatio="xMidYMid meet">
<metadata>
Created by potrace 1.13, written by Peter Selinger 2001-2015
</metadata>
<g transform="translate(0.000000,239.000000) scale(0.100000,-0.100000)"
fill="#000000" stroke="none">
<path d="M885 2274 c-293 -34 -475 -123 -616 -302 -70 -87 -108 -158 -141
-262 -22 -71 -23 -89 -23 -360 0 -273 1 -288 23 -350 26 -72 67 -143 118 -206
19 -23 34 -44 34 -48 0 -4 -28 -35 -63 -69 -71 -70 -93 -118 -103 -228 -20
-212 106 -324 389 -345 109 -8 174 6 298 63 l81 37 46 -19 c26 -10 88 -29 137
-42 112 -30 340 -42 455 -24 87 14 198 50 236 78 l27 20 56 -22 c84 -35 171
-48 264 -42 194 12 331 117 344 264 10 111 -26 180 -124 235 -29 16 -53 35
-53 41 0 7 18 48 40 92 73 146 75 161 75 595 0 371 -1 388 -22 456 -46 145
-154 262 -315 341 -99 48 -190 79 -278 93 -59 9 -810 12 -885 4z m895 -75
c197 -38 198 -38 297 -100 115 -72 120 -76 168 -171 81 -158 88 -193 92 -515
4 -231 2 -294 -11 -345 -8 -35 -20 -98 -25 -141 -6 -43 -20 -96 -32 -119 -51
-100 -203 -205 -336 -233 -82 -18 -611 -21 -798 -5 -263 23 -458 71 -633 156
-92 44 -125 67 -180 122 -41 40 -79 91 -97 127 l-30 60 -3 291 c-2 231 0 305
12 364 53 251 255 444 537 509 121 28 110 28 509 30 l365 2 165 -32z m-1322
-1541 c145 -56 212 -102 212 -144 0 -38 -49 -84 -96 -91 -58 -7 -84 9 -84 52
0 32 -2 35 -30 35 -34 0 -50 -23 -50 -71 0 -26 10 -42 48 -79 92 -89 224 -95
294 -12 15 18 32 59 43 104 22 89 28 98 71 98 l34 0 0 -58 c0 -52 -7 -71 -56
-165 -30 -59 -66 -115 -80 -126 -39 -31 -126 -44 -234 -37 -243 16 -349 93
-350 252 0 109 61 242 123 269 37 16 55 13 155 -27z m1842 -63 c72 -37 106
-175 62 -247 -53 -86 -146 -137 -260 -145 -102 -7 -179 10 -231 50 -38 28 -42
35 -36 62 3 17 9 60 12 98 6 65 7 67 34 67 24 0 28 -4 31 -32 5 -52 45 -73
137 -73 69 0 83 3 127 30 31 19 50 39 52 53 5 30 -23 29 -86 -4 -57 -29 -87
-26 -104 12 -13 28 4 52 66 91 81 52 146 64 196 38z m-1530 -75 c0 -62 -27
-119 -72 -154 -43 -32 -74 -39 -123 -28 l-40 9 30 7 c59 14 113 37 128 54 9
10 23 42 31 72 8 30 17 63 21 73 13 32 25 17 25 -33z m378 4 c18 -5 22 -13 22
-48 0 -123 66 -186 195 -186 106 0 206 60 256 154 l24 46 64 0 63 0 -6 -67
c-15 -150 -82 -221 -237 -249 -149 -27 -438 4 -548 58 -40 20 -46 28 -49 57
-2 19 9 81 24 138 l27 103 71 0 c39 0 81 -3 94 -6z m812 -55 c0 -17 -4 -28
-10 -24 -5 3 -10 17 -10 31 0 13 5 24 10 24 6 0 10 -14 10 -31z m-708 -17 c13
-48 51 -72 117 -72 70 0 98 14 134 68 20 30 35 42 53 42 36 0 30 -28 -18 -84
-50 -59 -88 -76 -165 -76 -44 0 -70 7 -108 28 -44 24 -50 31 -47 57 1 17 3 40
3 53 1 32 21 22 31 -16z m188 24 c0 -7 -15 -21 -34 -30 -42 -20 -96 -6 -96 25
0 17 8 19 65 19 49 0 65 -3 65 -14z"/>
<path d="M940 2066 c-161 -34 -270 -95 -378 -211 -113 -120 -171 -264 -192
-472 -38 -374 141 -576 569 -638 89 -13 175 -16 453 -13 321 4 348 6 418 27
200 60 322 173 365 336 19 75 20 201 1 237 -12 23 -12 34 0 74 17 58 18 153 2
208 -8 27 -36 65 -79 111 l-67 70 -4 72 c-3 63 -7 76 -33 103 -43 45 -89 54
-260 49 -308 -8 -342 -6 -435 25 -102 35 -254 44 -360 22z m279 -42 c39 -5 61
-11 61 -20 0 -18 -51 -27 -84 -14 -20 7 -40 7 -69 -1 -36 -9 -43 -9 -54 7 -7
10 -13 21 -13 26 0 10 74 10 159 2z m-211 -33 c24 -33 86 -51 177 -51 66 0 72
-16 24 -61 -34 -31 -83 -48 -144 -50 -22 0 -60 -4 -84 -7 l-44 -7 -18 -65
c-39 -138 28 -208 231 -240 211 -33 372 10 464 123 25 31 30 47 31 90 l0 52
-120 5 c-153 7 -185 24 -185 99 l0 31 109 0 c122 0 148 7 199 52 35 30 38 30
113 25 106 -7 194 -46 215 -95 18 -44 18 -113 0 -157 -24 -56 -84 -127 -129
-153 -56 -31 -87 -61 -87 -84 0 -14 8 -18 39 -18 35 0 47 8 124 83 50 48 88
94 92 110 12 47 50 33 91 -33 40 -65 53 -138 34 -195 -26 -78 -135 -163 -263
-205 -21 -6 -36 -17 -34 -23 12 -37 150 -4 225 54 l52 39 21 -33 c41 -66 3
-155 -101 -231 -72 -53 -160 -89 -274 -113 -71 -14 -86 -21 -86 -36 0 -17 5
-19 48 -12 43 6 251 63 295 81 35 13 -4 -34 -66 -81 -67 -51 -143 -82 -247
-101 -93 -16 -550 -20 -550 -4 0 6 9 29 21 51 15 30 20 60 21 114 0 123 -56
202 -190 266 -71 34 -173 59 -248 59 -60 0 -223 -27 -279 -46 -36 -12 -41 -12
-53 4 -8 10 -11 29 -7 47 3 17 10 77 15 135 13 155 54 278 127 372 31 40 70
88 87 106 68 73 194 130 287 131 39 1 48 -3 67 -28z m582 -10 c0 -5 -12 -17
-27 -27 -33 -22 -154 -25 -193 -4 l-23 13 24 13 c27 15 219 20 219 5z m-336
-175 c-16 -14 -37 -28 -46 -31 -10 -4 -18 -9 -18 -13 0 -4 -10 -23 -22 -42
-13 -19 -27 -55 -33 -80 l-11 -45 -52 1 c-78 3 -104 29 -100 104 3 63 10 67
104 69 35 1 75 12 125 35 41 18 76 32 78 30 2 -1 -10 -14 -25 -28z m89 -60 c7
-19 61 -33 155 -42 43 -4 72 -11 72 -18 -1 -13 -24 -46 -34 -46 -3 0 -25 -14
-48 -30 -100 -73 -276 -81 -286 -13 -4 25 26 88 63 132 28 33 69 42 78 17z
m-448 -537 c107 -26 214 -92 250 -154 30 -49 35 -148 10 -195 -28 -55 -60 -70
-144 -70 -101 0 -211 29 -336 89 -165 79 -245 160 -245 248 0 28 5 32 58 52
62 22 127 38 182 45 48 5 177 -3 225 -15z"/>
<path d="M745 1100 c-57 -22 -65 -89 -15 -133 30 -26 38 -29 87 -25 41 4 60
11 80 31 25 25 26 27 10 51 -17 25 -85 69 -122 79 -11 3 -29 2 -40 -3z m82
-52 c29 -13 53 -28 53 -35 0 -18 -55 -53 -83 -53 -24 0 -77 40 -77 59 0 15 32
51 45 51 5 0 34 -10 62 -22z"/>
</g>
</svg>
