<?xml version="1.0" standalone="no"?>
<!DOCTYPE svg PUBLIC "-//W3C//DTD SVG 20010904//EN"
 "http://www.w3.org/TR/2001/REC-SVG-20010904/DTD/svg10.dtd">
<svg version="1.0" xmlns="http://www.w3.org/2000/svg"
 width="255.000000pt" height="239.000000pt" viewBox="0 0 255.000000 239.000000"
 preserveAspectRatio="xMidYMid meet">
<metadata>
Created by potrace 1.13, written by Peter Selinger 2001-2015
</metadata>
<g transform="translate(0.000000,239.000000) scale(0.100000,-0.100000)"
fill="#000000" stroke="none">
<path d="M930 2314 c-178 -20 -339 -60 -449 -112 -152 -71 -260 -273 -347
-647 -26 -109 -28 -141 -32 -352 -5 -317 12 -376 152 -530 l59 -64 -41 -42
c-127 -130 -83 -310 92 -376 153 -57 362 -45 493 29 l38 22 83 -50 c63 -38 99
-53 152 -62 118 -20 236 8 326 77 l32 24 56 -46 c70 -57 119 -75 226 -82 142
-9 281 31 372 107 55 46 98 140 99 218 1 54 -4 75 -36 138 l-37 75 90 87 c111
108 143 169 178 338 22 110 24 141 24 414 0 390 -12 434 -150 571 -63 63 -96
86 -181 128 -57 28 -144 62 -194 76 -180 51 -245 58 -620 60 -192 2 -366 1
-385 -1z m840 -88 c241 -48 251 -51 342 -97 43 -21 85 -39 93 -39 8 0 15 -6
15 -13 0 -7 23 -44 51 -82 120 -165 139 -234 139 -530 0 -244 -11 -348 -48
-459 -82 -249 -274 -385 -612 -436 -110 -16 -866 -25 -1031 -12 -334 27 -489
147 -545 422 -23 115 -15 401 15 543 49 225 155 472 240 557 92 92 260 155
483 179 46 5 216 8 378 7 l295 -3 185 -37z m361 -1656 c31 -17 49 -64 49 -131
0 -80 -26 -134 -91 -193 -73 -66 -141 -89 -264 -90 -118 -1 -187 19 -240 69
-40 37 -44 67 -20 149 8 28 17 68 20 89 l6 37 89 0 90 0 0 -37 c1 -54 33 -119
69 -137 46 -24 123 -20 182 9 70 36 64 58 -15 65 -41 4 -62 11 -72 25 -19 26
-18 36 9 76 42 62 135 97 188 69z m-1648 -35 c42 -14 95 -28 117 -31 52 -8 53
-32 2 -68 -46 -31 -71 -33 -105 -6 -35 28 -47 25 -47 -10 0 -86 186 -91 246
-6 61 87 59 85 140 84 l74 -2 0 -38 c0 -44 -36 -121 -80 -172 -48 -54 -105
-71 -235 -70 -204 2 -335 74 -335 184 0 64 74 160 123 160 12 0 57 -11 100
-25z m1395 -57 c-1 -29 2 -68 7 -87 8 -32 7 -33 -16 -26 -35 11 -49 27 -56 68
-7 47 3 84 25 90 40 11 42 8 40 -45z m-708 -29 c0 -50 12 -87 34 -101 6 -4 28
-8 50 -8 31 0 44 6 72 38 118 129 109 122 153 122 30 0 41 -4 41 -15 0 -30
-109 -233 -139 -258 -74 -62 -265 -60 -368 4 -67 42 -80 128 -32 206 27 43 68
62 137 63 l52 0 0 -51z m180 30 c0 -14 -38 -70 -58 -86 -21 -17 -67 -16 -81 1
-7 8 -11 33 -10 55 l3 41 73 0 c46 0 73 -4 73 -11z"/>
<path d="M1215 2069 c-229 -14 -408 -56 -505 -119 -114 -73 -196 -197 -241
-365 -30 -112 -33 -354 -5 -435 54 -157 165 -257 355 -319 129 -42 258 -53
579 -49 290 4 299 5 377 31 184 62 309 174 361 327 16 46 19 85 19 235 0 158
-3 189 -22 250 -12 39 -27 95 -33 127 -33 171 -230 290 -528 318 -117 11 -177
11 -357 -1z m507 -43 c180 -39 314 -158 374 -336 32 -96 46 -244 34 -367 -27
-282 -140 -427 -388 -495 -69 -20 -103 -22 -342 -22 -209 -1 -289 3 -380 17
-290 46 -463 151 -531 324 -19 48 -23 77 -22 168 0 94 5 131 36 250 42 160
100 288 152 333 37 33 192 89 340 122 106 24 620 28 727 6z"/>
<path d="M1040 1959 c-86 -13 -205 -54 -260 -89 -53 -34 -129 -111 -157 -160
-48 -80 -65 -166 -70 -345 -5 -142 -3 -181 11 -229 32 -108 151 -195 343 -252
72 -20 117 -26 248 -31 173 -6 363 7 460 32 157 41 300 144 363 263 57 106 76
199 77 362 0 127 -3 153 -24 214 -27 78 -82 146 -144 177 -21 11 -73 30 -115
41 -68 19 -110 21 -372 24 -162 1 -324 -2 -360 -7z m708 -64 c138 -31 165 -50
70 -50 -68 0 -90 -17 -108 -81 -15 -54 -39 -72 -111 -84 -79 -13 -88 -18 -95
-58 -10 -62 -24 -106 -38 -124 -25 -34 -81 -48 -185 -48 -92 0 -102 2 -130 26
-18 15 -31 35 -31 49 0 47 -19 75 -64 94 -48 21 -76 53 -76 88 0 38 -44 58
-128 59 -220 3 -19 118 270 153 40 5 168 8 283 7 190 -2 223 -5 343 -31z m198
-102 c43 -43 58 -103 62 -242 4 -124 2 -145 -29 -273 -18 -76 -36 -138 -40
-138 -4 0 -31 16 -60 36 -81 55 -208 114 -268 123 -29 4 -56 12 -61 17 -5 5
-17 36 -28 68 l-20 59 21 29 c15 21 20 41 19 80 -1 29 2 59 7 66 4 7 42 18 84
26 85 14 102 24 112 64 4 15 13 41 22 59 14 31 16 32 63 26 27 -3 55 -1 66 5
26 15 30 15 50 -5z m-1037 -72 c7 -5 17 -30 22 -57 5 -26 13 -52 18 -57 5 -5
33 -15 63 -21 65 -15 78 -35 78 -125 0 -60 -2 -65 -37 -100 -33 -33 -49 -40
-123 -54 -97 -20 -109 -30 -136 -116 -19 -62 -49 -97 -90 -107 -35 -9 -54 3
-82 53 -35 64 -40 174 -13 303 28 130 55 216 81 258 l20 32 92 0 c51 0 99 -4
107 -9z m555 -327 c9 -8 16 -28 16 -44 0 -41 20 -80 44 -85 12 -3 52 -6 90 -7
l69 -3 11 -40 c11 -39 13 -40 71 -51 96 -17 138 -51 115 -93 -23 -44 -192
-129 -307 -155 -112 -25 -532 -23 -635 3 -73 19 -210 80 -222 100 -3 5 17 24
45 42 56 35 79 75 79 132 0 50 24 65 111 73 106 10 149 36 149 93 0 45 21 51
190 51 131 0 161 -3 174 -16z"/>
</g>
</svg>
