<?xml version="1.0" standalone="no"?>
<!DOCTYPE svg PUBLIC "-//W3C//DTD SVG 20010904//EN"
 "http://www.w3.org/TR/2001/REC-SVG-20010904/DTD/svg10.dtd">
<svg version="1.0" xmlns="http://www.w3.org/2000/svg"
 width="255.000000pt" height="239.000000pt" viewBox="0 0 255.000000 239.000000"
 preserveAspectRatio="xMidYMid meet">
<metadata>
Created by potrace 1.13, written by Peter Selinger 2001-2015
</metadata>
<g transform="translate(0.000000,239.000000) scale(0.100000,-0.100000)"
fill="#000000" stroke="none">
<path d="M1265 2244 c-244 -13 -499 -51 -665 -100 -150 -44 -280 -152 -354
-294 -41 -78 -99 -244 -121 -348 -23 -111 -21 -377 4 -475 27 -102 47 -140
144 -258 45 -55 86 -107 92 -114 7 -10 -8 -30 -58 -75 -56 -52 -69 -70 -83
-117 -39 -135 30 -272 178 -350 52 -28 55 -28 233 -28 161 0 187 2 245 23 36
12 89 40 118 62 l54 41 40 -37 c62 -56 133 -84 230 -91 106 -7 172 11 264 72
l66 45 86 -43 86 -42 115 1 c206 0 355 67 446 198 l35 51 0 122 0 122 -31 36
c-18 20 -51 47 -75 61 -24 14 -42 29 -41 32 2 4 42 70 88 147 131 219 128 212
129 460 0 275 -25 480 -70 571 -73 148 -262 264 -508 310 -76 15 -487 26 -647
18z m700 -79 c187 -39 320 -134 388 -276 61 -128 87 -293 87 -545 0 -154 -11
-210 -61 -311 -127 -256 -391 -424 -752 -477 -144 -22 -631 -22 -772 -1 -232
35 -382 102 -506 224 -129 129 -158 209 -166 458 -6 168 -5 174 27 305 47 196
100 299 204 403 63 63 100 90 166 123 141 69 215 82 525 93 149 5 317 14 375
19 150 12 390 5 485 -15z m335 -1533 c52 -25 72 -72 67 -154 -7 -113 -68 -190
-199 -253 -124 -60 -318 -70 -390 -21 -48 32 -58 59 -58 168 0 94 1 97 31 127
23 23 40 31 67 31 l37 0 18 -78 c9 -43 24 -88 33 -100 36 -51 153 -77 215 -48
38 18 99 100 99 134 0 28 -32 30 -67 2 -38 -29 -76 -26 -106 10 -51 60 -47
106 13 146 82 55 175 69 240 36z m-1770 -77 c27 -14 54 -34 60 -44 35 -67 -37
-155 -96 -116 -13 8 -35 15 -49 15 -20 0 -25 -5 -25 -23 0 -42 73 -87 141 -87
24 0 62 9 86 21 37 18 49 32 78 88 45 90 51 94 127 87 108 -12 157 -26 178
-54 51 -64 -32 -205 -162 -274 -40 -21 -54 -23 -198 -22 -187 0 -244 17 -320
93 -73 73 -86 159 -39 252 45 90 123 112 219 64z m1430 -39 c0 -66 16 -98 67
-133 l47 -33 -34 0 c-41 0 -92 29 -116 65 -20 31 -23 107 -4 129 24 30 40 19
40 -28z m-1260 -36 c0 -36 -23 -85 -44 -93 -12 -5 -12 -2 0 21 8 15 14 44 14
65 0 26 4 37 15 37 10 0 15 -10 15 -30z m938 -69 c-7 -112 -40 -180 -109 -223
-128 -80 -348 -49 -398 56 -24 48 -26 73 -9 127 8 29 8 45 0 64 l-12 25 85 0
85 0 0 -37 c0 -77 53 -126 109 -103 32 13 48 41 57 101 4 22 14 43 22 47 15 5
132 28 161 31 11 1 13 -16 9 -88z m-248 15 c0 -41 -19 -74 -33 -59 -9 8 -9 66
-1 87 3 9 12 16 20 16 10 0 14 -13 14 -44z"/>
<path d="M1096 1949 c-157 -23 -328 -92 -423 -171 -133 -111 -193 -242 -193
-423 0 -175 45 -292 154 -401 83 -83 148 -122 272 -163 127 -43 241 -54 430
-41 398 27 678 134 699 267 3 21 14 79 23 128 13 69 17 145 17 320 l0 230 -28
57 c-48 97 -126 153 -264 189 -67 17 -109 19 -352 18 -152 -1 -303 -5 -335
-10z m208 -54 c55 -56 -3 -195 -82 -195 -30 0 -91 32 -118 62 -34 37 -77 108
-71 115 31 30 244 44 271 18z m356 6 c22 -6 25 -12 25 -51 l0 -45 -110 -57
c-101 -53 -115 -57 -177 -58 -38 0 -68 4 -68 9 0 5 7 26 16 47 12 28 15 57 11
101 l-5 63 142 -1 c77 -1 152 -4 166 -8z m221 -67 c108 -56 129 -79 129 -145
0 -27 7 -67 16 -90 13 -32 14 -43 5 -49 -7 -4 -70 -10 -140 -14 -327 -18 -433
-85 -491 -310 -20 -79 -40 -254 -40 -353 l0 -63 -57 0 c-84 0 -93 12 -93 126
0 106 -13 213 -41 333 -30 131 -94 204 -220 253 -43 16 -87 22 -211 27 l-158
6 24 51 c13 28 38 67 56 88 60 68 231 176 279 176 15 0 23 -12 35 -53 34 -118
176 -187 386 -187 222 0 384 84 405 210 4 22 11 40 17 40 5 0 50 -21 99 -46z
m142 -382 c18 -15 19 -26 14 -117 -11 -204 -51 -303 -148 -367 -85 -56 -236
-128 -269 -128 l-30 0 0 158 c0 156 13 233 51 304 18 34 89 106 128 130 75 47
212 58 254 20z m-1220 -16 c66 -32 144 -120 164 -184 20 -70 63 -326 63 -383
0 -48 -1 -49 -31 -49 -18 0 -84 27 -162 67 -143 73 -230 144 -242 198 -4 17
-16 53 -27 80 -17 41 -21 72 -22 169 -1 119 -1 120 24 128 51 15 178 1 233
-26z m125 10 c121 -62 159 -109 188 -232 11 -51 31 -272 34 -391 0 -8 -12 -13
-28 -13 -25 0 -29 5 -41 58 -7 31 -17 102 -22 157 -18 212 -43 284 -140 389
-28 31 -48 56 -45 56 4 0 28 -11 54 -24z m749 -13 c-2 -5 -27 -47 -56 -95 -86
-145 -85 -140 -82 -335 l2 -172 -23 -6 c-13 -3 -36 -2 -53 3 l-30 8 -3 152
c-1 93 1 152 7 152 5 0 13 21 16 48 3 26 10 57 15 68 15 38 72 95 139 140 68
45 75 49 68 37z"/>
</g>
</svg>
