<?xml version="1.0" standalone="no"?>
<!DOCTYPE svg PUBLIC "-//W3C//DTD SVG 20010904//EN"
 "http://www.w3.org/TR/2001/REC-SVG-20010904/DTD/svg10.dtd">
<svg version="1.0" xmlns="http://www.w3.org/2000/svg"
 width="255.000000pt" height="239.000000pt" viewBox="0 0 255.000000 239.000000"
 preserveAspectRatio="xMidYMid meet">
<metadata>
Created by potrace 1.13, written by Peter Selinger 2001-2015
</metadata>
<g transform="translate(0.000000,239.000000) scale(0.100000,-0.100000)"
fill="#000000" stroke="none">
<path d="M768 2314 c-173 -31 -313 -103 -425 -216 -142 -145 -212 -326 -233
-597 -14 -172 0 -413 29 -525 26 -99 85 -222 145 -304 l46 -62 -30 -15 c-90
-47 -126 -114 -118 -224 12 -171 150 -265 388 -266 101 0 108 1 180 37 41 20
92 47 112 59 l37 22 58 -35 c90 -56 158 -72 298 -70 180 1 330 38 405 99 l24
21 52 -39 c157 -119 516 -81 663 70 57 59 81 119 81 203 0 120 -55 187 -172
212 -35 8 -35 21 2 79 55 86 68 121 101 267 31 135 33 160 37 360 7 423 -41
585 -218 728 -108 87 -287 164 -461 197 -111 21 -884 20 -1001 -1z m1042 -57
c63 -15 195 -69 298 -121 85 -43 167 -128 212 -220 56 -113 69 -195 70 -446 0
-301 -25 -447 -107 -619 -30 -63 -61 -110 -92 -141 -79 -79 -276 -163 -496
-211 -87 -18 -141 -22 -407 -26 -422 -7 -569 12 -743 96 -162 77 -264 195
-322 371 -45 136 -55 234 -51 492 l4 223 32 86 c106 280 306 463 572 520 77
17 128 18 525 15 358 -2 452 -6 505 -19z m538 -1657 c132 -81 75 -284 -102
-366 -75 -35 -148 -47 -260 -42 -164 6 -244 55 -261 159 -12 71 14 93 138 115
116 20 113 20 126 -30 13 -53 47 -83 104 -91 49 -7 115 12 131 38 17 27 -10
38 -72 31 -43 -5 -57 -3 -72 11 -31 28 -24 50 30 105 89 88 169 112 238 70z
m-1888 -76 c72 -33 120 -71 120 -93 0 -31 -54 -81 -88 -81 -36 0 -49 25 -27
50 23 26 19 50 -9 50 -17 0 -31 -10 -45 -34 -27 -43 -26 -61 4 -91 19 -20 34
-25 76 -25 48 0 55 3 91 40 34 37 43 57 40 99 -1 21 155 9 205 -15 59 -29 58
-92 -3 -163 -59 -69 -121 -94 -240 -99 -213 -9 -328 64 -341 216 -6 74 17 119
77 150 56 28 72 28 140 -4z m1176 -146 c-14 -139 -93 -190 -314 -204 -165 -10
-295 22 -358 87 -36 37 -40 104 -10 138 17 18 30 21 105 21 119 0 127 -3 140
-56 8 -32 19 -48 41 -59 75 -39 171 0 205 83 13 30 17 32 67 33 29 1 64 5 78
9 52 17 53 15 46 -52z m-256 18 c0 -22 -40 -66 -60 -66 -10 0 -31 11 -47 24
-24 20 -25 26 -14 40 18 21 121 23 121 2z"/>
<path d="M1270 2164 c-14 -2 -65 -9 -115 -15 -324 -40 -569 -173 -690 -374
-62 -103 -87 -200 -92 -355 -6 -166 10 -251 67 -367 122 -248 384 -366 805
-365 264 0 447 34 620 116 109 52 185 110 220 170 45 77 67 252 62 496 -4 230
-17 292 -83 401 -46 77 -154 176 -241 222 -115 60 -200 77 -377 76 -83 -1
-162 -3 -176 -5z m160 -48 c0 -7 -7 -19 -15 -26 -8 -7 -25 -44 -36 -82 -21
-69 -22 -113 -3 -215 6 -33 6 -33 -34 -33 -71 0 -89 12 -101 70 -21 98 -15
149 25 208 19 29 50 62 67 72 38 23 97 27 97 6z m241 -15 c77 -23 98 -75 59
-150 -55 -109 -272 -214 -321 -155 -7 9 -15 44 -17 79 -6 86 19 168 64 213 35
35 35 35 107 29 40 -3 88 -11 108 -16z m-411 0 c0 -5 -12 -30 -27 -57 -25 -44
-28 -61 -31 -166 -5 -131 -13 -145 -51 -78 -48 87 -36 200 31 276 28 31 78 48
78 25z m-133 -28 c-3 -10 -13 -38 -22 -63 -17 -45 -16 -114 1 -199 l7 -33 -34
7 c-130 26 -223 182 -156 260 26 30 67 43 151 44 51 1 58 -1 53 -16z m721
-107 c-9 -135 -77 -231 -197 -277 -48 -19 -83 -23 -238 -27 -339 -9 -504 32
-590 144 -23 31 -28 49 -31 109 -4 67 -2 74 19 89 24 16 24 16 30 -28 28 -183
167 -268 439 -268 131 0 229 22 343 74 83 38 123 82 167 183 44 102 64 102 58
1z m103 -18 c26 -50 23 -152 -5 -210 -75 -155 -361 -268 -676 -268 -333 0
-605 65 -668 160 -29 44 -25 88 18 176 28 58 99 144 119 144 4 0 11 -21 15
-46 14 -103 98 -201 210 -243 98 -36 176 -44 395 -38 372 10 434 44 511 282
12 39 25 73 27 78 11 18 34 3 54 -35z m-1407 -160 c-24 -69 -28 -138 -9 -191
16 -48 16 -48 -9 -78 -45 -53 -59 -119 -64 -299 l-4 -165 -18 45 c-16 37 -19
74 -19 210 -1 274 24 402 96 481 20 22 37 39 39 39 2 0 -3 -19 -12 -42z m1526
-113 c40 -156 50 -286 25 -339 -19 -41 -66 -76 -101 -76 -11 0 -31 11 -44 25
-23 25 -23 26 -7 54 26 44 22 86 -12 123 -24 27 -36 33 -70 33 -49 0 -96 -32
-96 -65 0 -31 16 -35 44 -11 50 44 91 34 91 -21 0 -98 -204 -154 -281 -77 -24
24 -24 50 0 98 26 50 32 54 130 86 111 37 147 73 268 273 8 13 16 22 18 20 3
-2 18 -58 35 -123z m-1284 -205 c82 -40 134 -131 134 -235 0 -51 -18 -69 -120
-120 -99 -49 -142 -84 -171 -140 -13 -25 -27 -45 -31 -45 -13 0 -48 78 -63
142 -9 38 -15 114 -15 192 0 113 3 133 21 162 39 63 66 77 138 70 35 -3 83
-15 107 -26z m774 -87 c0 -49 5 -77 19 -99 l19 -31 -28 -57 c-16 -31 -32 -77
-36 -101 -7 -51 -13 -53 -75 -26 -24 10 -67 22 -94 26 -77 10 -85 20 -34 43
70 31 95 65 123 171 30 111 47 141 81 141 24 0 25 -2 25 -67z m-600 6 c29
-119 173 -176 370 -145 l55 9 -35 -37 c-20 -21 -51 -41 -75 -47 -50 -14 -141
-4 -209 22 -88 34 -121 74 -136 163 -15 93 9 122 30 35z m458 13 c4 -42 -17
-68 -76 -94 -50 -23 -114 -26 -156 -9 l-29 12 34 18 c19 10 43 35 55 57 22 43
47 53 124 51 43 -2 45 -3 48 -35z m-220 6 c-2 -17 -14 -27 -43 -37 -37 -12
-44 -12 -89 10 -80 39 -72 49 39 49 94 0 96 0 93 -22z m652 -188 c0 -42 -21
-84 -46 -94 -22 -8 -18 62 6 102 26 43 40 40 40 -8z m124 -3 c26 -6 50 -17 53
-24 6 -15 -50 -117 -86 -157 -80 -88 -258 -103 -326 -27 -28 32 -25 88 10 160
l29 61 58 0 c32 0 58 -4 58 -9 0 -5 -7 -22 -15 -37 -18 -35 -19 -76 -3 -92 44
-44 138 37 138 119 0 26 3 30 18 24 9 -3 39 -11 66 -18z m-901 -97 c5 -4 -31
-13 -80 -20 -94 -13 -125 -22 -215 -64 -32 -14 -58 -24 -58 -21 0 2 30 20 68
40 37 19 94 55 127 80 l59 45 46 -27 c25 -14 49 -29 53 -33z m974 -74 c-35
-75 -114 -157 -192 -198 -35 -18 -66 -30 -70 -27 -3 4 7 26 22 51 20 33 40 50
80 67 52 23 173 137 173 163 0 6 3 9 6 5 3 -3 -5 -31 -19 -61z m-722 18 c50
-8 113 -26 140 -40 55 -26 48 -26 -95 5 -116 25 -338 28 -442 6 -68 -14 -90
-25 -166 -82 -59 -45 -74 -41 -28 6 46 47 131 87 224 106 92 18 259 18 367 -1z
m-98 -181 c19 -172 27 -155 -69 -148 -150 12 -165 24 -175 146 -5 61 -4 69 18
91 23 23 30 24 119 21 l95 -2 12 -108z m232 73 c19 -10 72 -56 118 -102 l83
-83 -53 -17 c-29 -9 -105 -18 -173 -21 -119 -5 -121 -5 -138 18 -11 16 -16 44
-16 86 0 34 -4 65 -10 68 -14 9 -12 48 3 64 17 18 142 9 186 -13z m-517 -47
c3 -30 9 -75 12 -101 l7 -48 -39 0 c-48 0 -161 37 -186 60 -14 14 -16 22 -7
38 11 21 179 113 196 108 6 -1 13 -27 17 -57z m771 -6 c47 -7 47 -24 2 -46
-33 -16 -39 -16 -65 -2 -17 9 -30 21 -30 28 0 20 23 38 40 31 8 -3 32 -8 53
-11z"/>
<path d="M651 1376 c-22 -23 -34 -47 -38 -75 -7 -53 10 -54 26 0 16 52 43 79
82 79 27 0 30 2 19 15 -20 24 -54 17 -89 -19z"/>
</g>
</svg>
