<?xml version="1.0" standalone="no"?>
<!DOCTYPE svg PUBLIC "-//W3C//DTD SVG 20010904//EN"
 "http://www.w3.org/TR/2001/REC-SVG-20010904/DTD/svg10.dtd">
<svg version="1.0" xmlns="http://www.w3.org/2000/svg"
 width="255.000000pt" height="239.000000pt" viewBox="0 0 255.000000 239.000000"
 preserveAspectRatio="xMidYMid meet">
<metadata>
Created by potrace 1.13, written by Peter Selinger 2001-2015
</metadata>
<g transform="translate(0.000000,239.000000) scale(0.100000,-0.100000)"
fill="#000000" stroke="none">
<path d="M865 2275 c-312 -58 -539 -222 -661 -480 -70 -149 -85 -228 -91 -465
-4 -167 -2 -218 11 -275 22 -92 92 -233 160 -321 l54 -71 -44 -44 c-88 -86
-125 -209 -86 -285 26 -52 126 -145 189 -175 45 -23 59 -24 223 -24 189 0 182
-2 287 65 l52 32 95 -66 95 -66 146 0 c157 0 173 4 288 77 42 27 59 23 112
-28 88 -83 319 -90 477 -15 154 73 219 202 172 340 -22 64 -78 122 -127 131
-50 10 -48 27 13 106 32 41 66 103 95 174 48 120 60 161 100 365 25 126 27
148 23 330 -5 176 -8 203 -31 276 -80 245 -243 351 -627 410 -152 23 -812 29
-925 9z m875 -60 c231 -31 377 -86 481 -182 66 -62 97 -109 131 -199 21 -56
23 -74 23 -339 l0 -280 -33 -96 c-18 -52 -60 -144 -93 -205 -33 -60 -72 -135
-86 -166 -26 -55 -29 -58 -123 -102 -196 -94 -309 -109 -815 -104 l-380 4
-118 32 c-156 42 -261 87 -291 123 -14 16 -29 29 -34 29 -5 0 -36 30 -69 68
-45 50 -68 89 -94 152 l-34 85 -3 208 c-3 166 0 225 13 290 10 45 21 111 25
146 12 94 58 178 148 270 157 159 347 253 572 281 116 14 633 4 780 -15z
m-1140 -1674 c69 -22 134 -47 145 -55 18 -13 18 -16 5 -41 -8 -15 -25 -31 -37
-36 -13 -5 -23 -13 -23 -19 0 -6 -37 -10 -95 -10 -86 0 -95 2 -95 19 0 10 7
24 15 31 8 7 15 19 15 26 0 22 -42 16 -75 -11 -25 -21 -28 -28 -20 -51 14 -38
77 -69 140 -69 35 0 74 11 129 35 73 32 80 38 93 75 21 62 34 71 83 56 45 -13
68 -42 77 -93 10 -65 -51 -137 -157 -187 -47 -22 -69 -26 -150 -26 -104 0
-280 39 -280 62 0 6 -14 20 -30 30 -39 22 -70 87 -70 143 0 53 36 119 82 149
43 29 87 24 248 -28z m1625 -15 c40 -31 74 -94 75 -138 0 -34 -59 -145 -86
-161 -116 -66 -183 -87 -284 -87 -88 0 -153 23 -206 75 l-44 42 0 96 c0 140 1
142 111 143 87 0 90 -1 84 -20 -27 -96 -28 -113 -9 -152 23 -48 72 -74 136
-74 95 0 158 46 158 117 0 53 -14 55 -40 4 -36 -71 -89 -96 -153 -72 -82 31
-89 129 -15 198 74 69 202 83 273 29z m-1098 -57 c52 -9 63 -14 63 -30 0 -11
9 -37 19 -58 35 -67 121 -84 172 -35 16 15 29 32 29 38 0 6 7 30 16 53 l17 43
77 0 c94 0 96 -3 75 -109 -19 -91 -50 -141 -107 -175 -148 -85 -428 -34 -428
78 0 16 -9 63 -21 103 -16 58 -18 77 -8 89 14 17 15 17 96 3z m243 -26 c0 -21
-36 -83 -48 -83 -5 0 -23 5 -41 11 -28 10 -31 15 -31 50 l0 39 60 0 c50 0 60
-3 60 -17z"/>
<path d="M1161 2049 c-202 -18 -376 -61 -491 -119 -217 -110 -360 -374 -360
-664 0 -128 16 -196 62 -269 75 -117 240 -214 468 -274 93 -25 102 -25 427
-23 183 0 347 6 365 11 18 5 65 12 103 14 198 13 367 143 464 357 46 101 53
154 49 363 -3 190 -3 190 -35 258 -59 124 -153 248 -222 291 -89 56 -113 59
-436 62 -165 1 -342 -2 -394 -7z m652 -20 c86 -13 175 -48 155 -60 -23 -15
-151 -10 -263 11 -123 23 -176 25 -261 9 -100 -17 -190 -50 -327 -117 -181
-88 -196 -93 -327 -102 -205 -15 -280 -58 -314 -181 -10 -35 -27 -80 -38 -99
-26 -44 -28 -113 -4 -159 16 -31 17 -40 5 -89 -11 -48 -11 -61 3 -100 12 -31
14 -51 7 -63 -15 -30 -10 -85 11 -111 27 -36 92 -59 180 -66 58 -4 93 -14 160
-45 168 -78 162 -77 470 -77 371 0 450 15 722 135 54 24 98 39 98 34 0 -23
-104 -112 -163 -139 -138 -65 -190 -73 -547 -79 -356 -7 -410 -3 -578 39 -161
41 -268 95 -351 178 -103 103 -111 127 -111 315 0 153 1 159 36 264 19 60 46
124 58 143 54 83 226 230 310 265 40 17 344 80 451 94 102 13 534 13 618 0z
m-90 -99 c24 -12 27 -18 22 -39 -4 -15 -9 -56 -12 -93 -4 -56 -2 -73 15 -102
l20 -34 -23 -22 c-28 -26 -47 -96 -39 -142 9 -49 48 -111 90 -143 86 -65 195
-81 314 -45 36 11 68 20 73 20 15 0 6 -68 -19 -145 -23 -69 -35 -88 -83 -135
-64 -63 -193 -135 -315 -174 -135 -44 -232 -56 -467 -56 -270 0 -320 10 -494
103 -16 9 -77 21 -134 27 -141 15 -171 32 -171 96 l0 25 148 -5 c81 -2 156 -5
167 -5 11 0 52 2 91 5 l71 6 7 -33 c8 -42 110 -144 151 -152 59 -11 80 24 51
81 -31 62 -30 69 19 97 65 39 74 90 22 129 -26 19 -46 22 -205 27 -151 5 -189
10 -257 31 -126 41 -187 66 -239 98 -45 29 -47 32 -44 73 l3 42 73 6 c56 4 78
10 95 27 17 17 19 24 9 34 -9 9 -19 9 -45 0 -69 -25 -97 -11 -97 49 0 74 76
110 335 160 158 29 179 36 290 92 139 69 176 83 265 102 80 18 273 14 313 -5z
m265 -34 c102 -52 184 -174 205 -305 13 -85 4 -133 -33 -175 -94 -107 -274
-94 -360 26 -40 55 -42 118 -4 153 15 14 31 25 35 25 4 0 29 -27 54 -60 56
-73 75 -77 75 -16 0 43 -3 47 -85 123 -75 69 -85 82 -85 113 0 54 18 108 43
125 32 22 100 19 155 -9z m-1458 -638 c0 -18 -34 -108 -41 -108 -18 0 -20 80
-3 110 5 11 44 9 44 -2z m163 -29 c30 -16 37 -28 37 -71 0 -36 -1 -37 -26 -28
-14 6 -43 10 -65 10 -76 0 -102 37 -57 80 24 22 77 27 111 9z m160 -62 c3 -7
-3 -24 -14 -38 -18 -24 -18 -24 -33 -4 -25 33 -20 55 13 55 16 0 31 -6 34 -13z
m110 -27 c4 -17 0 -20 -24 -20 -22 0 -29 5 -29 20 0 14 7 20 24 20 15 0 26 -7
29 -20z m166 -32 c-1 -29 -4 -77 -7 -106 l-7 -54 -29 23 c-37 29 -66 93 -66
147 l0 42 55 0 55 0 -1 -52z"/>
<path d="M1039 1713 c-25 -8 -59 -25 -75 -38 l-29 -23 15 -48 c24 -80 19 -127
-18 -179 -17 -25 -32 -48 -32 -51 0 -4 15 -3 33 1 17 4 66 8 107 9 71 1 78 3
139 45 81 55 133 71 236 71 69 0 88 -4 116 -23 31 -20 34 -28 37 -75 2 -43 6
-53 19 -50 21 4 43 67 31 91 -5 9 -41 33 -80 53 -39 20 -94 57 -122 84 -28 26
-76 63 -106 82 -110 69 -179 82 -271 51z m184 -29 c41 -21 167 -116 167 -126
0 -5 -12 -8 -26 -8 -19 0 -28 7 -37 30 -8 21 -24 35 -58 50 -60 25 -100 25
-184 -1 -57 -17 -70 -19 -81 -7 -12 12 -8 19 28 46 36 28 50 32 100 32 35 0
72 -7 91 -16z m-3 -88 c0 -17 -38 -46 -60 -46 -9 0 -26 7 -39 16 l-24 17 24
13 c33 19 99 18 99 0z m-155 -50 c29 -27 91 -42 127 -31 13 4 35 19 51 33 l27
26 0 -27 c0 -22 -6 -28 -42 -38 -58 -15 -141 -6 -178 21 -29 21 -39 40 -21 40
6 0 22 -11 36 -24z m16 -82 c42 -21 23 -44 -36 -41 -40 2 -43 4 -43 30 1 22 6
27 25 27 13 0 38 -7 54 -16z"/>
<path d="M778 1575 l5 -65 -42 -40 c-22 -21 -41 -42 -41 -45 0 -14 23 -1 55
32 46 47 61 100 41 148 -8 19 -17 35 -19 35 -3 0 -2 -29 1 -65z"/>
</g>
</svg>
