<?xml version="1.0" standalone="no"?>
<!DOCTYPE svg PUBLIC "-//W3C//DTD SVG 20010904//EN"
 "http://www.w3.org/TR/2001/REC-SVG-20010904/DTD/svg10.dtd">
<svg version="1.0" xmlns="http://www.w3.org/2000/svg"
 width="255.000000pt" height="239.000000pt" viewBox="0 0 255.000000 239.000000"
 preserveAspectRatio="xMidYMid meet">
<metadata>
Created by potrace 1.13, written by Peter Selinger 2001-2015
</metadata>
<g transform="translate(0.000000,239.000000) scale(0.100000,-0.100000)"
fill="#000000" stroke="none">
<path d="M1060 2319 c-356 -44 -675 -191 -754 -348 -50 -99 -123 -358 -147
-523 -16 -109 -6 -401 16 -483 24 -86 70 -167 128 -225 27 -27 54 -50 58 -50
5 0 9 -4 9 -9 0 -5 -35 -24 -77 -41 -121 -50 -137 -66 -158 -154 -42 -177 14
-297 172 -368 40 -19 71 -23 189 -26 160 -5 217 4 315 49 l66 31 39 -20 c97
-49 147 -57 364 -56 220 0 282 8 386 50 l67 27 101 -24 c211 -49 398 -16 509
90 129 122 107 294 -52 402 -28 19 -51 39 -51 45 0 6 9 19 21 30 45 40 84 155
116 339 20 121 25 506 6 570 -6 22 -21 76 -33 120 -28 104 -69 173 -155 260
-144 146 -368 252 -637 301 -100 18 -394 26 -498 13z m667 -126 c195 -53 244
-72 316 -124 22 -16 45 -29 52 -29 19 0 142 -181 181 -265 52 -114 64 -183 64
-395 0 -244 -24 -402 -83 -545 -21 -50 -36 -69 -93 -113 -83 -64 -262 -154
-362 -181 -120 -33 -260 -44 -457 -38 -189 6 -274 18 -495 66 -162 36 -190 46
-328 112 -82 39 -120 65 -163 109 -75 75 -90 108 -98 206 -4 45 -12 89 -20 98
-20 24 -9 355 17 506 11 63 23 138 27 165 9 66 10 66 120 190 52 59 95 111 95
116 0 5 7 9 15 9 9 0 28 9 43 20 39 29 159 76 292 115 l115 34 285 -2 285 -2
192 -52z m508 -1593 c37 -14 74 -57 100 -117 20 -45 22 -58 13 -90 -26 -95
-62 -138 -151 -178 -70 -33 -210 -44 -300 -25 -83 17 -115 48 -127 125 -21
128 -12 153 57 162 35 4 39 2 53 -28 23 -52 86 -79 179 -79 83 0 121 16 121
50 0 17 -9 20 -82 22 -83 3 -83 3 -86 31 -3 23 5 38 42 73 60 57 123 76 181
54z m-1708 -20 c41 -25 63 -59 70 -108 11 -79 -45 -129 -107 -97 -25 13 -30
22 -30 51 0 31 -3 35 -22 32 -12 -2 -29 -15 -37 -30 -35 -62 27 -118 129 -118
86 1 118 23 165 116 34 66 44 79 67 82 22 3 32 -3 48 -30 18 -28 21 -46 18
-119 -3 -77 -6 -90 -32 -123 -48 -63 -100 -81 -241 -81 -137 0 -207 17 -273
65 -58 42 -82 93 -82 175 0 88 27 137 95 173 70 36 182 43 232 12z m561 -126
c28 -5 37 -15 61 -63 38 -75 60 -93 120 -99 78 -7 98 2 126 58 31 62 61 78
172 91 84 11 88 10 105 -11 23 -28 25 -147 4 -188 -35 -69 -135 -92 -392 -92
-324 0 -344 12 -358 229 l-7 94 68 -7 c37 -4 83 -9 101 -12z m272 -34 c0 -8
-9 -30 -20 -47 -15 -25 -27 -33 -49 -33 -39 0 -91 44 -91 76 0 24 1 24 80 22
64 -2 80 -5 80 -18z"/>
<path d="M893 2025 c-80 -22 -120 -41 -190 -91 -263 -187 -404 -668 -272 -927
12 -23 49 -69 83 -103 110 -110 293 -179 541 -204 145 -15 427 -7 535 15 272
55 465 184 531 352 20 52 23 80 27 274 5 241 -5 333 -44 415 -53 111 -188 225
-313 264 -58 19 -92 20 -455 19 -302 0 -403 -3 -443 -14z m733 -20 c291 -47
436 -166 475 -389 16 -97 7 -323 -18 -411 -52 -184 -118 -292 -222 -363 -55
-38 -81 -47 -195 -73 -126 -28 -141 -29 -391 -29 -256 0 -263 1 -385 30 -223
54 -243 63 -325 145 -50 51 -82 93 -104 139 -29 62 -31 74 -31 176 0 81 4 117
15 133 9 14 18 67 24 130 12 144 44 212 144 311 117 118 272 184 480 206 131
14 436 11 533 -5z"/>
<path d="M1058 1940 c-286 -45 -487 -211 -552 -456 -23 -84 -31 -237 -17 -306
51 -244 257 -367 641 -385 433 -20 771 104 849 312 21 56 22 71 19 314 l-3
256 -28 57 c-47 96 -129 151 -279 189 -71 18 -120 22 -328 24 -135 2 -271 0
-302 -5z m147 -125 c-25 -52 -46 -84 -56 -85 -33 0 -105 107 -84 128 14 15
102 40 140 41 l41 1 -41 -85z m212 42 c-25 -24 -54 -68 -67 -100 -27 -64 -50
-78 -97 -55 -37 17 -41 59 -11 113 30 52 93 85 165 85 l52 0 -42 -43z m231 13
c17 -11 32 -23 32 -27 0 -20 -85 -103 -123 -122 -48 -23 -155 -37 -176 -23
-29 20 34 117 106 162 56 36 113 39 161 10z m-648 -48 c0 -54 38 -105 102
-136 151 -74 389 -74 515 -1 22 14 64 54 93 90 28 36 57 65 64 65 6 0 41 -28
78 -63 47 -45 69 -74 77 -103 12 -42 15 -162 5 -189 -9 -23 -52 -42 -132 -59
-97 -20 -124 -36 -187 -114 -31 -37 -66 -72 -79 -79 -62 -33 -257 -42 -387
-19 -92 17 -162 51 -252 123 -37 30 -88 61 -112 69 -40 14 -50 14 -107 -2
-112 -30 -118 -30 -118 0 0 14 15 67 34 118 19 51 40 112 46 135 12 50 32 65
180 144 69 37 118 57 143 58 36 1 37 0 37 -37z m928 -449 c-2 -13 -17 -20 -49
-24 -67 -10 -95 -28 -190 -122 -112 -112 -143 -122 -344 -114 -164 7 -387 32
-418 48 -12 6 -47 38 -79 72 l-56 62 -126 3 c-175 5 -163 32 15 35 120 2 144
-7 218 -78 54 -51 77 -66 126 -80 122 -36 393 -35 510 1 51 15 71 29 135 95
95 97 130 115 223 118 31 1 38 -2 35 -16z m2 -122 c0 -48 -7 -73 -39 -137 -59
-118 -142 -196 -233 -218 -25 -6 -27 -4 -38 48 -6 30 -10 76 -8 102 3 48 3 48
51 63 46 14 50 19 83 86 40 84 78 115 141 115 l43 0 0 -59z m-1186 -11 c14 -5
55 -36 90 -69 47 -44 74 -61 103 -66 77 -13 73 -8 73 -105 0 -49 -5 -101 -10
-116 -10 -24 -14 -26 -52 -21 -22 3 -44 10 -47 15 -3 5 -23 12 -44 15 -99 16
-214 98 -268 192 -23 39 -29 63 -29 108 l0 57 79 0 c44 0 91 -4 105 -10z m384
-160 c9 0 12 -31 12 -120 l0 -120 -45 0 -45 0 0 113 c0 120 8 143 45 133 11
-3 26 -6 33 -6z m282 -43 c0 -13 6 -29 13 -36 7 -7 12 -38 12 -76 l0 -64 -60
-10 c-33 -6 -85 -13 -116 -17 -72 -8 -75 -2 -71 129 l3 97 110 0 c107 0 109 0
109 -23z m159 -14 c28 -114 16 -153 -49 -156 -45 -3 -60 26 -60 121 l0 72 50
0 c49 0 49 0 59 -37z"/>
</g>
</svg>
