<?xml version="1.0" standalone="no"?>
<!DOCTYPE svg PUBLIC "-//W3C//DTD SVG 20010904//EN"
 "http://www.w3.org/TR/2001/REC-SVG-20010904/DTD/svg10.dtd">
<svg version="1.0" xmlns="http://www.w3.org/2000/svg"
 width="255.000000pt" height="239.000000pt" viewBox="0 0 255.000000 239.000000"
 preserveAspectRatio="xMidYMid meet">
<metadata>
Created by potrace 1.13, written by Peter Selinger 2001-2015
</metadata>
<g transform="translate(0.000000,239.000000) scale(0.100000,-0.100000)"
fill="#000000" stroke="none">
<path d="M995 2286 c-131 -21 -234 -54 -350 -110 -227 -111 -395 -303 -481
-551 -47 -134 -56 -213 -52 -436 l3 -195 37 -75 c20 -41 60 -102 88 -136 l50
-62 -22 -15 c-63 -45 -128 -120 -144 -168 -37 -112 -1 -253 85 -331 89 -81
190 -111 345 -105 126 5 151 14 248 88 l63 47 72 -58 c102 -81 140 -92 321
-87 169 4 204 15 321 103 l64 49 31 -19 c120 -72 189 -89 336 -83 92 4 115 8
172 35 132 62 197 153 206 288 9 139 -28 219 -128 275 -33 19 -60 38 -60 43 0
17 24 53 71 108 136 158 159 224 159 454 0 223 -15 298 -117 610 -36 107 -65
180 -81 197 -33 36 -122 74 -260 111 l-117 31 -390 2 c-281 2 -412 -1 -470
-10z m915 -60 c98 -21 207 -74 266 -128 58 -53 100 -138 109 -221 4 -34 22
-142 41 -240 29 -155 34 -200 34 -332 0 -180 -16 -248 -79 -336 -97 -136 -314
-241 -611 -296 -82 -15 -159 -18 -565 -18 -417 0 -478 2 -539 18 -158 40 -267
119 -326 237 -48 95 -60 169 -60 383 0 174 2 190 20 216 12 16 27 62 35 110
33 187 209 388 440 501 219 107 382 131 875 125 215 -2 303 -7 360 -19z m321
-1540 c21 -14 50 -45 64 -70 79 -135 12 -307 -150 -387 -62 -30 -67 -31 -172
-27 -84 3 -119 9 -158 26 -60 28 -103 66 -121 109 -14 33 -20 216 -8 248 8 20
56 45 89 45 21 0 25 -5 25 -28 0 -50 29 -127 57 -154 40 -38 103 -54 151 -40
62 19 99 48 112 87 24 74 -11 88 -52 20 -44 -72 -100 -79 -147 -19 -34 43 -28
87 18 133 90 90 207 113 292 57z m-1799 -32 c87 -31 180 -77 195 -96 14 -17 3
-46 -35 -86 -35 -37 -76 -43 -92 -12 -6 11 -20 20 -30 20 -15 0 -20 -7 -20
-29 0 -60 90 -103 169 -81 59 16 96 52 132 130 l32 70 43 0 c51 0 52 -2 29
-108 -21 -102 -51 -173 -91 -221 -60 -70 -80 -76 -239 -76 -135 0 -142 1 -187
27 -55 33 -110 94 -144 160 -18 36 -24 63 -24 112 0 62 2 68 43 117 36 45 112
99 138 99 4 0 41 -12 81 -26z m298 -92 c0 -25 -52 -112 -67 -112 -8 0 4 81 16
113 15 38 51 37 51 -1z m670 -4 c0 -48 -26 -137 -46 -159 -10 -11 -30 -19 -50
-19 -27 0 -34 5 -43 31 -12 34 -14 101 -5 135 5 20 48 34 132 43 7 1 12 -11
12 -31z m207 -70 c-7 -121 -25 -180 -74 -237 -60 -71 -147 -101 -292 -101
-119 0 -262 51 -290 103 -20 38 -12 264 12 300 17 27 19 27 127 27 l110 0 0
-72 c0 -132 27 -181 100 -181 29 0 48 7 67 24 36 34 71 114 79 182 l7 57 80 0
80 0 -6 -102z"/>
<path d="M1159 2125 c-137 -33 -369 -146 -490 -237 -112 -84 -181 -177 -203
-270 -4 -20 0 -34 19 -56 14 -17 25 -36 25 -43 0 -8 -22 -27 -48 -44 -72 -46
-86 -83 -90 -241 -4 -146 1 -165 51 -190 18 -9 58 -45 90 -80 138 -150 310
-197 722 -197 519 0 786 85 882 281 l28 57 0 275 c0 257 -1 280 -23 355 -33
113 -77 190 -152 266 -68 68 -124 101 -213 125 -71 19 -518 18 -598 -1z m586
-57 c71 -26 155 -65 155 -73 0 -2 -24 7 -52 20 -76 35 -182 48 -328 42 -203
-9 -535 -68 -622 -112 -36 -18 -61 -20 -56 -4 5 16 230 107 333 135 84 22 104
24 295 21 190 -3 210 -5 275 -29z m-26 -48 c136 -23 259 -118 325 -252 54
-108 66 -182 66 -403 0 -182 -1 -192 -25 -244 -71 -151 -180 -251 -276 -251
l-29 0 0 63 c0 40 7 77 20 106 32 71 22 149 -26 202 -13 14 -24 36 -24 49 0
29 60 141 108 199 31 38 113 101 132 101 15 0 32 -83 22 -104 -5 -12 -15 -77
-20 -146 -6 -69 -18 -146 -27 -172 -9 -26 -15 -55 -13 -65 7 -32 56 34 80 106
18 56 22 95 26 258 3 177 2 195 -17 238 -65 147 -208 229 -445 256 -280 31
-736 -83 -829 -207 -18 -24 -18 -24 11 -24 15 0 44 12 63 26 93 70 241 126
399 149 110 17 343 20 421 5 64 -12 111 -30 107 -40 -2 -4 -23 -23 -48 -42
-105 -80 -189 -254 -176 -366 15 -123 22 -111 -77 -143 -48 -16 -138 -52 -200
-81 -93 -43 -124 -53 -181 -56 -118 -7 -399 42 -502 87 l-47 21 42 30 c54 40
98 102 117 166 28 96 -6 163 -93 187 -24 6 -43 16 -43 21 0 19 99 104 161 139
83 46 141 65 422 137 229 59 234 59 372 60 77 0 169 -5 204 -10z m161 -208 c0
-10 -15 -26 -35 -36 -108 -58 -194 -235 -195 -398 0 -52 -16 -71 -37 -43 -18
26 -17 185 2 258 20 76 56 145 97 184 41 39 70 52 126 52 34 1 42 -2 42 -17z
m86 -97 l28 -55 -54 -47 c-113 -96 -181 -173 -209 -235 -16 -33 -30 -57 -33
-52 -3 5 -2 50 3 100 7 83 30 165 62 221 16 28 137 122 159 122 10 1 27 -19
44 -54z m-1357 -96 c67 -23 70 -90 8 -181 -55 -79 -82 -97 -126 -79 -38 16
-39 34 -5 58 75 53 84 64 84 103 0 22 -8 47 -20 63 -11 14 -20 30 -20 36 0 14
38 14 79 0z m870 -323 c-2 -2 -44 -37 -94 -76 -143 -114 -128 -110 -389 -110
l-225 0 -93 49 c-51 27 -121 59 -156 71 -34 13 -60 25 -58 28 9 9 74 -9 86
-23 9 -11 33 -15 87 -15 l74 0 21 -36 21 -35 216 3 216 3 78 34 c44 18 104 51
135 72 32 21 63 39 71 39 8 0 12 -2 10 -4z m242 -94 c39 -43 40 -101 3 -156
-37 -54 -44 -87 -28 -125 18 -43 18 -71 -1 -71 -19 0 -44 49 -51 103 -6 39 -2
50 30 97 45 66 47 105 7 144 -35 33 -93 43 -147 26 -25 -8 -69 -42 -124 -95
-47 -45 -95 -88 -107 -94 -30 -15 -98 -14 -111 2 -9 10 8 22 76 56 48 24 123
64 167 90 105 63 99 61 184 58 68 -2 75 -5 102 -35z m-71 -59 c0 -33 -7 -55
-24 -77 -33 -44 -40 -85 -22 -137 22 -61 20 -66 -16 -86 -30 -16 -65 -18 -353
-18 -294 0 -329 2 -425 23 -102 22 -249 84 -257 108 -2 6 21 16 52 23 31 7 69
24 87 39 l32 27 201 3 202 3 16 -25 c23 -34 88 -52 138 -37 22 7 71 42 120 87
102 92 139 113 202 114 l47 0 0 -47z m-1135 -4 c7 -22 -27 -69 -51 -69 -18 0
-44 40 -44 67 0 20 5 23 44 23 36 0 46 -4 51 -21z m143 -39 l22 -28 -31 -26
c-31 -27 -92 -36 -104 -16 -12 19 6 50 43 75 20 14 39 25 42 24 3 0 15 -13 28
-29z"/>
<path d="M1610 1855 c0 -8 9 -15 20 -15 11 0 20 7 20 15 0 8 -9 15 -20 15 -11
0 -20 -7 -20 -15z"/>
<path d="M1230 1777 c-41 -15 -92 -21 -198 -26 -160 -7 -172 -12 -172 -78 0
-38 25 -68 73 -88 124 -51 262 -9 366 112 51 59 57 104 14 102 -16 -1 -53 -11
-83 -22z m30 -77 c-12 -17 -39 -39 -61 -50 l-39 -20 0 24 c0 34 28 64 75 81
47 16 54 6 25 -35z m-340 -26 c0 -14 -4 -23 -10 -19 -5 3 -10 15 -10 26 0 10
5 19 10 19 6 0 10 -12 10 -26z m190 6 c0 -5 -4 -10 -10 -10 -5 0 -10 5 -10 10
0 6 5 10 10 10 6 0 10 -4 10 -10z m-46 -25 c28 -42 21 -55 -29 -55 -38 0 -45
3 -45 20 0 20 32 60 49 60 5 0 16 -11 25 -25z"/>
<path d="M1490 1755 c0 -9 9 -15 25 -15 16 0 25 6 25 15 0 9 -9 15 -25 15 -16
0 -25 -6 -25 -15z"/>
<path d="M1462 1579 c-32 -12 -25 -43 11 -47 24 -3 27 0 27 27 0 33 -3 35 -38
20z"/>
</g>
</svg>
