<?xml version="1.0" encoding="UTF-8" standalone="no"?><!DOCTYPE svg PUBLIC "-//W3C//DTD SVG 1.1//EN" "http://www.w3.org/Graphics/SVG/1.1/DTD/svg11.dtd"><svg width="100%" height="100%" viewBox="0 0 301 401" version="1.1" xmlns="http://www.w3.org/2000/svg" xmlns:xlink="http://www.w3.org/1999/xlink" xml:space="preserve" xmlns:serif="http://www.serif.com/" style="fill-rule:evenodd;clip-rule:evenodd;stroke-linejoin:round;stroke-miterlimit:2;"><path d="M135.456,60.215c0.313,2.133 1.003,6.304 1.999,9.487c0.049,1.638 0.283,7.604 1.04,12.092c-0.092,1.185 -0.285,3.895 -0.285,5.106c0,7.568 -0.485,14.992 -0.485,22.331c0,13.312 -0.971,25.53 -0.971,38.838c0,3.489 0.611,12.241 0.709,13.604c-2.536,8.521 -2.166,19.063 -2.166,28.147c0,7.694 -0.485,16.245 -0.485,24.273c0,1.034 0.2,3.682 0.338,5.34c-0.704,2.45 -1.109,5.107 -1.184,7.905c-0.1,3.709 0.846,8.022 0.846,11.029c0,2.998 0.163,6.441 0.74,9.643c-0.019,2.885 0.102,6.856 0.787,8.913c0.87,2.609 -0.071,5.798 -0.071,8.63c0,15.16 -0.485,30.585 -0.485,46.12c0,3.262 0.375,7.018 0.713,10.853c0.171,1.942 0.863,3.943 0.329,5.545c-1.149,3.447 -1.528,9.702 -1.528,13.216l0,3.015l0.002,0.114c0.041,34.559 10.17,43.474 20.298,39.292c10.13,4.184 20.259,-4.731 20.298,-39.292l0.002,-0.114l0,-3.015l0.015,-2.426c1.988,-8.284 0.471,-19.125 0.471,-27.188c0,-15.535 0.485,-30.96 0.485,-46.12c0,-6.229 0.125,-13.074 -1.329,-19.07c-0.126,-2.629 -0.413,-5.81 -1.03,-8.221c0.468,1.688 0.804,3.508 0.804,3.508c0,0 0.099,-2.355 0.099,-3.403c0,-2.1 -0.516,-6.908 -0.755,-8.97c0.477,-1.514 0.843,-3.202 1.036,-5.041c0.33,-3.134 -0.281,-7.913 -0.281,-10.263c0,-8.028 0.485,-16.579 0.485,-24.273c0,-5.297 -1.206,-11.534 0.415,-16.398c2.25,-6.75 1.042,-18.199 1.042,-25.353c0,-13.308 0.971,-25.526 0.971,-38.838c0,-7.339 0.485,-14.763 0.485,-22.331c0,-3.751 0.215,-9.436 -0.694,-13.398c-0.074,-1.512 -0.594,-10.601 -2.305,-16.524c-0.285,-2.069 -1.38,-9.287 -2.995,-12.582c-2.271,-8.727 -10.211,-15.178 -19.646,-15.178c-11.204,0 -20.3,9.096 -20.3,20.3c0,2.865 1.098,7.101 2.586,10.697Zm39.502,-5.65c-0.077,-0.197 -0.156,-0.378 -0.233,-0.532l0.233,0.532Z"/><path d="M190.406,73.189c-0.075,1.413 -0.25,4.957 -0.25,6.428l0,27.672c0,5.473 -0.486,11.354 -0.486,16.506c0,1.776 0.129,5.411 0.161,6.258c-1.188,5.45 -0.727,14.707 -0.61,16.649c-1.005,5.394 -0.681,14.045 -0.529,16.954c-0.614,1.769 -1.089,3.783 -1.325,6.008c-0.385,3.634 0.361,9.149 0.361,11.903c0,2.634 0.428,6.589 -0.414,9.115c-1.22,3.659 -1.209,10.997 -1.147,13.938c-2.123,8.216 -1.837,18.535 -1.837,26.95c0,3.639 0.167,8.239 0.987,12.237c0.112,1.48 0.295,3.331 0.583,5.154l-0.022,-0.119c0,0 0.101,4.117 0.643,8.435c-0.033,0.379 -0.249,2.993 -0.249,3.907c0,5.754 -0.411,12.939 0.821,18.805c0.082,3.049 0.39,9.326 1.515,13.386l-0.2,-0.637c0,0 -0.194,7.061 -0.194,9.711c0,4.102 0.049,9.852 0.934,14.674c-0.164,2.14 -0.535,7.746 -0.194,10.238c0.167,1.225 0.41,2.395 0.728,3.511l-0.012,0.22l0.046,5.313c-0.661,1.993 -1.017,4.124 -1.017,6.338c0,11.204 9.097,20.3 20.3,20.3c6.257,0 12.539,-2.287 17.203,-9.173c1.349,-1.992 3.053,-5.361 3.729,-9.992c0.529,-3.621 0.339,-10.415 0.339,-12.786c0,0.222 -0.031,1.048 -0.031,1.048c0,0 -0.071,-8.844 -0.687,-10.939l-0.296,-0.887c-0.077,-3.672 -0.361,-9.698 -1.328,-13.537c0.343,1.179 0.6,2.301 0.6,2.301c0,0 0.286,-4.788 0.286,-6.629c0,-5.559 -0.033,-13.863 -1.468,-20.172c0.024,-2.689 -0.028,-8.181 -0.756,-11.43c0.026,-0.604 0.282,-6.854 0.282,-9.663c0,0.266 -0.031,0.941 -0.031,0.941c0,0 -0.501,-11.652 -2.112,-14.874c0.86,1.72 1.564,5.877 1.564,5.877c0,0 -0.121,-4.883 -0.785,-9.59c-0.097,-1.795 -0.371,-5.557 -1.017,-8.776c0.175,0.728 0.28,1.249 0.28,1.249c0,0 0.159,-3.128 0.159,-4.441c0,-5.151 -1.173,-11.633 0.415,-16.398c1.222,-3.666 1.207,-11.041 1.145,-13.961c1.482,-6.008 1.838,-14.022 1.838,-19.644c0,-1.331 -0.275,-4.863 -0.44,-6.813c0.783,-2.501 1.247,-5.158 1.396,-7.941c0.177,-3.29 -0.401,-9.951 -0.533,-11.388c1.044,-5.318 0.676,-13.648 0.54,-15.997c1.155,-4.901 0.979,-10.682 0.979,-15.633c0,-5.152 0.486,-11.033 0.486,-16.506l0,-27.672c0,-5.24 -0.143,-13.988 -2.011,-19.231l0.169,0.439l-0.411,-5.187c3.228,-8.625 0.233,-18.654 -7.758,-23.981c-9.322,-6.215 -21.936,-3.692 -28.151,5.63c-2.164,3.246 -4.198,8.579 -4.647,15.051c-0.479,6.899 0.886,15.456 2.459,20.851Zm7.608,252.491c3.165,-2.049 6.937,-3.237 10.985,-3.237c-3.856,0 -7.601,0.935 -10.985,3.237Zm-9.793,-60.723c0.064,0.169 0.129,0.32 0.194,0.451l-0.194,-0.451Zm35.809,-27.753c-0.085,-0.23 -0.177,-0.442 -0.272,-0.634l0.272,0.634Z"/><path d="M247.273,63.018l0.025,1.435c-0.831,3.24 -1.246,6.691 -1.429,10.221c-0.103,1.968 0.293,4.031 -0.299,5.806c-0.988,2.964 -1.641,10.27 -1.833,12.686c-1.334,3.298 -2.064,6.816 -2.308,10.494c-0.164,2.485 -0.081,7.324 -0.056,8.453c-2.421,8.33 -1.699,19.865 -1.699,28.674c0,7.416 -1.32,17.572 0.217,25.538c-0.126,2.76 -0.252,8.14 0.419,11.744c-0.016,1.045 -0.112,10.033 0.941,14.247c1.237,4.949 0.85,10.755 0.85,15.952c0,1.166 0.181,3.764 0.274,4.998c-1.237,6.656 -1.517,17.796 -0.314,24.22c0.075,1.55 0.344,6.028 0.977,10.149c0.039,2.147 0.227,7.104 1.012,11.033c-0.243,-1.042 -0.393,-1.854 -0.393,-1.854c0,0 -0.099,2.357 -0.099,3.399c0,3.69 0.363,12.245 0.38,12.635c-1.973,6.701 -0.866,17.345 -0.866,24.261c0,10.843 -1.456,23.13 -1.456,33.498c0,3.408 1.518,13.63 1.947,16.442c-0.017,5.219 1.963,10.441 5.94,14.418c7.923,7.922 20.787,7.922 28.709,0c1.771,-1.771 6.082,-6.322 6.018,-14.977c-0.017,-2.286 -2.014,-12.013 -2.014,-15.883c0,-10.368 1.456,-22.655 1.456,-33.498c0,-3.43 -0.598,-11.84 -0.696,-13.187c1.934,-7.014 1.182,-16.532 1.182,-23.709c0,-3.359 -0.207,-7.308 -0.965,-10.841c-0.091,-2.548 -0.342,-6.422 -1.001,-9.6c0.204,0.826 0.331,1.444 0.331,1.444c0,0 -0.057,-8.794 -1.084,-13.155l0.137,0.56l0.293,-6.386c1.055,-3.939 0.832,-10.066 0.832,-13.967c0,-8.15 -0.054,-17.183 -1.882,-25.024c0.003,-1.305 -0.034,-7.763 -0.785,-12.71c0.146,-2.865 0.349,-9.603 -0.648,-13.285c0.002,-0.264 0.027,-3.92 0.195,-5.856c0.329,-3.776 0.693,-7.459 0.693,-10.606c0,-5.205 -1.656,-12.127 -0.071,-16.883c1.629,-4.886 1.733,-15.172 1.735,-17.208c1.447,-4.805 2.308,-12.594 2.503,-14.528c1.079,-3.643 1.588,-7.556 1.798,-11.545c0.104,-1.969 -0.304,-4.013 0.275,-5.752c1.042,-3.124 1.72,-14.589 0.674,-20.055l-0.117,-0.546l0,-8.636c0,-11.203 -9.097,-20.3 -20.3,-20.3c-11.204,0 -20.3,9.097 -20.3,20.3l0,8.739c0,-0.261 0.042,-1.237 0.042,-1.237c0,0 0.16,7.856 0.704,9.714l0.056,0.168Zm-2.808,190.602c0.082,0.227 0.172,0.435 0.265,0.622l-0.265,-0.622Z"/></svg>