<?xml version="1.0" encoding="UTF-8" standalone="no"?><!DOCTYPE svg PUBLIC "-//W3C//DTD SVG 1.1//EN" "http://www.w3.org/Graphics/SVG/1.1/DTD/svg11.dtd"><svg width="100%" height="100%" viewBox="0 0 301 401" version="1.1" xmlns="http://www.w3.org/2000/svg" xmlns:xlink="http://www.w3.org/1999/xlink" xml:space="preserve" xmlns:serif="http://www.serif.com/" style="fill-rule:evenodd;clip-rule:evenodd;stroke-linejoin:round;stroke-miterlimit:2;"><path d="M242.245,102.848c-1.037,4.336 -1.23,11.02 -0.43,16.608c-0.075,0.977 -0.199,2.72 -0.199,3.368c0,5.854 0.148,12.8 1.765,18.24c-0.081,1.063 -0.534,7.172 -0.617,10.351c-0.095,3.661 0.188,7.217 0.957,10.591c-0.036,3.032 0.067,7.525 0.878,9.959c1.279,3.836 0.415,9.874 0.415,13.971c0,4.137 0.033,10.042 0.909,14.981l-0.373,3.611c0,0 0.378,-1.064 0.717,-1.935l0.015,0.06c-1.416,4.558 -1.737,15.969 -1.737,15.969c0,0 -0.016,-0.454 -0.016,-0.645c0,6.094 -0.971,12.074 -0.971,17.962c0,20.049 -0.486,39.414 -0.486,59.228l0,16.992c0,1.076 0.301,4.636 0.301,4.636c0,0 0.152,-0.878 0.395,-2.048c-0.422,2.692 -0.604,5.625 -0.682,7.789c-1.789,6.587 -1.47,14.489 -1.47,21.178c0,11.204 9.096,20.3 20.3,20.3c11.204,0 20.3,-9.096 20.3,-20.3c0,-2.838 -0.314,-8.851 -0.36,-9.713c1.413,-5.299 1.368,-14.017 1.368,-14.017c0,0 -0.594,5.363 -1.695,7.564c1.688,-3.375 2.124,-16.108 2.124,-16.108c0,0 0.019,0.504 0.019,0.719l0,-16.992c0,-19.814 0.486,-39.179 0.486,-59.228c0,-5.888 0.971,-11.868 0.971,-17.962c0,-0.826 -0.166,-3.054 -0.268,-4.318c0.895,-3.821 1.654,-8.611 1.672,-12.573c0.016,-3.438 -0.504,-6.477 -1.186,-8.861c0.085,-1.449 0.267,-4.808 0.267,-6.289c0,-6.812 -0.026,-16.333 -1.621,-23.561c0.035,-2.69 -0.039,-6.579 -0.63,-9.137c0.06,-0.783 0.541,-7.164 0.624,-10.449c0.118,-4.608 -0.364,-9.055 -1.667,-13.186c-0.013,-0.578 -0.104,-4.769 -0.104,-6.779c0,0.217 -0.022,0.812 -0.022,0.812c0,0 -0.259,-5.37 -0.895,-9.871c1.876,-6.171 0.917,-16.071 0.917,-22.496l0,-38.838c0,-11.204 -9.096,-20.3 -20.3,-20.3c-11.204,0 -20.3,9.096 -20.3,20.3l0,38.838c0,2.994 0.532,10.292 0.629,11.579Zm4.1,99.587c0.102,-0.313 0.211,-0.588 0.327,-0.819c-0.082,0.164 -0.202,0.455 -0.334,0.792l0.007,0.027Zm34.937,-88.785c0.16,-1.53 -0.599,-4.024 -1.209,-5.244c0.506,1.012 0.909,3.013 1.209,5.244Z"/><path d="M188.349,66.427c-0.068,0.947 -0.135,2.004 -0.135,2.51c-0,4.26 -0.05,9.963 -1.386,13.97c-0.947,2.844 -1.153,8.336 -1.195,10.948c-1.097,5.147 -1.303,12.051 -1.303,16.833c-0,-0.258 0.03,-0.96 0.03,-0.96c-0,0 0.667,11.514 2.113,14.407c-1.115,-2.23 -1.648,-7.222 -1.648,-7.222c-0,0 -0.291,8.846 1.032,12.816c1.739,5.217 -0.07,12.583 -0.07,18.34c-0,3.989 -0.207,10.441 1.041,14.187c1.027,3.081 -0.076,6.641 -0.202,10.108c-0.223,6.138 0.176,12.15 1.88,17.699c0.037,1.489 0.283,9.413 1.285,13.419c5.039,20.154 0.365,43.972 0.365,64.984l-0,46.12c-0,1.779 0.101,5.574 0.126,6.475c-0.666,2.575 -0.938,5.512 -1.048,7.573c-0.342,0.815 -0.639,1.681 -0.893,2.594c-0.795,2.85 -0.96,9.189 -0.992,11.92c-0.584,5.847 1.364,11.901 5.84,16.377c7.922,7.922 20.786,7.922 28.708,0c1.854,-1.854 4.549,-5.079 5.629,-10.619c0.205,-1.054 0.316,-8.797 0.316,-8.797c-0,0 -2.858,7.115 -4.689,9.378c1.838,-2.353 3.837,-9.657 4.947,-14.205c2.46,-5.788 2.656,-14.186 2.656,-20.696l-0,-46.12c-0,-24.2 4.226,-51.618 -1.577,-74.831c-0.524,-2.097 -0.015,-4.372 -0.166,-6.506c-0.222,-3.133 -0.76,-6.171 -1.726,-9.069c-1.037,-3.111 0.056,-6.686 0.183,-10.151c0.199,-5.398 -0.082,-10.684 -1.304,-15.631c0.093,-1.272 0.221,-3.254 0.221,-4.209c-0,-8.92 0.785,-20.054 -1.313,-28.68l-0.058,-1.326c-0.056,-0.795 -0.112,-1.589 -0.168,-2.384l-0.192,-1.796l0.062,0.368c-0,0 0.212,-2.748 0.212,-3.563c-0,-2.036 0.155,-7.072 0.17,-7.531c0.715,-2.858 0.905,-7.316 0.952,-9.784c2.033,-7.466 2.762,-17.044 2.762,-24.436c-0,0.226 -0.021,0.758 -0.021,0.758c-0,0 -0.481,-12.379 -2.122,-15.662c0.212,0.425 0.637,1.534 0.637,1.534c-0,0 -0.436,-2.335 -0.436,-3.136c-0,-11.204 -9.096,-20.3 -20.3,-20.3c-11.204,0 -20.3,9.096 -20.3,20.3c-0,3.573 0.839,9.282 2.077,13.996Zm39.826,268.55c0.507,-2.063 0.812,-3.487 0.812,-3.487l-0.377,1.229c0.688,-3.369 0.887,-6.002 0.887,-6.002c-0,0 -0.18,4.875 -1.322,8.26Zm-37.381,-9.521c1.121,-3.91 2.518,-7.87 3.851,-9.204c-2.615,2.615 -4.073,7.533 -4.815,11.029l0.281,-0.595l0.683,-1.23Zm32.163,-219.086c-0.057,-0.148 -0.114,-0.279 -0.17,-0.392l0.17,0.392Z"/><path d="M133.519,86.021c-0.724,3.069 -1.079,6.268 -1.209,9.533c-0.091,2.273 0.254,4.634 -0.29,6.812c-1.171,4.685 -1.395,9.632 -1.188,14.648c0.108,2.607 0.824,5.255 0.217,7.684c-2.024,8.096 -2.021,21.668 0,29.751c0.471,1.883 0.106,3.87 0.132,5.831c0.05,3.937 0.373,7.842 1.324,11.646c1.589,6.356 0.851,14.685 0.851,21.292c0,4.808 -0.135,10.582 0.825,15.361c-0.212,2.765 -0.681,10.531 0.266,14.321c1.286,5.143 0.171,10.878 1.457,16.021c2.451,9.805 2.306,21.23 2.306,31.487c0,11.548 -0.485,22.485 -0.485,33.983c0,3.028 -0.547,7.579 -0.293,11.31c0.174,2.572 0.62,4.975 1.275,7.137c0.031,2.57 0.186,6.423 0.723,9.789l-0.046,0.083l-0.01,0.018l0.08,0.319c-1.418,2.763 -2.215,5.895 -2.215,9.211c0,11.204 9.096,20.3 20.3,20.3c8.31,0 12.83,-3.705 15.848,-7.206c1.067,-1.238 1.887,-3.557 2.511,-6.165c1.148,-2.155 2.242,-4.923 2.832,-8.241c0.729,-4.1 1.057,-10.092 0.7,-13.388c-0.142,-1.301 -0.369,-2.489 -0.646,-3.559c-0.037,-3.13 -0.251,-8.405 -1.16,-12.228l0.314,1.178c0,0 0.387,-6.265 0.387,-8.558c0,-11.498 0.485,-22.435 0.485,-33.983c0,-13.478 -0.298,-28.45 -3.519,-41.334c-1.121,-4.485 -0.416,-9.42 -1.071,-14.021c0.155,-2.357 0.554,-10.217 -0.421,-15.022c0.023,-0.691 0.157,-4.853 0.157,-6.813c0,-9.676 0.264,-21.83 -2.063,-31.139c-0.474,-1.896 -0.113,-3.891 -0.138,-5.851c-0.049,-3.94 -0.371,-7.838 -1.318,-11.626c-0.683,-2.732 -0.685,-7.321 0,-10.057c1.169,-4.677 1.391,-9.621 1.184,-14.638c-0.108,-2.607 -0.822,-5.259 -0.213,-7.694c0.937,-3.749 1.273,-7.675 1.38,-11.624c0.044,-1.657 -0.373,-3.347 0.126,-4.843c0.825,-2.477 0.918,-7.086 0.875,-10.118c1.901,-9.078 0.652,-20.921 0.652,-29.799c0,-1.421 -0.204,-4.421 -0.301,-5.736c1.709,-9.736 -3.923,-19.527 -13.58,-22.746c-10.628,-3.543 -22.134,2.21 -25.677,12.839c-1.321,3.961 -1.042,10.902 -1.042,15.643c0,4.275 0.511,9.362 0.714,14.376c0.086,2.115 0.403,4.223 -0.158,5.906c-0.807,2.421 -0.913,6.879 -0.878,9.91Zm6.246,248.403c-1.189,4.72 -1.518,11.34 -1.518,11.34c-0,0 0.338,-5.634 1.57,-11.127l-0.052,-0.213Zm0.258,-0.961l-0.237,0.884l0.053,0.191l0.149,-0.676l0.362,-1.389l-0.327,0.99Zm-0.649,-0.735l-0.36,-1.443l-0.267,2.608l0.627,-1.165Zm2.326,-4.176c-0.281,0.495 -0.563,0.99 -0.844,1.485l-1.426,2.59l0.038,0.259l0.018,0.098l-0.032,0.063l0.179,0.716l-0.147,-0.779c0.42,-0.816 0.893,-1.6 1.418,-2.348c0.255,-0.761 0.533,-1.487 0.839,-2.156l-0.043,0.072Zm14.647,-6.556c-5.323,0.234 -8.924,2.09 -11.53,4.452c3.19,-2.576 7.177,-4.203 11.53,-4.452Z"/><path d="M121.017,136.285c1.709,-3.096 3.357,-7.408 3.522,-12.133c0.273,-7.795 -3.506,-15.083 -6.533,-18.109c-0.105,-0.105 -0.918,-0.845 -2.082,-1.825c-0.258,-0.718 -0.563,-1.426 -0.912,-2.123c-5.01,-10.021 -17.214,-14.089 -27.235,-9.079c-7.016,3.508 -13.394,9.449 -17.002,15.763c-3.866,6.766 -4.957,14.05 -3.465,20.792c1.564,7.064 5.799,14.514 16.098,19.663c4.669,2.335 12.337,3.465 18.9,2.202c6.029,-1.161 10.921,-4.14 13.756,-6.975c2.066,-2.066 5.796,-9.549 5.796,-9.549c-0,0 -0.343,0.578 -0.843,1.373Zm-4.141,-11.778l-0.04,0.1l0.024,-0.056l0.016,-0.044Zm1.223,-5.973c-0.104,2.047 -0.512,4.014 -1.182,5.858c0.641,-1.678 1.08,-3.612 1.182,-5.858Z"/><path d="M98.534,173.228c-2.436,0.074 -5.37,0.252 -6.759,0.657c-3.82,1.113 -6.87,3.06 -9.274,5.464c-3.428,3.428 -11.285,12.653 -13.116,20.659c-1.985,8.676 -0.269,16.996 6.805,24.07c6.91,6.91 13.265,8.441 18.387,8.617c6.809,0.235 13.933,-2.519 21.002,-9.588c0.704,-0.704 4.273,-5.322 4.997,-6.686c2.277,-4.289 2.405,-7.82 2.405,-9.61c0,-1.63 -0.182,-3.356 -0.624,-5.122c4.352,-8.83 1.734,-19.768 -6.578,-25.587c-5.217,-3.652 -11.562,-4.506 -17.245,-2.874Z"/><path d="M121.695,276.575c4.326,-5.217 5.942,-12.485 3.643,-19.383c-3.543,-10.629 -15.049,-16.382 -25.678,-12.839c-4.888,1.63 -11.297,2.537 -15.946,5.022c-5.356,2.863 -9.55,6.944 -12.298,12.44c-2.03,4.06 -3.78,11.741 -2.844,17.836c0.832,5.421 3.269,9.987 6.647,13.364c0.84,0.841 2.477,2.963 3.398,3.884c3.169,3.169 17.722,6.315 17.722,6.315c-0,0 -4.067,-0.475 -5.418,-0.925c10.053,3.35 17,0.512 21.615,-2.808c4.977,-3.58 9.474,-9.572 9.474,-19.364c-0,-1.208 -0.106,-2.393 -0.315,-3.542Zm-40.241,2.259l-0,0.016l0.002,-0.039l-0.002,0.023Z"/></svg>