<?xml version="1.0" encoding="UTF-8" standalone="no"?><!DOCTYPE svg PUBLIC "-//W3C//DTD SVG 1.1//EN" "http://www.w3.org/Graphics/SVG/1.1/DTD/svg11.dtd"><svg width="100%" height="100%" viewBox="0 0 301 401" version="1.1" xmlns="http://www.w3.org/2000/svg" xmlns:xlink="http://www.w3.org/1999/xlink" xml:space="preserve" xmlns:serif="http://www.serif.com/" style="fill-rule:evenodd;clip-rule:evenodd;stroke-linejoin:round;stroke-miterlimit:2;"><path d="M73.166,132.216c-4.043,2.295 -6.88,5.553 -8.818,8.618c-6.89,10.896 -3.708,30.271 11.778,38.014c-0.332,-0.166 -1.14,-0.628 -1.14,-0.628c0,0 16.182,5.827 23.666,2.085c5.396,-2.699 10.175,-9.782 12.121,-15.622c-0.195,0.587 -0.81,1.949 -0.81,1.949c0,0 5.937,-17.612 2.136,-25.214c-5.58,-11.162 -14.594,-14.697 -23.009,-14.729c-5.409,-0.02 -11.122,1.964 -15.924,5.527Z"/><path d="M106.99,226.856c-3.862,-8.282 -13.013,-13.179 -22.369,-11.308c-10.844,2.169 -20.459,11.05 -24.13,21.233c-4.846,13.442 -1.426,27.719 13.693,35.278c8.198,4.099 20.768,3.346 29.751,-2.777c11.328,-7.72 16.337,-20.736 9.621,-34.168c-1.727,-3.454 -3.978,-6.186 -6.566,-8.258Z"/><path d="M127.171,101.319c-1.219,4.034 -2.068,9.074 -2.068,12.281l0.009,0.39l-0.276,1.051c-0.315,1.408 -0.247,4.368 -0.099,6.965c-0.623,2.843 -0.605,7.388 -0.605,10.042c0,1.68 -0.165,6.293 -0.213,7.574c-1.088,2.848 -1.857,6.46 -1.942,10.535c-0.081,3.882 0.698,8.859 0.698,11.505c0,6.707 0.154,14.781 1.905,21.39l0.183,1.749l0.223,1.582c0.031,3.117 0.238,7.865 1.084,11.07l-0.311,-1.132c0,0 0.237,8.086 1.357,13.151c-0.005,2.028 0.069,10.01 1.284,14.331c0.059,0.503 0.639,5.294 1.496,8.97c0.186,2.88 0.574,6.278 1.357,8.465c-0.239,-0.613 -0.467,-1.266 -0.467,-1.266l-0.006,7.291c-0.759,2.904 -0.924,7.25 -0.954,8.463c-0.419,2.756 -0.656,5.132 -0.656,5.132c0,0 0.119,-0.912 0.293,-1.963c-0.445,3.265 -0.374,7.491 -0.279,9.919c-1.152,6.148 -0.683,13.652 -0.683,19.556c0,15.889 -1.457,33.433 -1.457,47.091c0,11.204 9.097,20.3 20.3,20.3c11.204,0 20.3,-9.096 20.3,-20.3c0,-13.658 1.457,-31.202 1.457,-47.091c0,-3.138 -0.29,-10.224 -0.319,-10.931c0.935,-3.888 0.669,-10.765 0.548,-12.986c0.209,-1.867 0.341,-3.703 0.395,-4.523l0.213,-1.389l0.141,-1.218c1.094,-4.518 1.795,-11.57 1.42,-17.965c-0.222,-3.808 -0.859,-7.383 -1.701,-10.357c-0.054,-2.446 -0.245,-5.195 -0.768,-6.763c0.056,0.169 0.145,0.51 0.145,0.51c0,0 -0.661,-5.586 -1.597,-9.423c0.005,-2.056 -0.073,-9.329 -1.136,-13.712c-0.076,-1.303 -0.492,-7.487 -1.609,-12.745c-0.085,-3.853 -0.451,-9.337 -1.759,-11.952c1.222,2.445 1.773,7.661 1.773,7.661c0,0 -0.039,-6.988 -1.157,-10.343c-1.038,-3.114 -0.415,-7.243 -0.415,-10.572c0,-2.096 -0.517,-8.395 -0.669,-10.18c1.566,-6.043 2.126,-14.586 2.126,-19.434l-0.037,-1.259l0.303,-1.152c0.318,-1.419 0.246,-4.412 0.095,-7.022c0.525,-2.705 0.61,-6.463 0.61,-9.015c0,0.511 -0.462,1.346 -0.687,1.797c0.758,-1.517 1.201,-4.056 1.453,-6.585c7.01,-16.848 4.088,-35.338 4.088,-53.954c0,-11.204 -9.096,-20.3 -20.3,-20.3c-11.204,0 -20.3,9.096 -20.3,20.3c0,6.956 0.652,13.91 0.963,20.744c0.287,6.298 0.646,12.511 -2.218,18.24c-0.848,1.696 -1.301,4.669 -1.531,7.477Zm2.737,153.903c0.417,-2.678 1.004,-5.594 1.707,-7c-1.003,2.006 -1.516,5.432 -1.707,7Zm1.406,-13.827c0.109,0.283 0.217,0.543 0.301,0.71l-0.301,-0.71Zm-4.812,-42.626c0.084,0.231 0.172,0.442 0.258,0.615l-0.258,-0.615Zm-0.421,-1.273l0.013,0.041l-0.017,-0.058l0.004,0.017Z"/><path d="M189.706,64.207c0.115,3.91 0.509,8.396 0.682,12.817c0.09,2.31 0.427,4.603 -0.161,6.369c-1.556,4.666 -1.442,14.975 -1.416,16.416c-0.673,3.779 -0.513,9.345 -0.368,12.192c-0.568,2.36 -0.898,4.801 -1.051,7.292c-0.14,2.29 -0.239,6.737 -0.253,7.4c-3.006,9.549 -2.323,21.974 -2.323,32.542c-0,6.037 -0.344,12.777 1.091,18.517c0.74,2.959 -0.087,6.141 -0.242,9.277c-0.268,5.45 -0.07,10.833 1.213,15.967c0.917,3.667 -0.606,8.748 -0.606,12.554c-0,14.12 -0.485,27.622 -0.485,41.75c-0,4.923 0.58,12.677 2.179,18.34c0.022,1.899 0.12,5.81 0.503,9.139c-0.06,0.784 -0.255,3.435 -0.255,4.562l-0,15.536c-0,11.126 2.427,23.547 2.427,33.012c-0,11.203 9.096,20.3 20.3,20.3c11.204,0 20.3,-9.097 20.3,-20.3c-0,-9.465 -2.427,-21.886 -2.427,-33.012l-0,-15.536c-0,-2.918 0.085,-7.099 -0.427,-10.487c-0.065,-1.932 -0.477,-11.204 -2.124,-16.104l0.318,0.927c-0,0 -0.194,-4.687 -0.194,-6.377c-0,-14.128 0.485,-27.63 0.485,-41.75c-0,-6.786 1.028,-15.863 -0.606,-22.401c-0.738,-2.954 0.09,-6.133 0.244,-9.269c0.268,-5.45 0.07,-10.835 -1.215,-15.975c-0.671,-2.683 0.121,-5.848 0.121,-8.67c-0,-6.585 -1.545,-14.403 0.414,-20.282c1.085,-3.253 1.656,-6.674 1.875,-10.185c0.148,-2.379 0.246,-7.024 0.255,-7.478c1.033,-3.962 0.754,-11.158 0.587,-13.998c0.705,-4.711 0.688,-10.811 0.662,-12.636c2.472,-9.328 1.061,-22.92 1.061,-32.516c-0,-2.199 -0.487,-4.708 -0.973,-6.661c0.077,-9.536 -6.62,-18.102 -16.316,-20.041c-10.987,-2.197 -21.69,4.938 -23.887,15.925c-0.987,4.93 -0.119,9.947 0.612,12.844Zm36.268,197.763c-0.098,-0.251 -0.193,-0.479 -0.274,-0.64l0.274,0.64Z"/><path d="M246.861,64.014c-0.553,2.439 -1.222,6.396 -1.225,9.596c-0.004,3.268 0.577,6.208 1.419,8.617c-0.03,1.327 -0.099,4.592 -0.099,6.129c-0,8.661 0.239,18.393 -1.821,26.632c-1.198,4.793 -1.487,9.838 -1.393,14.952c0.057,3.153 0.675,6.365 -0.064,9.322c-1.452,5.81 -1.132,17.729 0.373,24.351c-0.107,1.375 -0.493,6.577 -0.493,8.73c-0,9.592 0.605,21.267 2.805,30.651c-0.077,1.841 -0.367,10.729 0.714,15.052c0.707,2.829 -0.121,6.186 -0.121,9.155c-0,11.787 -1.456,23.288 -1.456,34.954c-0,20.363 2.912,39.095 2.912,59.713c-0,4.016 0.513,15.453 0.612,17.611c-0.93,8.228 3.265,16.535 11.096,20.45c10.021,5.011 22.224,0.943 27.235,-9.078c0.653,-1.306 1.905,-4.052 2.202,-8.318c0.22,-3.156 -0.545,-15.296 -0.545,-20.665c-0,-20.618 -2.912,-39.35 -2.912,-59.713c-0,-11.666 1.456,-23.167 1.456,-34.954c-0,-5.826 0.337,-12.345 -0.863,-18.003c0.074,-1.789 0.372,-10.734 -0.714,-15.078c-1.641,-6.564 -1.821,-14.95 -1.821,-21.777c-0,-5.252 0.632,-13.455 -0.81,-18.736l-0.152,-5.073c1.091,-4.621 1.354,-9.47 1.264,-14.381c-0.058,-3.153 -0.676,-6.364 0.063,-9.318c2.824,-11.298 3.033,-24.602 3.033,-36.479c-0,-4.509 -0.13,-10.32 -1.112,-15.359l0.02,-0.107c1.271,-5.081 0.607,-12.255 0.607,-17.546c-0,-11.204 -9.097,-20.3 -20.3,-20.3c-11.204,0 -20.3,9.096 -20.3,20.3c-0,2.362 0.325,7.648 0.39,8.67Z"/></svg>