<?xml version="1.0" encoding="UTF-8" standalone="no"?><!DOCTYPE svg PUBLIC "-//W3C//DTD SVG 1.1//EN" "http://www.w3.org/Graphics/SVG/1.1/DTD/svg11.dtd"><svg width="100%" height="100%" viewBox="0 0 301 401" version="1.1" xmlns="http://www.w3.org/2000/svg" xmlns:xlink="http://www.w3.org/1999/xlink" xml:space="preserve" xmlns:serif="http://www.serif.com/" style="fill-rule:evenodd;clip-rule:evenodd;stroke-linejoin:round;stroke-miterlimit:2;"><path d="M75.805,185.911c-2.089,2.815 -4.893,6.896 -5.547,9.309c-2.049,7.566 -0.81,14.844 5.684,21.338c3.584,3.583 13.141,9.78 21.312,10.583c7.742,0.761 14.838,-1.508 20.514,-7.185c2.548,-2.547 6.697,-9.736 6.697,-17.757c0,-8.021 -4.149,-15.209 -6.697,-17.757c-5.39,-5.39 -12.137,-7.998 -18.908,-7.758c-8.769,-2.386 -18.258,1.29 -23.055,9.227Z"/><path d="M138.738,89.367c-1.505,6.813 -1.363,15.627 -1.363,21.806c0,-0.233 0.021,-0.78 0.021,-0.78c0,0 0.217,5.459 0.847,10.124c-0.271,2.554 -0.356,5.545 -0.379,7.565c-0.769,2.521 -1.288,5.367 -1.464,8.436c-0.265,4.63 0.489,10.336 0.489,13.978c0,15.623 -0.971,30.781 -0.971,46.606c0,9.072 0.265,21.954 2.668,31.353c0.008,2.592 0.124,6.353 0.594,9.623c-0.164,-0.942 -0.244,-1.612 -0.244,-1.612c0,0 -0.469,9.12 0.716,13.902c-0.419,3.127 -0.483,6.803 -0.481,8.812c-2.004,8.351 -1.311,19.047 -1.311,27.734c0,12.017 -1.456,24.149 -1.456,35.925c0,0.882 0.07,2.903 0.106,3.856c-0.774,2.945 -1.425,6.539 -1.2,9.078c0.31,3.496 1.359,6.476 2.811,8.96c3.396,6.748 10.385,11.378 18.447,11.378c11.397,0 20.65,-9.253 20.65,-20.65c0,-1.169 -0.059,-2.134 -0.156,-2.949c0.48,-3.425 0.642,-7.031 0.642,-9.673c0,-11.776 1.456,-23.908 1.456,-35.925c0,-5.458 -1.724,-12.352 -0.088,-17.258c1.144,-3.434 1.203,-10.454 1.184,-12.858c0.695,-4.709 0.412,-11.178 -0.458,-15.721c-0.011,-2.034 -0.107,-5.601 -0.541,-9.061c0.156,-2.838 0.438,-10.445 -0.671,-13.772c-1.95,-5.849 -1.368,-14.963 -1.368,-21.142c0,-15.825 0.971,-30.983 0.971,-46.606c0,-3.027 -0.556,-11.612 -0.556,-11.612c0,0 -0.201,0.722 -0.46,1.529c1.507,-5.261 1.714,-15.156 1.714,-15.156l-0.023,0.177c0.243,-3.154 0.049,-6.92 -0.437,-10.283c0.076,-0.929 0.248,-3.163 0.248,-3.978c0,-2.741 -0.231,-9.123 -0.295,-10.82c0.726,-1.888 1.285,-4.059 1.551,-6.47c0.349,-3.163 -0.285,-7.847 -0.285,-10.382c0,-9.338 -0.971,-17.311 -0.971,-26.701c0,-11.397 -9.253,-20.65 -20.65,-20.65c-11.397,0 -20.65,9.253 -20.65,20.65c0,9.39 0.971,17.363 0.971,26.701c0,1.218 0.253,4.297 0.392,5.866Zm-2.618,248.948c-0.135,-0.932 -0.202,-1.885 -0.202,-2.854c0,1.165 0.081,2.091 0.202,2.854Zm1.705,-15.812l0.273,-0.646c-0.088,0.178 -0.18,0.398 -0.273,0.646Zm1.507,-196.812c0.068,0.203 0.144,0.385 0.223,0.543l-0.223,-0.543Zm37.33,-17.545c-0.056,-0.143 -0.112,-0.271 -0.167,-0.382l0.167,0.382Z"/><path d="M230.62,341.287l0,-10.195c0,-3.887 -0.559,-12.941 -1.963,-19.444c-0.147,-2.377 -0.428,-5.06 -0.955,-7.132c0.384,1.337 0.642,2.668 0.642,2.668c0,-0 -0.203,-7.243 -1.333,-12.946c0.042,-0.763 0.211,-3.998 0.211,-5.382l0,-22.332c0,-3.233 -0.78,-10.404 -0.9,-11.486c0.792,-4.443 0.489,-12.271 0.381,-14.459c1.998,-7.946 1.401,-19.565 -0.277,-27.251c0.025,-1.623 0.038,-6.12 -0.387,-9.584c0.155,-2.549 0.58,-11.802 -0.848,-16.085c-0.662,-1.988 -0.128,-4.423 0.019,-6.78c0.24,-3.841 0.556,-7.616 0.556,-10.964c0,-2.514 -0.224,-8.026 -0.254,-8.749c0.946,-4.234 0.705,-11.299 0.559,-14.054c1.075,-6.004 0.666,-12.888 0.666,-18.947c0,-8.429 -0.157,-16.738 1.81,-24.606c3.083,-12.329 2.559,-25.256 2.559,-38.02c0,-0.592 0.075,-2.404 0.133,-3.691c2.866,-6.41 2.391,-14.123 -1.924,-20.288c-6.536,-9.337 -19.422,-11.611 -28.759,-5.075c-3.156,2.209 -6.637,5.944 -8.635,11.715c-1.652,4.77 -2.115,14.049 -2.115,17.339c0,9.391 0.942,18.933 -1.326,28.003c-2.771,11.084 -3.043,22.749 -3.043,34.623c0,3.542 0.974,7.637 0.131,11.012c-0.856,3.42 -0.519,10.321 -0.331,13.147c-1.091,5.542 -0.771,12.2 -0.771,17.591c0,8.447 -1.201,19.287 0.779,27.989c-0.17,2.494 -0.452,8.007 0.023,11.731c-0.028,1.412 -0.115,8.78 0.785,12.379c0.527,2.106 0.741,7.838 0.748,8.033c-1.4,5.077 -1.104,15.127 -1.022,17.211c-1.124,6.104 0.143,13.443 0.143,19.266l0,22.332c0,4.294 0.153,10.238 1.287,14.95c0.079,2.06 0.352,6.896 1.132,11.196c0.157,2.993 0.525,6.625 1.341,8.919c-0.323,-0.844 -0.655,-1.858 -0.655,-1.858c0,-0 0.293,7.235 0.293,9.029l0,10.195l41.3,-0Zm-40.898,-17.257c0.116,0.303 0.229,0.576 0.322,0.762l-0.322,-0.762Zm0.05,-3.748c0.086,0.226 0.177,0.436 0.272,0.626l-0.272,-0.626Zm37.682,-16.628l0.076,0.241l-0.03,-0.109l-0.046,-0.132Zm-0.188,-0.548c-0.091,-0.248 -0.186,-0.475 -0.282,-0.668l0.282,0.668Z"/><path d="M243.239,99.265c0.049,1.692 0.224,5.741 0.749,9.145c-0.194,3.024 -0.58,11.57 0.765,15.604c-0.056,-0.168 -0.165,-0.562 -0.165,-0.562c0,0 0.698,6.481 0.207,8.443c-1.369,5.477 -1.773,11.209 -1.822,17.009c-0.039,4.583 0.477,9.247 -0.605,13.576c-1.054,4.213 -0.533,12.786 -0.356,15.192c-1.392,6.938 -0.841,14.356 -2.557,21.218c-0.837,3.346 -0.734,10.338 -0.68,12.376c-0.826,4.807 -0.828,11.657 -0.809,13.512c-1.805,7.341 -1.844,20.703 -0.242,28.486c-0.01,2.582 0.086,8.447 1.025,11.893c-0.038,0.621 -0.364,5.843 -0.58,8.602c-0.514,6.559 -0.192,12.952 1.729,18.714c0.751,2.253 0.397,5.702 0.397,8.034c0,-0.209 0.018,-0.701 0.018,-0.701c0,0 0.41,13.228 2.162,16.733c-1.204,-2.409 -1.821,-8.17 -1.821,-8.17c0,0 0.161,5.958 1.116,10.616c-0.201,-0.821 -0.324,-1.427 -0.324,-1.427c0,0 -0.18,3.401 -0.18,4.796c0,4.751 0.971,10.854 0.971,15.049c0,11.397 9.253,20.65 20.65,20.65c11.397,0 20.65,-9.253 20.65,-20.65c0,-4.195 -0.971,-10.298 -0.971,-15.049c0,-3.715 -0.155,-8.501 -0.979,-12.65c-0.108,-1.641 -0.299,-3.765 -0.623,-5.834c0.192,0.933 0.308,1.59 0.308,1.59c0,0 0.323,-3.803 0.323,-4.953c0,-5.963 -0.499,-14.577 -2.338,-20.517c0.046,-0.748 0.365,-5.854 0.578,-8.569c0.443,-5.652 0.265,-11.177 -1.023,-16.281c-0.004,-2.67 -0.126,-8.164 -0.989,-11.441l-0.01,-8.198c0,0 -0.125,0.46 -0.191,0.657c1.526,-4.577 1.477,-14.697 1.453,-16.487c0.78,-4.08 0.808,-10.171 0.788,-12.285c1.412,-6.964 0.851,-14.412 2.572,-21.297c1.049,-4.198 0.537,-12.724 0.357,-15.165c1.086,-4.997 1.421,-10.19 1.466,-15.438c0.039,-4.583 -0.478,-9.247 0.604,-13.574c1.615,-6.458 1.512,-19.884 -0.137,-27.91c0.162,-2.726 0.389,-8.58 -0.244,-12.73c-0.028,-1.217 -0.22,-7.52 -1.104,-11.568c0.034,-0.899 0.16,-4.456 0.16,-6.203c0,-7.093 -0.241,-14.226 1.055,-20.709c2.235,-11.176 -5.023,-22.064 -16.199,-24.299c-11.176,-2.235 -22.064,5.024 -24.299,16.199c-1.805,9.027 -1.857,18.934 -1.857,28.809c0,4.991 -0.17,10.828 1.002,15.764Z"/></svg>