<?xml version="1.0" encoding="UTF-8" standalone="no"?><!DOCTYPE svg PUBLIC "-//W3C//DTD SVG 1.1//EN" "http://www.w3.org/Graphics/SVG/1.1/DTD/svg11.dtd"><svg width="100%" height="100%" viewBox="0 0 301 400" version="1.1" xmlns="http://www.w3.org/2000/svg" xmlns:xlink="http://www.w3.org/1999/xlink" xml:space="preserve" xmlns:serif="http://www.serif.com/" style="fill-rule:evenodd;clip-rule:evenodd;stroke-linejoin:round;stroke-miterlimit:2;"><path d="M234.952,140.218c-1.537,1.698 -2.842,3.712 -4.062,6.152c-0.515,1.03 -0.901,3.176 -1.18,5.464c-0.735,1.725 -1.309,3.559 -1.514,5.33c-0.813,6.994 1.597,13.065 6.013,17.481c2.957,2.957 6.559,5.413 10.118,7.192c2.424,1.212 6.808,3.148 10.747,3.671c4.889,0.65 9.571,-0.151 13.705,-2.218c13.725,-6.862 17.399,-18.206 16.398,-28.158c-1.274,-12.673 -12.807,-26.764 -31.771,-26.764c-8.188,0 -15.25,4.858 -18.454,11.85Zm31.518,27.441c-0.353,0.317 -0.717,0.623 -1.096,0.914c-0.51,1.372 -1.063,2.522 -1.641,3.266c0.584,-0.718 1.722,-2.271 2.737,-4.18Zm-6.315,3.847l-0.814,0.295c0.282,-0.094 0.554,-0.192 0.814,-0.295Zm8.302,-14.748c-0.529,2.719 -1.36,6.552 -2.378,9.785c0.395,-0.614 0.76,-1.287 1.125,-2.017c0.601,-1.201 1.073,-3.99 1.395,-6.495l-0.071,-0.796l-0.071,-0.477Z"/><path d="M235.326,261.045c2.869,3.632 7.938,8.04 14.417,10.42c8.071,2.965 17.254,2.547 23.395,-0.524c6.498,-3.249 9.729,-6.989 11.984,-11.499c3.981,-7.964 5.718,-17.374 1.937,-24.937c-1.783,-3.566 -5.762,-8.279 -11.809,-11.351c-2.546,-1.294 -5.454,-2.265 -8.362,-2.88l-0.381,-0.249c-9.148,-5.66 -17.285,-4.435 -24.462,0.192c-4.623,2.981 -9.249,10.477 -11.155,14.288c-4.888,9.776 3.342,24.647 4.436,26.54Zm-0.3,-0.389l0.415,0.592l-0.115,-0.203l-0.3,-0.389c-0.517,-0.726 -1.36,-1.958 -1.714,-2.667c0.393,0.786 0.968,1.695 1.714,2.667Zm42.493,-17.037l-0.014,0.194l0.005,-0.051l0.009,-0.143Zm0.038,-0.576c0.015,-0.299 0.023,-0.603 0.023,-0.912l-0.023,0.912Z"/></svg>