<?xml version="1.0" encoding="UTF-8" standalone="no"?><!DOCTYPE svg PUBLIC "-//W3C//DTD SVG 1.1//EN" "http://www.w3.org/Graphics/SVG/1.1/DTD/svg11.dtd"><svg width="100%" height="100%" viewBox="0 0 301 400" version="1.1" xmlns="http://www.w3.org/2000/svg" xmlns:xlink="http://www.w3.org/1999/xlink" xml:space="preserve" xmlns:serif="http://www.serif.com/" style="fill-rule:evenodd;clip-rule:evenodd;stroke-linejoin:round;stroke-miterlimit:2;"><path d="M116.348,99.037c-1.639,1.055 -3.1,2.244 -4.379,3.523c-4.248,4.248 -6.583,9.459 -6.978,15.436c-0.312,4.723 3.768,14.917 4.148,15.851c2.527,4.342 8.414,10.426 16.107,13.685c9.099,3.854 19.335,3.268 25.821,0.025c2.78,-1.39 7.867,-3.494 10.729,-5.755c3.383,-2.671 5.746,-5.78 7.292,-8.872c-0.213,0.426 -1.04,1.845 -1.04,1.845c-0,0 4.447,-9.11 4.682,-13.459c0.375,-6.938 -1.855,-13.155 -6.972,-18.271c-9.628,-9.629 -26.387,-17.442 -42.006,-9.633c-2.748,1.374 -5.263,3.252 -7.404,5.625Zm-7.209,34.81c-0.186,-0.315 -0.352,-0.621 -0.499,-0.917c0.117,0.235 0.526,0.986 0.526,0.986l-0.027,-0.069Z"/><path d="M179.613,59.332l0.161,1.326l0.054,0.114l0.364,0.706c1.043,5.508 2.865,13.471 5.081,16.354c-3.039,-3.691 -5.471,-14.077 -5.471,-14.077c0,0 -0.362,13.355 1.527,19.329c-0.599,-1.836 -1.131,-4.329 -1.131,-4.329c0,0 -0.284,4.749 -0.284,6.578c0,8.097 0.689,19.253 3.424,27.763l-0.114,2.146l0.412,-1.242l0.136,0.411l0.038,0.098c-0.224,1.31 -0.4,2.797 -0.538,4.285c-0.84,2.244 -1.379,4.692 -1.577,7.347c-0.233,3.136 1.154,10.803 1.446,12.36c-0.325,1.55 -0.546,3.185 -0.69,4.455l-0.456,1.344c-0.867,2.856 -1.112,7.555 -1.112,10.852c0,3.855 -0.485,7.211 -0.485,11.151c0,0.694 0.104,2.24 0.203,3.536c-0.576,2.237 -0.969,4.681 -1.124,7.277c-0.264,4.443 0.437,9.906 0.437,13.429c0,11.62 -0.97,22.008 -0.97,33.94c0,4.224 -1.072,12.664 -0.031,17.61c0.682,3.234 1.819,6.054 3.246,8.475c0.667,2.921 1.566,6.312 2.623,9.146c-1.743,-3.889 -3.485,-8.435 -3.485,-8.435c0,0 -0.414,5.679 -0.414,6.658c0,8.537 0.485,16.966 0.485,25.697c0,5.864 -0.485,10.383 -0.485,16c0,1.175 0.313,4.924 0.344,5.298c-0.434,2.28 -0.719,4.106 -0.719,4.106c0,0 0.556,-1.48 1.37,-3.44c-1.575,4.235 -2.636,8.201 -2.636,8.201c0,0 2.878,-8.43 5.605,-11.591c-3.163,3.905 -6.864,18.441 -6.864,18.441c0,0 0.634,-1.918 1.572,-4.335l-0.298,1.068c-2.64,5.632 -3.707,16.302 -3.707,19.101c0,12.666 10.284,22.95 22.95,22.95c12.666,0 22.95,-10.284 22.95,-22.95c0,-0.289 0.146,-1.95 0.146,-1.95l-0.247,0.731c1.058,-3.512 1.389,-8.087 1.49,-10.698l0.387,-1.356l0.485,-1.824c0.821,-2.537 1.32,-4.401 1.32,-4.401c0,0 -2.913,8.531 -5.653,11.646c1.979,-2.456 4.551,-10.213 5.964,-14.835c1.112,-5.677 1.42,-14.963 1.42,-14.963c0,0 0.021,0.562 0.021,0.801c0,-5.617 0.485,-10.136 0.485,-16c0,-8.731 -0.485,-17.16 -0.485,-25.697c0,0.232 -0.023,0.907 -0.023,0.907c0,0 0.249,-12.99 -0.686,-16.162c-0.58,-1.967 -1.335,-3.678 -2.189,-5.159c-0.951,-3.402 -2.128,-6.765 -3.447,-8.777c2.401,3.561 5.358,11.774 5.358,11.774c0,0 -3.539,-12.19 -6.515,-16.403c2.209,3.099 4.798,10.41 4.798,10.41c0,0 0.765,-7.662 0.765,-10.044c0,-11.932 0.97,-22.32 0.97,-33.94c0,-2.809 -0.518,-10.7 -0.518,-10.7c0,0 -0.536,2.15 -1.066,3.607c1.666,-4.882 2.048,-17.911 2.048,-17.911c0,0 0.02,0.534 0.02,0.762c0,-3.94 0.485,-7.296 0.485,-11.151l-0.056,-2.123c0.481,-3.194 0.82,-6.281 0.82,-6.281c0,0 -0.421,2.121 -0.95,4.293c0.324,-1.651 0.542,-3.46 0.689,-5.178c0.342,-0.891 0.626,-1.819 0.862,-2.779c0.919,-3.725 -0.375,-13.938 -0.72,-16.458c0.966,-3.768 1.835,-8.881 1.877,-13.628c0.058,-6.44 -1.444,-12.138 -2.745,-15.042c-0.026,-0.312 -0.746,-9.008 -0.746,-12.623c0,-3.949 -0.097,-9.327 -0.842,-14.095c0.204,-3.295 0.556,-10.885 -0.263,-13.936c-0.24,-0.892 -0.519,-1.755 -0.848,-2.583c-0.304,-3.006 -0.766,-5.937 -1.44,-7.286c0.273,0.546 0.577,1.395 0.816,2.123l0.44,1.409c0,0 -0.184,-0.637 -0.44,-1.409c-0.526,-1.675 -1.513,-4.615 -2.768,-7.591c-1.068,-4.122 -2.744,-8.651 -5.256,-11.163c-8.957,-8.956 -23.5,-8.956 -32.456,0c-7.742,7.742 -8.792,19.658 -3.144,28.53Zm42.404,267.992c-1.428,4.675 -3.48,10.429 -5.35,12.298c2.788,-2.787 4.456,-8.282 5.35,-12.298Zm-42.765,-9.922c-1.636,3.697 -1.928,10.619 -1.928,10.619c0,0 0.446,-5.187 1.928,-10.619Zm46.09,-3.604c-0.272,1.416 -0.598,2.608 -0.982,3.375c0.808,-1.615 2.042,-6.943 2.042,-6.943c0,0 -0.407,1.457 -1.06,3.568Zm-43.117,-13.671l-0.119,0.522l0.143,-0.616l-0.024,0.094Zm0.349,-1.367l-0.121,0.474l0.256,-0.916l-0.135,0.442Zm0.366,-1.202l-0.029,0.094l0.057,-0.166l-0.028,0.072Zm1.338,-42.446c0.867,2.125 1.84,3.992 2.842,4.995c-0.886,-0.886 -1.883,-2.777 -2.842,-4.995Zm35.753,-26.936l0.071,0.095l-0.047,-0.067l-0.024,-0.028Zm-1.03,-4.438l0.104,0.134l-0.056,-0.078l-0.048,-0.056Zm5.218,-40.255l-0.343,0.841c0.111,-0.222 0.229,-0.513 0.343,-0.841Zm-40.899,-45.86l-0.179,0.878l0.023,0.124l-0.135,0.759l-0.158,1.041l-0.349,2.066l-0.067,0.451l-0.004,0.014l-0.008,0.068l0.012,-0.082l0.072,-0.211l0.002,-0.005l0.041,-0.325l0.301,-1.976l0.051,-0.305l0.266,-1.363l-0.024,-0.132l0.176,-0.994l0.084,-0.423l-0.104,0.415Zm43.368,-8.44c-0.301,0.973 -0.604,1.756 -0.873,2.293c1.288,-2.577 2.143,-11.933 2.143,-11.933c0,0 -2.672,18.976 -6.442,22.746c2.417,-2.417 4.256,-9.108 5.172,-13.106Zm-43.21,8.208c0.257,-1.186 0.532,-2.153 0.798,-2.685c-0.165,0.33 -0.318,0.713 -0.456,1.136l-0.204,0.877l-0.138,0.672Zm5.248,-14.587l0.334,-0.365c-0.113,0.112 -0.224,0.234 -0.334,0.365Zm-4.802,-8.946c0.231,-1.227 0.509,-2.253 0.837,-2.909c-0.224,0.446 -0.615,1.541 -0.946,2.513l0.109,0.396Zm-4.15,-53.2c-0.941,-1.91 -1.59,-3.512 -1.59,-3.512c0,0 1.481,7.41 3.183,10.815c-0.675,-1.35 -1.224,-4.535 -1.593,-7.303Zm-0.139,-1.291l-0.027,-0.081l0.005,0.046l0.022,0.035l0.102,0.302l0.239,0.623l0.216,1.186c0.783,1.537 1.717,3.148 2.628,4.226c-1.08,-1.289 -2.033,-3.238 -2.844,-5.412l-0.101,-0.55l-0.057,-0.082l-0.183,-0.293Zm-0.046,-1.273l-0.365,-2.258c0,0 0.064,0.728 0.188,1.836l0.177,0.422Zm-2.329,-7.465c-0.532,-2.443 -0.804,-4.157 -0.804,-4.157c0,0 0.248,1.743 0.804,4.157Z"/><path d="M234.877,98.666c-0.088,1.183 -0.175,2.529 -0.175,3.152c0,3.882 0.718,10.799 2.011,16.24c0.166,2.383 0.476,5.519 1.044,8.246c-0.285,-1.121 -0.476,-2.001 -0.476,-2.001c0,0 -0.64,7.322 -0.64,9.515c0,11.829 -0.469,23.324 -0.482,35.272c-0.154,1.058 -0.938,6.617 -1.003,9.34c-0.069,2.866 0.223,5.54 0.772,7.956c-0.082,3.117 -0.133,8.506 0.331,10.608c0.123,0.557 0.261,1.098 0.416,1.624l-0.034,1.14c0,1.558 -0.228,6.572 -0.228,6.572c0,0 0.301,-0.936 0.632,-1.843c-1.729,5.121 -1.959,14.696 -1.959,14.696c0,0 0.077,-0.758 0.244,-1.865c-0.703,5.781 -0.573,12.08 -0.573,12.08c0,0 0.672,-5.967 1.883,-8.389c-1.816,3.632 -2.4,17.46 -2.4,17.46c0,0 -0.023,-0.648 -0.023,-0.893c0,3.823 -0.804,9.868 -0.533,14.762c0.286,5.164 1.47,9.745 3.162,13.326l0.661,2.78c0.496,1.873 0.481,1.815 1.002,3.624l0.546,1.715c-1.632,-3.968 -3.119,-8.174 -3.119,-8.174c0,0 -0.265,3.797 -0.265,4.452c0,4.427 0.97,9.188 0.97,14.06c0,2.755 1.111,10.946 1.261,12.036c-1.024,5.928 -1.08,13.173 -1.082,14.066c-0.681,4.641 -0.779,9.422 -0.779,9.422c0,0 0.688,-6.694 2.053,-9.424c-0.932,1.864 -1.64,7.603 -2.05,11.835c-0.272,0.781 -0.512,1.606 -0.72,2.474c-0.869,3.631 -1.107,10.687 -1.107,12.925c0,12.666 10.283,22.95 22.95,22.95c12.666,0 22.95,-10.284 22.95,-22.95l0.044,-1.905c0.267,-0.789 0.499,-1.618 0.694,-2.485c0.578,-2.568 0.452,-11.049 0.452,-11.049c0,0 -0.215,1.214 -0.542,2.76c0.563,-3.492 0.784,-7.237 0.861,-9.044c0.433,-3.403 0.606,-6.898 0.675,-9.165c1.001,-3.196 1.556,-6.842 1.514,-10.773c-0.041,-3.97 -1.204,-11.719 -1.288,-12.27c-0.064,-4.664 -0.956,-9.217 -0.956,-13.463c0,0.279 -0.031,1.097 -0.031,1.097c0,0 -0.002,-10.544 -0.761,-13.121l-0.266,-0.798c-0.122,-2.083 -0.394,-4.911 -0.995,-7.51c0.057,-0.85 0.599,-9.15 0.599,-12.153c0,-1.135 -0.305,-4.794 -0.305,-4.794c0,0 -0.183,1.089 -0.473,2.519c0.75,-5.079 0.761,-10.952 0.74,-12.797c0.223,-1.672 0.365,-3.314 0.458,-4.691c1.364,-5.974 2.004,-13.738 2.004,-18.055c0,-2.916 0.041,-8.272 -0.698,-11.305c-0.172,-0.709 -0.369,-1.392 -0.589,-2.049c-0.309,-4.769 -0.959,-12.071 -2.106,-14.365c0.948,1.897 1.892,7.594 1.892,7.594c0,0 1.016,-7.347 1.016,-9.936c0,-12.167 0.485,-23.85 0.485,-35.879c0,-3.191 0.872,-9.582 0.425,-13.794c-0.213,-2.012 -0.598,-3.872 -1.097,-5.561c-0.256,-3.151 -0.756,-7.167 -1.686,-9.896c0.345,0.938 0.664,1.928 0.664,1.928c0,0 -0.245,-3.569 -0.245,-4.677c0,0.24 -0.022,0.802 -0.022,0.802c0,0 -0.422,-12.73 -2.056,-17.492c0.521,1.423 1.054,3.531 1.054,3.531c0,0 0.539,-8.184 0.539,-11.083c0,-10.159 -1.94,-21.67 -1.94,-31.515c0,-12.667 -10.283,-22.95 -22.95,-22.95c-12.666,0 -22.95,10.283 -22.95,22.95c0,9.845 1.94,21.356 1.94,31.515c0,3.597 -0.727,9.206 -0.461,13.76c0.153,2.615 0.545,5.077 1.121,7.33Zm45.072,224.555l-0.316,0.74c0.111,-0.223 0.218,-0.471 0.316,-0.74Zm-43.453,-59.134l0.194,0.917l0.146,0.617c-1.605,-3.864 -1.834,-10.373 -1.834,-10.373c-0,0 0.323,4.116 1.494,8.839Zm43.218,-8.95c-0.881,-3.94 -2.517,-9.139 -5.35,-11.971c1.672,1.671 3.16,5.756 4.314,9.893c0.369,0.647 0.719,1.338 1.036,2.078Zm-1.276,-25.35l-0.259,0.598c0.09,-0.181 0.177,-0.381 0.259,-0.598Zm0.08,-144.676c-0.114,-0.324 -0.23,-0.611 -0.339,-0.829l0.339,0.829Z"/><path d="M163.409,175.738c-3.887,-7.158 -11.471,-12.021 -20.182,-12.021c-7.801,0 -14.434,1.114 -20.93,4.362c-7.649,3.825 -12.269,12.156 -14.418,18.603c-6.687,20.061 5.532,36.19 20.721,43.784c12.108,6.055 28.3,2.099 38.164,-10.648c9.252,-11.954 9.204,-28.324 3.316,-37.154c-1.825,-2.739 -4.098,-5.058 -6.671,-6.926Zm-0.204,23.694l-0.005,0.065l0.004,-0.031l0.001,-0.034Z"/><path d="M172.022,268.333c0.301,-1.478 0.458,-3.009 0.458,-4.575c0,-12.667 -10.283,-22.95 -22.95,-22.95c-15.416,0 -24.128,5.558 -33.39,17.907c-8.068,10.757 -11.34,28.648 0.677,40.665c9.345,9.344 24.303,15.332 37.644,8.662c6.7,-3.35 15.76,-14.874 17.811,-21.027c-0.694,2.083 -4.915,8.188 -4.915,8.188c0,0 6.923,-15.444 4.665,-26.87Z"/></svg>