<?xml version="1.0" encoding="UTF-8" standalone="no"?><!DOCTYPE svg PUBLIC "-//W3C//DTD SVG 1.1//EN" "http://www.w3.org/Graphics/SVG/1.1/DTD/svg11.dtd"><svg width="100%" height="100%" viewBox="0 0 301 400" version="1.1" xmlns="http://www.w3.org/2000/svg" xmlns:xlink="http://www.w3.org/1999/xlink" xml:space="preserve" xmlns:serif="http://www.serif.com/" style="fill-rule:evenodd;clip-rule:evenodd;stroke-linejoin:round;stroke-miterlimit:2;"><path d="M199.959,70.115c-1.198,-0.227 -2.434,-0.342 -3.696,-0.342c-11.557,0 -20.878,7.892 -24.095,17.932c-3.695,11.529 0.464,23.902 12.111,29.725c7.591,3.796 16.615,3.563 24.224,0.391c7.707,-3.213 13.143,-9.394 15.118,-13.343c1.849,-3.7 3.226,-10.053 2.371,-15.212c-0.788,-4.752 -2.953,-8.874 -6.174,-12.095c-2.122,-2.122 -5.344,-4.079 -8.666,-5.739c-2.766,-1.384 -7.191,-1.551 -11.193,-1.317Z"/><path d="M186.888,142.238c-7.4,3.912 -12.862,11.331 -12.862,21.927c0,6.84 3.39,12.894 8.584,16.568c0.491,0.497 1.031,0.988 1.615,1.472c3.579,2.961 9.736,5.896 13.603,6.532c8.26,1.357 14.473,-1.732 18.6,-5.86c1.266,-1.266 3.62,-4.398 4.361,-5.402c2.722,-3.108 5.555,-8.172 5.005,-15.344c-0.192,-2.504 -1.351,-6.749 -2.573,-9.367c-0.406,-0.87 -0.838,-1.658 -1.274,-2.363c-3.034,-9.817 -13.078,-15.949 -23.37,-13.89c-3.746,0.749 -7.96,2.812 -11.689,5.727Z"/><path d="M179.053,218.546c-2.94,3.144 -6.181,8.776 -5.589,16.277c0.475,6.025 5.275,13.65 6.507,14.882c2.211,2.211 9.048,6.993 15.701,8.254c5.51,1.045 10.874,0.273 15.48,-2.03c8.714,-4.356 13.768,-12.595 14.486,-20.634c0.578,-6.466 -1.117,-13.469 -7.273,-19.625c-2.642,-2.642 -5.658,-4.438 -9.009,-5.404c-4.77,-2.601 -10.566,-3.289 -16.123,-1.437c-9.374,3.125 -13.592,8.858 -14.18,9.717Zm29.68,27.695l-0.023,0.011l-0.514,0.548c0.176,-0.177 0.356,-0.363 0.537,-0.559Z"/><path d="M185.49,327.828c4.606,4.254 10.806,6.439 17.929,5.365c5.625,-0.848 12.097,-5.33 13.724,-6.756c1.374,-1.309 5.423,-5.323 6.962,-8.4c4.307,-8.614 1.758,-20.434 -4.535,-27.494c-0.231,-0.606 -0.495,-1.207 -0.792,-1.801c-5.011,-10.021 -17.214,-14.089 -27.235,-9.078c-3.695,1.847 -11.384,7.263 -15.023,13.172c-2.79,4.531 -4.019,9.417 -3.817,14.216c0.226,5.369 2.029,11.021 7.268,16.261c1.282,1.282 4.729,3.917 5.519,4.515Zm31.653,-1.391l-0.46,0.438c0,-0 0.477,-0.419 0.714,-0.656l-0.254,0.218Zm4.233,-19.301c-0.065,1.234 -0.24,2.439 -0.521,3.603c0.276,-1.084 0.459,-2.28 0.521,-3.603Zm0.003,-0.06c0.018,-0.332 0.026,-0.673 0.026,-1.023l-0.026,1.023Z"/><path d="M241.822,96.695c-0.177,1.139 -0.992,6.531 -1.052,9.316c-0.069,3.228 0.351,6.227 1.121,8.875c0.133,2.107 0.378,4.784 0.825,7.16c-0.218,-0.983 -0.345,-1.72 -0.345,-1.72c0,-0 -0.064,1.82 -0.064,2.676c0,2.757 0.491,10.463 0.491,10.463c0,0 0.424,-1.61 0.844,-2.766c-1.479,4.304 -1.799,15.32 -1.799,15.32c0,0 -0.021,-0.517 -0.021,-0.741c0,2.701 0.143,10.722 0.178,12.63c-0.651,1.768 -1.165,3.834 -1.401,6.154c-0.304,2.978 0.255,7.614 0.255,9.788c0,6.256 -0.969,13.094 -0.969,19.855c0,1.488 0.2,5.17 0.2,5.17c0,0 0.761,-3.651 1.459,-5.048c-1.544,3.088 -2.115,14.84 -2.115,14.84c0,0 -0.028,-0.667 -0.028,-0.919l0,12.591c0,5.497 0.103,13.043 1.6,18.876l0.138,1.972c0.075,0.801 0.149,1.601 0.224,2.402l0.295,2.344c-0.019,0.228 -0.32,3.815 -0.32,4.914l0,17.434c0,17.379 0.484,35.131 0.484,52.784c0,2.945 0.275,11.008 0.368,13.601c-1.221,6.387 0.638,13.247 5.578,18.187c7.922,7.922 20.786,7.922 28.709,0c1.826,-1.827 4.625,-5.195 5.776,-10.964c0.643,-3.222 0.169,-15.47 0.169,-20.824c0,-17.653 -0.484,-35.405 -0.484,-52.784l0,-17.434c0,0.204 -0.018,0.683 -0.018,0.683c0,0 -0.4,-13.091 -2.125,-16.541c0.885,1.771 1.582,6.022 1.582,6.022c0,0 -0.245,-7.561 -1.525,-12.712c0.011,-0.417 0.149,-5.754 0.149,-7.96l0,-12.591c0,-0.577 -0.096,-1.967 -0.168,-2.912c0.555,-3.791 0.652,-7.898 0.652,-11.131c0,-6.761 0.969,-13.599 0.969,-19.855c0,-0.939 -0.178,-3.405 -0.304,-4.993c0.659,-2.287 1.143,-4.888 1.37,-7.702c0.432,-5.347 -0.098,-12.151 -0.098,-15.877c0,-0.548 -0.071,-1.644 -0.147,-2.638c0.537,-2.062 0.902,-4.317 1.048,-6.713c0.259,-4.273 -0.416,-9.521 -0.416,-12.925c0,-3.29 -0.229,-6.874 -0.985,-10.133c-0.094,-1.747 -0.271,-3.99 -0.592,-6.154l0.031,0.167c0,0 1.061,-7.243 1.061,-9.545l0,-33.414c0,-11.204 -9.096,-20.3 -20.3,-20.3c-11.204,0 -20.3,9.096 -20.3,20.3l0,32.772Zm1.854,33.912l0.289,-0.702c-0.092,0.184 -0.191,0.428 -0.289,0.702Z"/></svg>