<?xml version="1.0" encoding="UTF-8" standalone="no"?><!DOCTYPE svg PUBLIC "-//W3C//DTD SVG 1.1//EN" "http://www.w3.org/Graphics/SVG/1.1/DTD/svg11.dtd"><svg width="100%" height="100%" viewBox="0 0 301 400" version="1.1" xmlns="http://www.w3.org/2000/svg" xmlns:xlink="http://www.w3.org/1999/xlink" xml:space="preserve" xmlns:serif="http://www.serif.com/" style="fill-rule:evenodd;clip-rule:evenodd;stroke-linejoin:round;stroke-miterlimit:2;"><path d="M107.675,69.045c-0.632,-0.887 -1.347,-1.732 -2.143,-2.528c-7.922,-7.922 -20.786,-7.922 -28.708,0c-2.751,2.751 -9.191,11.301 -10.516,18.66c-1.448,8.044 0.517,15.547 6.642,21.671c1.683,1.684 3.268,3.269 5.326,5.327c3.017,3.016 7.348,5.559 13.102,6.069c4.389,0.39 11.973,-1.877 13.721,-2.751c3.701,-1.85 9.569,-6.362 12.602,-12.016c3.513,-6.551 4.488,-14.209 0.351,-22.483c-1.88,-3.759 -3.698,-6.624 -5.74,-8.665c-1.41,-1.41 -2.987,-2.481 -4.637,-3.284Zm-12.646,37.004c4.711,0.518 8.575,-0.333 8.575,-0.333c0,0 -4.379,0.399 -8.575,0.333Zm20.332,-27.363c0.933,2.322 1.444,4.858 1.444,7.513c0,-3.228 -0.634,-5.655 -1.444,-7.513Z"/><path d="M110.927,140.277c-5.499,-6.4 -14.663,-8.921 -22.93,-5.614c-9.037,3.615 -11.133,6.39 -16.5,11.758c-5.629,5.629 -7.244,12.193 -5.897,19.243c0.754,3.941 6.411,12.188 6.411,12.188c0,-0 -1.958,-2.797 -2.38,-3.64c2.342,4.684 8.159,10.826 15.55,13.549c9.047,3.333 19.313,2.45 27.615,-5.852c1.117,-1.117 8.623,-11.563 9.498,-17.923c1.064,-7.732 -1.532,-13.958 -6.108,-18.534c-1.283,-1.283 -2.269,-2.269 -3.874,-3.874c-0.466,-0.466 -0.929,-0.899 -1.385,-1.301Zm-9.48,33.247c-0.31,0.377 -0.542,0.786 -0.885,1.208c0.325,-0.371 0.619,-0.776 0.885,-1.208Zm-18.16,-5.678c0.556,1.397 1.274,2.703 2.155,3.91c0.671,0.434 1.146,0.636 1.146,0.636c-0,-0 -1.444,-1.901 -3.301,-4.546Zm27.318,-0.248l-0.714,0.751c0.25,-0.25 0.488,-0.5 0.714,-0.751Zm3.604,-5.646c-0.853,2.019 -2.051,3.925 -3.59,5.631c1.79,-1.965 2.883,-3.887 3.59,-5.631Z"/><path d="M82.79,280.823c-8.817,2.164 -15.095,8.098 -18.335,14.839c-4.54,9.444 -4,21.452 5.589,31.041c2.535,2.535 11.154,7.017 19.283,7.094c8.203,0.078 14.78,-3.732 17.658,-6.61c2.358,-2.358 5.503,-5.988 7.748,-8.232c0.708,-0.708 6.051,-7.844 6.051,-16.049c0,-8.206 -5.343,-15.341 -6.051,-16.05c-2.63,-2.63 -8.048,-6.575 -13.756,-8.416c-6.833,-2.204 -13.865,-1.766 -19.846,1.224c1.803,-0.901 7.638,-1.979 7.638,-1.979c0,0 -2.579,1.161 -5.979,3.138Zm12.658,36.34c1.375,-0.222 2.702,-0.616 3.84,-1.185c-0.753,0.376 -2.112,0.75 -3.61,1.077l-0.061,0.031l-0.169,0.077Z"/><path d="M133.765,69.249c0.339,1.807 0.771,3.768 1.314,5.65c-0.981,-2.607 -1.703,-4.84 -1.703,-4.84c-0,0 -0.997,7.106 -0.997,8.391c-0,5.842 -0.484,11.271 -0.484,16.95c-0,1.322 0.158,4.378 0.193,5.042c-0.835,4.235 -1.139,8.98 -1.139,8.98c-0,0 0.724,-4.326 1.636,-6.152c-0.821,1.643 -1.397,5.916 -1.741,9.391c-0.266,0.661 -0.499,1.357 -0.706,2.084c-1.007,3.536 -1.149,9.799 -1.149,13.1c-0,7.744 0.485,15.809 0.485,23.245c-0,3.84 -1.236,9.589 -1.107,14.489c0.096,3.688 0.692,7.145 1.73,10.235c0.117,1.298 0.289,2.751 0.525,4.169c-0.097,-0.504 -0.15,-0.825 -0.15,-0.825c-0,0 0.153,3.378 0.674,7.084c-0.061,0.755 -0.22,2.845 -0.22,3.589c-0,2.225 0.082,9.007 0.082,9.007c-0,0 0.296,-0.97 0.617,-1.865c-1.098,3.309 -1.371,8.84 -1.421,12.412c-1.302,5.101 -1.624,10.517 -1.292,16.032c0.324,5.366 1.53,10.862 1.53,15.745c-0,22.886 4.358,44.102 4.358,66.828c-0,8.115 -0.968,14.869 -0.968,22.761c-0,2.138 -0.287,4.391 -0.418,6.451c-0.362,1.504 -0.551,3.073 -0.551,4.687c-0,7.972 3.496,11.591 4.416,12.75c2.975,3.746 6.452,5.681 9.778,6.734c4.478,1.417 9.212,1.416 14.147,-0.706c2.227,-0.958 7.811,-3.393 10.903,-11.277c0.422,-1.075 1.841,-7.788 1.841,-10.407c-0,-2.487 0.484,-5.457 0.484,-8.232c-0,-7.892 0.968,-14.646 0.968,-22.761c-0,-22.726 -4.358,-43.942 -4.358,-66.828c-0,-4.265 -0.586,-8.898 -1.151,-13.592c-0.332,-2.764 -1.206,-5.582 -0.375,-8.076c0.914,-2.74 0.853,-8.586 0.732,-11.819c1.08,-5.924 1.278,-13.407 1.278,-17.844c-0,0.251 -0.028,0.919 -0.028,0.919c-0,0 -0.571,-11.753 -2.115,-14.841c0.902,1.804 1.61,6.11 1.61,6.11c-0,0 -0.198,-4.169 -0.852,-8.309c-0.13,-2.117 -0.457,-6.066 -1.187,-9.207c0.044,-0.386 1.12,-9.925 1.12,-13.413c-0,-7.436 -0.485,-15.501 -0.485,-23.245l-0.011,-2.161c0.226,-0.589 0.423,-1.203 0.596,-1.839c0.59,-2.158 0.635,-8.044 0.632,-9.905c0.294,-1.895 0.479,-3.685 0.587,-4.9c0.956,-4.396 1.102,-9.675 1.102,-13.64c-0,-5.302 0.422,-10.386 0.473,-15.791c0.287,-2.124 1.141,-8.873 0.894,-11.682c-0.185,-2.102 -0.61,-3.999 -1.197,-5.7c-0.204,-2.759 -0.598,-5.925 -1.357,-8.144c0.2,0.547 0.362,1.043 0.362,1.043c-0,0 -0.144,-7.298 -0.144,-10.09c-0,-11.204 -9.096,-20.3 -20.3,-20.3c-11.203,0 -20.3,9.096 -20.3,20.3c-0,6.877 0.496,17.784 2.839,24.213Zm36.189,261.236c2.022,2.968 3.277,6.499 3.479,10.307c-0.231,-5.463 -2.197,-8.647 -3.479,-10.307Zm-21.271,-8.393c-4.018,0.742 -9.054,2.899 -12.581,8.809c2.834,-4.397 7.321,-7.628 12.581,-8.809Zm19.952,-108.672l-0.22,0.501c0.076,-0.153 0.15,-0.32 0.22,-0.501Zm-35.737,-19.745c0.058,0.146 0.115,0.278 0.172,0.391l-0.172,-0.391Zm35.767,-25.907c-0.078,-0.208 -0.163,-0.4 -0.25,-0.575l0.25,0.575Zm-0.547,-5.955c-0.063,-0.163 -0.126,-0.309 -0.188,-0.431l0.188,0.431Zm0.961,-40.795l-0.18,0.409c0.06,-0.12 0.12,-0.258 0.18,-0.409Zm-35.685,-53.915c-0.472,-2.926 -0.662,-5.053 -0.662,-5.053c0,-0 0.197,2.53 0.662,5.053Zm37.709,-13.572c-0.094,-0.242 -0.187,-0.464 -0.267,-0.624l0.267,0.624Z"/><path d="M191.143,64.063l0.276,1.216l0.315,1.283c-0.086,0.873 -0.759,7.803 -0.759,9.951c0,8.397 -0.484,17.09 -0.484,25.182c0,3.276 1.09,7.478 0.073,10.53c-1.41,4.228 -1.894,8.99 -1.694,13.961c0.08,1.982 0.304,5.5 0.395,6.889c-0.65,1.737 -1.16,3.751 -1.397,6.003c-0.286,2.721 0.214,9.175 0.214,9.175c0,0 -0.013,-0.385 -0.013,-0.553c0,2.802 0.5,7.312 -0.411,10.045c-0.769,2.308 -0.832,6.963 -0.777,10.008c-1.123,5.856 -1.457,12.772 -1.508,14.03c-0.678,2.907 -1.009,7.209 -1.128,9.112c-2.175,7.818 -1.987,17.178 -1.987,25.57c0,3.779 0.206,8.5 1.148,12.51c0.195,1.715 0.554,4.383 1.104,6.827c0.084,1.423 0.367,5.215 1.037,8.855c0.08,3.242 0.363,7.733 1.265,10.589c-0.273,-0.8 -0.498,-1.598 -0.498,-1.598c0,0 -0.182,6.314 -0.182,8.822c0,11.084 2.906,23.254 2.906,35.351c0,1.772 0.378,5.313 0.601,7.187c-0.515,1.895 -0.865,4.093 -0.884,6.488c-0.023,2.96 0.581,6.381 1.323,9.171c-0.283,2.186 -0.853,6.982 -0.771,9.497c0.071,2.182 0.362,4.276 0.872,6.268c-0.085,1.122 -0.173,2.438 -0.173,3.035l0,3.39c0,10.768 8.408,19.663 19.159,20.268c9.574,0.539 18.039,-5.662 20.626,-14.584c1.494,-3.973 1.692,-8.324 0.599,-12.4c-0.257,-4.144 -0.817,-10.312 -1.927,-12.532c0.837,1.674 1.421,5.693 1.421,5.693c0,0 1.023,-7.254 0.926,-10.527c-0.07,-2.357 -0.399,-4.608 -0.984,-6.734c0.31,-1.586 0.489,-3.232 0.537,-4.927c0.087,-3.064 -0.725,-6.559 -0.725,-9.293c0,-12.097 -2.906,-24.267 -2.906,-35.351c0,-5.436 -0.044,-12.972 -1.386,-18.944c-0.091,-2.859 -0.357,-6.395 -1.022,-8.963c0.43,1.468 0.715,2.986 0.715,2.986c0,0 -0.261,-5.861 -1.35,-10.864c-0.16,-1.465 -0.472,-3.954 -0.959,-6.367c0.034,-0.722 0.128,-2.844 0.128,-3.853c0,-4.74 -1.016,-10.121 0.411,-14.404c0.994,-2.981 1.407,-8.97 1.513,-10.849c1.103,-5.488 1.247,-14.505 1.247,-14.505l-0.238,0.82c0.743,-2.787 1.026,-6.68 1.127,-9.632c1.444,-6.217 1.751,-14.632 1.751,-20.195c0,-0.707 -0.11,-2.317 -0.211,-3.62c0.914,-3.079 1.379,-6.374 1.436,-9.822c0.051,-3.076 -0.357,-9.041 -0.454,-10.378c1.878,-6.661 1.651,-15.302 1.651,-22.185c0,-8.092 0.484,-16.785 0.484,-25.182c0,-2.508 0.845,-7.173 0.757,-10.984c-0.115,-4.955 -1.256,-9.334 -2.9,-12.622c0.493,0.987 1.488,4.329 1.488,4.329c0,0 -4.113,-12.623 -6.487,-15.606c1.093,1.278 3.063,4.466 3.063,4.466c0,0 -1.248,-5.375 -1.248,-6.871c0,-11.204 -9.096,-20.3 -20.3,-20.3c-11.204,0 -20.3,9.096 -20.3,20.3c0,4.744 1.752,15.868 4.079,21.767c0.437,1.108 0.914,2.132 1.416,3.071Zm36.816,253.942l-0.464,1.001c0.152,-0.305 0.31,-0.638 0.464,-1.001Zm0.424,-9.993c-0.156,-0.361 -0.301,-0.661 -0.404,-0.868l0.404,0.868Zm-4.311,-74.293l0.18,0.585l-0.084,-0.306l-0.096,-0.279Zm-0.141,-0.411c-0.098,-0.275 -0.203,-0.525 -0.31,-0.74l0.31,0.74Zm-31.047,-162.791l0.012,0.028l-0.045,-0.124l0.033,0.096Zm-0.238,-0.684l0.024,0.068l-0.072,-0.235l0.048,0.167Z"/><path d="M245.827,70.979c-0.388,2.333 -0.455,5.374 -0.441,7.552c-0.475,3.516 -0.493,7.266 -1.553,10.449c-3.273,9.819 -4.916,23.129 -4.916,33.538c0,3.463 0.554,12.719 0.691,14.917c-1.077,2.744 -1.741,5.791 -1.944,9.074c-0.169,2.737 0.192,8.353 0.283,9.677c-0.955,5.31 -0.65,13.484 -0.499,16.335c-0.882,2.579 -1.489,5.712 -1.563,9.197c-0.071,3.39 0.61,7.727 0.61,10.05c0,12.51 -1.358,28.309 1.76,40.247c0.106,2.936 0.395,6.734 1.125,9.463l-0.256,-0.889c0,0 0.313,7.829 1.634,14.167c-0.164,2.888 -0.379,8.73 0.258,12.445c-0.011,0.313 -0.162,4.483 -0.162,6.407c0,5.094 0.484,10.186 0.484,15.496c0,16.754 0.484,35.776 0.484,50.848c0,11.203 9.096,20.3 20.3,20.3c11.204,0 20.3,-9.097 20.3,-20.3c0,-15.072 -0.484,-34.094 -0.484,-50.848c0,-5.31 -0.484,-10.402 -0.484,-15.496c0,-4.502 0.14,-9.765 -0.721,-14.374c0.062,-3.417 0.02,-10.2 -1.08,-14.596l0.134,0.463c0,0 -0.294,-7.288 -1.502,-13.483c0.053,-3.047 -0.014,-7.657 -0.779,-9.95c-2.831,-8.495 -0.411,-20.539 -0.411,-29.9c0,-1.579 -0.341,-5.88 -0.52,-7.992c0.829,-2.551 1.311,-5.248 1.466,-8.065c0.178,-3.209 -0.396,-9.685 -0.523,-11.049c0.818,-4.496 0.767,-11.59 0.703,-14.467c1.08,-3.073 1.797,-6.707 1.996,-10.692c0.282,-5.646 -0.7,-12.661 -0.7,-16.985c0,-6.415 0.815,-14.647 2.832,-20.699c1.487,-4.462 0.925,-10.039 2.421,-14.528c0.727,-2.179 0.871,-6.125 0.867,-8.937c0.698,-4.14 0.659,-8.882 0.659,-12.979c0,-9.197 -1.278,-18.07 -2.697,-26.582c-1.842,-11.051 -12.31,-18.528 -23.361,-16.686c-11.052,1.842 -18.529,12.31 -16.687,23.361c1.063,6.379 2.145,13.015 2.145,19.907c0,1.784 0.114,5.686 0.114,5.686l0.017,-0.082Zm-4.562,197.378c0.048,0.2 0.098,0.389 0.146,0.532l-0.146,-0.532Z"/><path d="M72.588,214.051c-1.464,1.09 -2.825,2.278 -3.837,3.49c-3.806,4.558 -5.483,9.791 -5.26,15.227c0.187,4.555 1.56,9.926 6.836,15.202c3.12,3.12 13.109,7.281 17.945,7.281c6.821,0 10.116,-0.99 12.877,-2.208c2.72,-1.2 5.268,-2.851 9.427,-7.01c1.865,-1.865 3.923,-4.607 5.098,-8.619c0.536,-1.83 0.69,-9.564 0.69,-9.564c-0,-0 0.041,0.952 0.041,1.206c-0,-6.624 -3.346,-14.342 -9.199,-19.153c-6.929,-5.694 -16.308,-7.799 -25.896,-3.005c-1.98,0.99 -5.719,3.873 -5.719,3.873c-0,0 1.538,-1.056 2.329,-1.451c-1.483,0.741 -3.464,2.658 -5.332,4.731Z"/></svg>