<?xml version="1.0" encoding="UTF-8" standalone="no"?><!DOCTYPE svg PUBLIC "-//W3C//DTD SVG 1.1//EN" "http://www.w3.org/Graphics/SVG/1.1/DTD/svg11.dtd"><svg width="100%" height="100%" viewBox="0 0 301 401" version="1.1" xmlns="http://www.w3.org/2000/svg" xmlns:xlink="http://www.w3.org/1999/xlink" xml:space="preserve" xmlns:serif="http://www.serif.com/" style="fill-rule:evenodd;clip-rule:evenodd;stroke-linejoin:round;stroke-miterlimit:2;"><path d="M132.568,79.29c-5.693,7.302 -7.29,16.227 -2.537,25.733c1.594,3.188 8.619,12.326 15.19,14.996c8.17,3.319 16.64,2.838 24.448,-4.969c1.837,-1.838 8.701,-8.866 10.643,-15.085c2.584,-8.274 1.455,-16.495 -5.788,-23.739c-0.329,-0.328 -2.451,-1.979 -5.279,-3.755c-2.738,-2.423 -6.15,-4.101 -9.918,-4.718c-4.45,-1.263 -8.59,-1.252 -11.491,-0.677c-5.313,1.054 -9.365,3.739 -12.343,7.443c-1.108,1.378 -2.127,2.95 -2.925,4.771Z"/><path d="M130.894,152.014c-1.484,3.053 -2.136,6.41 -1.959,9.731c-0.195,3.781 0.194,7.557 1.095,10.653c1.319,4.529 3.639,8.101 6.156,10.618c2.971,2.971 10.778,6.195 10.778,6.195c0,0 -0.804,-0.309 -1.237,-0.526c3.534,1.767 9.512,3.025 14.985,2.081c4.973,-0.857 9.325,-3.263 12.355,-6.294c2.863,-2.863 7.915,-9.614 9.472,-16.216c1.369,-5.808 0.806,-11.617 -1.86,-16.95c-3.845,-7.69 -11.417,-12.144 -19.573,-13.717c-2.431,-1.064 -5.115,-1.652 -7.936,-1.652c-9.669,0 -18.344,5.645 -22.276,16.077Z"/><path d="M128.455,224.924c-0.513,1.165 -0.945,2.358 -1.281,3.564c-2.682,9.597 -0.463,18.845 6.099,25.407c1.308,1.308 9.605,6.929 16.461,7.993c7.658,1.189 14.08,-1.228 18.528,-5.185c2.541,-2.051 9.416,-7.847 11.645,-12.024c4.939,-9.258 4.622,-18.631 -3.927,-27.18c-4.957,-4.958 -8.641,-5.948 -14.881,-9.068c-1.447,-0.724 -6.166,-2.384 -10.097,-2.642c-4.086,-0.267 -7.707,0.605 -10.231,1.695c-7.75,3.346 -11.928,9.244 -12.316,17.44Zm32.791,18.768l-0.633,0.337c0.188,-0.094 0.402,-0.206 0.633,-0.337Zm4.724,-8.289c-1.116,2.147 -2.612,4.064 -4.401,5.662c1.851,-1.47 3.319,-3.203 4.4,-5.187l0.002,-0.463l-0.001,-0.012Z"/><path d="M139.728,283.386c-1.747,1.333 -5.463,4.252 -6.853,5.98c-3.255,4.047 -4.883,8.572 -5.032,13.44c-0.133,4.338 0.623,9.889 5.724,15.808c3.546,5.463 9.7,9.075 16.69,9.075c0.828,0 1.645,-0.05 2.445,-0.155c1.247,0.011 2.499,-0.076 3.746,-0.25c6.286,-0.875 11.975,-4.178 15.163,-7.365c0.656,-0.656 5.294,-6.388 6.482,-11.408c1.753,-7.413 -0.11,-14.246 -5.511,-19.648l-0.611,-0.59c-1.429,-2.896 -3.586,-5.485 -6.418,-7.467c-8.169,-5.718 -19.158,-4.438 -25.825,2.58Z"/><path d="M197.452,75.706c-0.053,0.769 -0.1,1.574 -0.1,1.97l0,12.136c0,9.554 -1.966,19.982 -4.26,29.157c-1.219,4.874 -0.723,10.174 -1.942,15.05c-1.068,4.27 -0.594,10.107 -0.594,14.535c0,7.578 0.485,15.093 0.485,22.818c0,1.743 0.52,7.81 0.52,7.81c0,0 0.184,-0.851 0.451,-1.908c-0.785,3.782 -0.977,8.566 -1.022,10.841c-0.317,2.1 -0.482,4.199 -0.568,5.757c-1.533,7.248 -1.494,19.369 0.11,26.375c0.029,2.249 0.223,8.648 1.279,13.59c-0.059,2.02 -0.148,8.365 0.575,13.859l-0.163,-0.866c0,0 -0.211,2.888 -0.211,3.674l0,12.136c0,7.545 -0.035,18.482 2,26.048c0.021,1.925 0.157,7.54 0.903,11.513c-0.108,1.386 -0.488,6.662 -0.311,9.322c0.134,2.021 0.448,3.974 0.95,5.85c-0.073,1.002 -0.143,2.108 -0.143,2.611c0,6.148 -0.971,11.884 -0.971,17.963l0,7.282c0,10.99 8.909,19.9 19.9,19.9c5.619,0 11.702,-2.074 16.288,-8.217c2.644,-3.542 4.583,-12.41 4.583,-14.111c0,-2.117 -0.332,-4.158 -0.949,-6.072c0.103,-5.631 0.949,-11.009 0.949,-16.745c0,0.21 -0.02,0.712 -0.02,0.712c0,0 -0.439,-12.637 -2.081,-15.922c0.656,1.312 1.215,4.308 1.215,4.308c0,0 0.458,-9.504 -0.61,-15.216c-0.01,-1.795 -0.144,-10.188 -1.468,-14.158c-1.367,-4.101 -0.435,-10.672 -0.435,-15.068l0,-12.136c0,0.221 -0.02,0.768 -0.02,0.768c0,0 -0.71,-11.782 -2.081,-14.523c0.708,1.416 1.302,4.781 1.302,4.781c0,0 0.382,-10.003 -0.951,-16.922c0.038,-1.897 0.125,-10.853 -1.213,-14.866c0.066,0.199 0.191,0.666 0.191,0.666l-0.003,-7.173c0.951,-3.616 0.897,-10.032 0.887,-10.772l0.221,-2.253c0.052,-0.801 0.104,-1.602 0.155,-2.403l0.02,-0.504c0.393,-1.375 0.693,-2.883 0.863,-4.509c0.365,-3.501 -0.342,-8.867 -0.342,-11.422c0,-7.725 -0.485,-15.24 -0.485,-22.818c0,-1.657 -0.222,-5.175 -0.296,-6.276c0.842,-4.48 0.54,-9.243 1.644,-13.656c3.05,-12.203 5.448,-26.104 5.448,-38.81l0,-12.136c0,0.231 -0.025,0.856 -0.025,0.856c0,0 -0.499,-9.857 -1.743,-13.744l0.013,-0.043c0.326,0.836 0.694,1.896 0.694,1.896l-0.256,-3.333c1.504,-5.381 2.288,-11.617 2.288,-17.188c0,-10.983 -8.917,-19.9 -19.9,-19.9c-10.983,0 -19.9,8.917 -19.9,19.9c0,2.226 -0.239,4.772 -0.92,6.815c-0.931,2.792 -1.684,8.763 -1.241,14.691c0.214,2.857 0.701,5.664 1.29,8.08Zm31.09,123.313l-0.287,0.671c0.102,-0.203 0.199,-0.429 0.287,-0.671Zm-36.104,-16.629l0.219,-0.499c-0.076,0.152 -0.15,0.319 -0.219,0.499Zm42.939,-117.697c-0.123,-0.319 -0.24,-0.6 -0.325,-0.772c0.112,0.225 0.219,0.498 0.316,0.815l0.009,-0.043Z"/><path d="M250.714,64.295c-2.388,10.277 -1.328,24.437 1.12,34.228c1.658,6.633 1.348,15.608 1.348,22.36c0,12.007 -0.188,24.7 -2.527,36.391c-0.97,4.853 -1.062,9.935 -0.836,15.062c0.146,3.308 0.845,6.656 0.073,9.744c-1.306,5.223 -0.594,12.505 -0.594,17.935c0,7.77 -0.486,15.847 -0.486,23.788c0,12.319 -1.132,24.566 -3.497,36.391c-1.288,6.44 -0.641,13.151 -2.22,19.466c-0.401,1.605 -0.494,4.286 -0.489,6.335c-1.42,8.42 -1.237,23.111 1.297,31.49c0.195,1.238 0.543,3.263 1.016,5.294c0.111,2.925 0.443,7.985 1.395,11.379c-0.372,-1.125 -0.702,-2.264 -0.702,-2.264l-0.07,7.695c-0.64,5.794 1.262,11.816 5.701,16.255c7.766,7.766 20.376,7.766 28.143,0c0.401,-0.402 5.028,-4.119 5.795,-12.651c0.198,-2.19 0.566,-11.156 -0.084,-16.293c-0.202,-1.598 -0.509,-3.051 -0.873,-4.336c-0.136,-2.962 -0.484,-7.38 -1.342,-10.475c0.352,1.129 0.605,2.196 0.605,2.196c0,0 -0.839,-6.137 -2.168,-9.964l0.021,0.057c0,0 -0.257,-8.685 0.367,-11.181c0.391,-1.564 0.489,-4.151 0.491,-6.179c1.151,-6.234 0.887,-12.734 2.144,-19.018c2.873,-14.363 4.27,-29.234 4.27,-44.197c0,-7.941 0.486,-16.018 0.486,-23.788c0,-2.516 -0.347,-8.15 -0.408,-9.112c1.101,-4.79 1.322,-9.808 1.142,-14.899c-0.13,-3.681 -0.848,-7.431 -0.15,-10.925c2.841,-14.203 3.3,-29.608 3.3,-44.196c0,-9.68 -0.159,-22.504 -2.536,-32.013c-1.119,-4.477 -2.127,-10.97 -0.971,-15.592c0.959,-3.838 0.973,-10.962 0.941,-13.534c3.848,-8.996 0.556,-19.689 -8.067,-24.863c-9.418,-5.65 -21.652,-2.592 -27.302,6.826c-2.48,4.133 -3.756,8.443 -4.226,12.918c-0.308,2.929 -0.138,8.736 -0.107,9.67Zm31.899,246.932l0.05,0.154l-0.037,-0.117l-0.013,-0.037Zm-0.184,-0.501c-0.093,-0.25 -0.191,-0.478 -0.287,-0.67l0.287,0.67Z"/></svg>