<?xml version="1.0" encoding="UTF-8" standalone="no"?><!DOCTYPE svg PUBLIC "-//W3C//DTD SVG 1.1//EN" "http://www.w3.org/Graphics/SVG/1.1/DTD/svg11.dtd"><svg width="100%" height="100%" viewBox="0 0 301 401" version="1.1" xmlns="http://www.w3.org/2000/svg" xmlns:xlink="http://www.w3.org/1999/xlink" xml:space="preserve" xmlns:serif="http://www.serif.com/" style="fill-rule:evenodd;clip-rule:evenodd;stroke-linejoin:round;stroke-miterlimit:2;"><path d="M238.457,101.91c-1.846,1.025 -3.6,2.378 -5.234,4.084c-2.787,2.912 -5.755,8.285 -6.551,14.2c-0.779,5.781 0.591,11.54 2.21,14.778c4.384,8.768 13.101,13.922 23.984,13.568c8.94,-0.291 18.675,-5.652 21.71,-8.686c3.811,-3.812 6.036,-8.63 6.305,-14.332c0.197,-4.194 -3.299,-12.92 -3.727,-13.967c-2.223,-3.854 -7.989,-9.192 -7.989,-9.192c0,0 0.38,0.343 0.556,0.52c-7.794,-7.795 -18.964,-8.78 -28.351,-3.095c-1.04,0.629 -2.013,1.341 -2.913,2.122Zm7.129,38.701c-3.816,-0.782 -7.451,-2.655 -10.409,-5.612c3.517,3.516 7.055,5.115 10.409,5.612Zm31.568,-29.056l0.319,0.578c-0.092,-0.183 -0.36,-0.682 -0.36,-0.682l0.041,0.104Z"/><path d="M275.558,200.449c0.422,-0.841 0.787,-1.724 1.093,-2.643c3.605,-10.812 -2.248,-22.516 -13.06,-26.12c-7.03,-2.344 -13.818,-1.527 -19.943,1.463c-4.194,2.048 -8.005,5.487 -10.413,7.895c0.342,-0.342 1.232,-1.121 1.232,-1.121c0,0 -13.91,16.561 -7.527,29.326c2.773,5.547 4.042,7.969 7.266,11.193c5.204,5.203 12.935,7.823 21.249,6.188c8.127,-1.598 15.401,-8.311 17.589,-12.264c2.729,-4.931 3.324,-9.638 2.514,-13.917Zm-31.413,21.285c2.337,1.367 5.413,2.329 9.518,2.329c-3.433,0 -6.671,-0.84 -9.518,-2.329Z"/><path d="M251.789,255.935l-0.068,-0.001l-0.099,0.002l-0.49,0.003l-0.35,0.018l-0.105,0.003l-0.138,0.011l-0.397,0.021l-0.319,0.033l-0.176,0.014l-0.203,0.025l-0.283,0.03l-0.262,0.04l-0.268,0.034l-0.268,0.048l-0.174,0.026l-0.186,0.038l-0.371,0.066l-0.321,0.074l-0.083,0.017l-0.104,0.027l-0.474,0.109l-0.353,0.101l-0.018,0.004l-0.026,0.008c-1.57,0.434 -3.062,1.058 -4.452,1.841l-0.018,0.01l-0.045,0.026l-0.54,0.311l-0.196,0.126l-0.057,0.034l-0.154,0.101l-0.417,0.268l-0.143,0.102l-0.1,0.066l-0.275,0.2l-0.278,0.198l-0.094,0.074l-0.142,0.104l-0.385,0.311l-0.146,0.114l-0.05,0.043l-0.181,0.146l-0.466,0.415l-0.039,0.034l-0.015,0.014c-1.181,1.071 -2.243,2.291 -3.155,3.641l-0.015,0.022l-0.01,0.016l-0.207,0.303l-0.254,0.415l-0.057,0.09l-0.043,0.074l-0.055,0.09c-1.013,1.432 -2.271,3.845 -2.694,7.628c-1.398,9.082 3.754,15.151 4.573,16.125c6.035,7.171 13.281,8.375 20.341,6.655c3.384,-0.824 7.681,-2.602 11.359,-7.438c0.578,-0.76 3.569,-3.663 4.088,-10.491c0.248,-2.172 0.098,-4.154 -0.27,-5.914l-0.053,-0.295l-0.074,-0.321l-0.017,-0.084l-0.026,-0.103l-0.11,-0.474l-0.1,-0.353l-0.005,-0.018l-0.007,-0.026c-0.434,-1.57 -1.058,-3.062 -1.842,-4.452l-0.009,-0.018l-0.027,-0.045l-0.311,-0.54l-0.125,-0.196l-0.034,-0.057l-0.102,-0.154l-0.267,-0.417l-0.102,-0.144l-0.066,-0.1l-0.201,-0.275l-0.197,-0.277l-0.074,-0.094l-0.104,-0.143l-0.311,-0.385l-0.114,-0.145l-0.043,-0.05l-0.147,-0.181l-0.414,-0.466l-0.034,-0.04l-0.014,-0.014c-1.071,-1.182 -2.291,-2.244 -3.642,-3.155l-0.021,-0.015l-0.016,-0.01l-0.303,-0.207l-0.415,-0.254l-0.09,-0.058l-0.074,-0.042l-0.281,-0.172l-0.331,-0.18l-0.164,-0.095l-0.157,-0.08l-0.239,-0.13l-0.244,-0.118l-0.235,-0.12l-0.26,-0.118l-0.184,-0.088l-0.163,-0.069l-0.293,-0.132l-0.369,-0.146l-0.128,-0.053l-0.099,-0.036l-0.325,-0.129l-0.464,-0.157l-0.094,-0.034l-0.064,-0.019l-0.321,-0.109l-0.503,-0.143l-0.11,-0.034l-0.07,-0.017l-0.28,-0.08l-0.473,-0.109l-0.18,-0.045l-0.106,-0.021l-0.223,-0.052l-0.392,-0.07l-0.283,-0.056l-0.162,-0.023l-0.162,-0.029l-0.286,-0.037l-0.394,-0.057l-0.228,-0.022l-0.108,-0.013l-0.184,-0.015l-0.483,-0.045l-0.291,-0.013l-0.072,-0.006l-0.115,-0.003l-0.523,-0.023l-0.338,0.001Zm19.804,16.179l0.082,0.402l0.064,0.36l0.082,0.536l0.069,0.545l0.039,0.379l0.055,0.716l0.013,0.243l0.021,0.84l0.001,0.164l-0.024,0.921c-0.082,1.807 -0.416,3.633 -1.016,5.433c0.501,-1.502 0.806,-2.937 0.952,-4.299l0.05,-0.61l0.014,-0.524l0.026,-0.58l-0.002,-0.341l0.002,-0.065l-0.003,-0.099l-0.002,-0.491l-0.019,-0.349l-0.002,-0.105l-0.011,-0.138l-0.021,-0.397l-0.034,-0.319l-0.013,-0.177l-0.026,-0.202l-0.029,-0.284l-0.04,-0.261l-0.034,-0.268l-0.048,-0.268l-0.027,-0.175l-0.037,-0.185l-0.014,-0.076l-0.061,-0.301l-0.007,-0.025Zm-39.551,-0.871l0.043,-0.166l0.136,-0.479l0.22,-0.713l0.055,-0.164l0.286,-0.79l0.089,-0.226l0.279,-0.663l0.157,-0.346l0.238,-0.495l0.247,-0.483l0.175,-0.322l0.315,-0.546l-0.018,0.025l-0.117,0.191l-0.18,0.33l-0.094,0.165l-0.081,0.157l-0.13,0.239l-0.117,0.244l-0.121,0.235l-0.117,0.26l-0.089,0.184l-0.068,0.162l-0.133,0.293l-0.146,0.37l-0.053,0.127l-0.036,0.099l-0.128,0.326l-0.158,0.464l-0.033,0.093l-0.022,0.071l-0.107,0.315l-0.113,0.398l-0.076,0.247l-0.06,0.232l-0.024,0.086l-0.019,0.08l-0.158,0.612c-0.069,0.329 -0.139,0.659 -0.208,0.988l-0.106,0.66l-0.11,1.293l-0.009,0.348c0.071,-1.339 0.271,-2.643 0.591,-3.901Z"/><path d="M236.982,255.869c-6.442,4.553 -9.077,11.744 -9.371,16.532c-0.361,5.887 0.989,15.454 13.09,21.504c4.322,2.161 9.357,2.963 14.771,1.769c4.343,-0.958 9.617,-3.918 13.154,-7.383c7.822,-7.662 7.52,-17.849 6.792,-20.962c-0.923,-3.945 -2.826,-7.186 -5.459,-9.819c-1.045,-1.045 -4.266,-2.724 -7.188,-4.124c-3.179,-2.075 -6.975,-3.278 -11.05,-3.278c-7.277,0 -11.852,2.658 -14.739,5.761Zm24.678,32.234c-2.936,1.66 -6.328,2.605 -9.939,2.605c3.753,-0 6.728,-0.766 9.079,-1.876l0.736,-0.615l0.124,-0.114Zm10.361,-17.695l-0.02,-0.804c0.028,0.592 0.03,1.179 0.007,1.761l-0.005,-0.229l0.018,-0.728Zm-0.831,-5.745l0.186,0.655l-0.015,-0.066l-0.171,-0.589Zm-3.174,-6.355c1.341,1.8 2.39,3.83 3.076,6.02c-0.575,-1.917 -1.521,-3.967 -3.076,-6.02Zm-0.413,-0.529l0.353,0.449l-0.151,-0.203l-0.202,-0.246Zm-0.448,-0.543l0.062,0.071l-0.022,-0.027l-0.04,-0.044Z"/></svg>