<?xml version="1.0" encoding="UTF-8" standalone="no"?><!DOCTYPE svg PUBLIC "-//W3C//DTD SVG 1.1//EN" "http://www.w3.org/Graphics/SVG/1.1/DTD/svg11.dtd"><svg width="100%" height="100%" viewBox="0 0 301 401" version="1.1" xmlns="http://www.w3.org/2000/svg" xmlns:xlink="http://www.w3.org/1999/xlink" xml:space="preserve" xmlns:serif="http://www.serif.com/" style="fill-rule:evenodd;clip-rule:evenodd;stroke-linejoin:round;stroke-miterlimit:2;"><path d="M114.648,147.79c-0.206,0.413 -0.394,0.83 -0.57,1.246c-2.379,5.629 -2.524,11.961 -0.119,18.054c4.707,11.926 21.591,21.466 36.153,14.186c4.14,-2.071 9.924,-8.662 11.569,-10.605c4.221,-4.456 6.391,-10.221 5.468,-17.156c-0.406,-3.048 -1.761,-6.998 -4.254,-10.473c-2.74,-3.82 -6.858,-6.769 -8.899,-7.79c-3.898,-1.949 -16.435,-4.98 -23.486,-2.941c-7.945,2.296 -13.889,7.035 -15.862,15.479Z"/><path d="M132.425,225.113c-7.387,0.975 -12.234,4.834 -15.484,9.244c-4.611,6.253 -6.164,15.694 -2.475,24.392c5.206,12.273 19.018,21.381 35.16,13.31c4.067,-2.034 8.177,-4.762 10.616,-7.201c7.563,-7.563 8.916,-18.738 4.18,-28.252c-4.425,-8.888 -13.923,-14.17 -21.932,-14.17c-3.663,0 -7.1,0.972 -10.065,2.677Z"/><path d="M186.035,71.55c-1.556,3.961 -2.589,11.129 -2.66,11.627c-1.629,6.669 -1.559,16.973 -1.559,16.973c0,0 0.414,-2.097 0.933,-3.56c-1.497,4.431 -1.801,16.194 -1.801,16.194c0,0 -0.016,-0.449 -0.016,-0.64c0,4.253 -0.486,8.652 -0.486,12.622c0,1.02 0.147,3.223 0.24,4.467c-1.313,6.619 -0.725,14.872 -0.725,21.263c0,3.719 -0.121,9.729 1.042,13.216c1.02,3.063 -0.091,6.609 -0.216,10.074c-0.192,5.332 0.085,10.579 1.288,15.524c-0.003,2.494 0.115,5.749 0.626,7.972c0.013,0.473 0.178,6.046 0.477,8.816c0.305,2.813 0.879,5.509 1.757,8.038l0.112,1.273l0.127,1.051c0.035,1.089 0.179,4.26 0.626,7.465c-0.135,1.768 -0.545,8.132 -0.073,12.732c-0.029,0.852 -0.247,8.322 0.666,11.973c1.508,6.032 1.335,14.172 1.335,20.322c0,3.616 0.422,7.839 0.795,12.161c0.232,2.683 0.971,5.464 0.247,7.635c-1.695,5.084 -1.43,16.274 -1.373,18.059c-0.781,3.69 -0.863,9.239 -0.852,11.88c-0.887,2.74 -1.458,6.001 -1.508,9.602c-0.04,2.934 0.418,8.07 0.656,10.502c-1.269,6.421 0.583,13.336 5.554,18.307c7.922,7.922 20.786,7.922 28.708,0c2.69,-2.69 5.812,-7.271 6.376,-14.321c0.233,-2.913 -0.584,-12.646 -0.687,-13.849c1.03,-4.875 1.223,-10.991 1.255,-13.167c1.035,-5.423 0.876,-13.602 0.814,-15.613c2.482,-9.255 0.615,-22.035 0.615,-31.196c0,-8.646 -0.274,-19.901 -2.202,-28.681c0.016,-1.837 -0.018,-5.959 -0.493,-9.486c0.094,-2.768 0.184,-9.322 -0.661,-14.237c0.38,1.967 0.572,3.735 0.572,3.735c0,0 -0.083,-3.094 -0.496,-6.547c-0.044,-1.318 -0.329,-7.802 -1.506,-11.989c-0.016,-0.394 -0.312,-7.348 -1.21,-12.622c0.025,-2.896 -0.087,-7.258 -0.871,-9.609c-1.045,-3.133 0.042,-6.716 0.171,-10.177c0.199,-5.325 -0.069,-10.534 -1.243,-15.408c0.078,-1.122 0.172,-2.659 0.172,-3.435c0,-3.507 -0.337,-11.533 -0.364,-12.189c1.034,-3.808 0.849,-9.786 0.849,-13.541c0,-3.97 0.486,-8.369 0.486,-12.622c0,-1.041 -0.252,-4.136 -0.327,-5.012c0.757,-4.966 0.882,-10.556 0.897,-12.705c0.834,-2.972 1.433,-6.458 1.7,-8.171c2.909,-8.075 3.07,-20.645 3.07,-29.456c0,-11.204 -9.096,-20.3 -20.3,-20.3c-11.204,0 -20.3,9.096 -20.3,20.3c0,4.179 -0.222,14.077 -0.237,14.75Zm0.15,167.805c0.048,0.212 0.102,0.408 0.158,0.577l-0.158,-0.577Zm1.047,-9.39c0.068,0.178 0.139,0.342 0.212,0.489l-0.212,-0.489Zm-0.523,-6.397c0.079,0.208 0.163,0.401 0.25,0.575l-0.25,-0.575Zm36.82,-16.99c-0.08,-0.215 -0.167,-0.413 -0.257,-0.592l0.257,0.592Zm-40.762,-110.04l0.308,-0.754c-0.106,0.211 -0.211,0.469 -0.308,0.754Z"/><path d="M237.757,64.919c0.184,3.466 1.431,6.863 1.431,10.329c0,7.678 2.5,16.395 0.071,23.68c-1.64,4.92 -1.469,15.416 -1.399,17.877c-4.649,14.804 -4.983,31.101 -4.983,47.285c0,7.086 -0.656,16.685 1.36,23.334c-0.039,0.654 -0.354,5.931 -0.57,8.723c-0.414,5.356 -0.271,10.592 0.842,15.433c-0.083,3.022 -0.066,7.97 0.728,10.868c0.004,0.289 0.055,4.494 0.053,6.67c-0.006,5.139 0.509,10.143 2.027,14.697c0.862,2.585 0.374,5.55 0.496,8.433c0.17,4.036 0.599,8.02 1.548,11.826c-0.004,2.857 0.15,6.711 0.869,8.87c1.73,5.19 -0.071,13.178 -0.071,18.825c0,6.855 -0.485,13.81 -0.485,20.39c0,1.67 0.244,5.917 0.244,5.917c0,-0 0.171,-0.785 0.422,-1.75c-0.459,2.067 -0.718,4.509 -0.861,6.658l-0.046,0.139c-0.594,2.018 -0.695,10.538 -0.695,10.538c0,-0 -0.035,-0.877 -0.035,-1.113c0,4.155 0.971,8.523 0.971,12.137c0,11.204 9.096,20.3 20.3,20.3c11.204,-0 20.3,-9.096 20.3,-20.3c0,-3.614 -0.971,-7.982 -0.971,-12.137c0,-0.487 -0.182,-3.204 -0.182,-3.204c0,-0 -0.712,2.053 -1.662,4.577l0.303,-1.211c0.126,-0.578 0.253,-1.156 0.379,-1.733l0.276,-1.426c1.714,-5.018 1.857,-12.363 1.857,-17.392c0,-6.58 0.485,-13.535 0.485,-20.39c0,-8.402 0.704,-19.83 -1.142,-28.409c0.01,-2.876 -0.133,-6.868 -0.87,-9.081c-0.884,-2.652 -0.416,-5.649 -0.535,-8.528c-0.204,-4.965 -0.794,-9.809 -2.233,-14.301l-0.05,-6.63c0.003,-3.991 -0.308,-7.907 -1.171,-11.601c0.083,-2.985 0.069,-7.859 -0.698,-10.775c0.031,-0.523 0.354,-5.914 0.573,-8.75c0.482,-6.244 0.206,-12.328 -1.482,-17.815c0.039,-0.997 0.326,-8.486 0.326,-11.789c0,-12.258 -0.388,-24.671 3.328,-35.817c1.623,-4.87 1.45,-15.446 1.384,-17.839c3.204,-10.968 1.599,-23.793 1.599,-35.186c0,-3.595 -1.342,-7.116 -1.445,-10.716c1.169,-5.345 0.187,-11.143 -3.195,-15.975c-6.425,-9.178 -19.093,-11.414 -28.272,-4.989c-3.365,2.356 -6.028,5.594 -7.667,9.778c-1.196,3.052 -1.439,11.118 -1.452,11.573Zm41.02,262.535c0.463,-2.515 0.658,-5.03 0.658,-5.03c-0,-0 -0.189,2.116 -0.658,5.03Zm-41.022,-262.571l-0.023,-0.801c-0,0.267 0.007,0.534 0.023,0.801l0.001,0.056l0.001,-0.02l-0.002,-0.036Z"/></svg>