<?xml version="1.0" encoding="UTF-8" standalone="no"?><!DOCTYPE svg PUBLIC "-//W3C//DTD SVG 1.1//EN" "http://www.w3.org/Graphics/SVG/1.1/DTD/svg11.dtd"><svg width="100%" height="100%" viewBox="0 0 301 401" version="1.1" xmlns="http://www.w3.org/2000/svg" xmlns:xlink="http://www.w3.org/1999/xlink" xml:space="preserve" xmlns:serif="http://www.serif.com/" style="fill-rule:evenodd;clip-rule:evenodd;stroke-linejoin:round;stroke-miterlimit:2;"><path d="M177.602,134.905c-5.591,3.612 -9.292,9.901 -9.292,17.048c0,1.092 0.086,2.165 0.255,3.209c-0.167,1.843 -0.202,3.562 0.042,4.682c0.888,4.064 2.817,7.515 5.648,10.347c3.35,3.35 10.004,8.206 16.695,9.798c8.475,2.018 17.143,0.608 24.636,-6.885c1.305,-1.305 3.026,-3.955 4.127,-5.768c4.88,-5.891 5.808,-12.579 3.483,-19.755c-1.39,-4.291 -11.055,-13.654 -11.055,-13.654c0,0 1.654,1.395 1.989,1.73c-3.328,-3.328 -7.832,-5.796 -13.638,-6.393l-0.477,-0.022c-6.722,-1.668 -14.422,-0.291 -20.621,4.204c-0.631,0.458 -1.231,0.942 -1.792,1.459Zm-7.843,12.373l0.015,-0.044l0.202,-1.002l-0.217,1.046Z"/><path d="M217.148,231.527c-0.096,-4.07 -1.418,-8.149 -4.045,-11.651c-6.723,-8.963 -19.457,-10.783 -28.42,-4.06c-5.292,3.968 -8.499,7.724 -11.884,11.109c-2.517,2.517 -5.525,6.86 -6.127,13.291c-0.46,4.913 1.94,14.229 2.81,15.968c1.649,3.299 8.161,11.742 15.84,15.234c9.377,4.265 19.609,4.095 28.808,-5.104c8.794,-8.794 9.19,-24.329 4.33,-32.754c-0.411,-0.713 -0.845,-1.392 -1.312,-2.033Z"/><path d="M237.274,87.753c0.065,3.604 0.38,9.777 1.652,13.406l-0.151,-0.406c0,0 0.413,8.048 0.413,10.906c0,2.836 0.249,9.771 0.272,10.398c-1.5,5.531 -1.503,14.514 -1.434,17.973c-2.287,7.273 -2.236,17.085 -2.236,24.545c0,3.501 0.197,7.715 0.999,11.433c0.094,1.162 0.23,2.536 0.424,3.939c0.012,1.701 0.123,6.92 0.845,11.244c-0.11,-0.56 -0.17,-0.927 -0.17,-0.927c0,0 0.013,5.6 0.72,10.828c0.055,1.065 0.179,2.877 0.414,4.861c0.02,0.435 0.355,7.175 1.596,11.415l-0.379,-1.228c0,0 -0.08,6.028 -0.08,8.148c0,1.319 0.16,4.446 0.16,4.446c0,0 0.253,-1.252 0.615,-2.594c-1.087,4.725 -0.963,11.936 -0.845,14.996c-0.686,4.371 -0.855,8.852 -0.855,8.852l0.094,-0.525c-0.21,1.304 -0.364,2.628 -0.476,3.826c-1.263,3.668 -1.88,7.68 -1.941,11.899c-0.035,2.396 0.109,6.81 0.164,8.32c-1.069,2.769 -1.833,6.284 -1.916,10.255c-0.074,3.519 0.631,8.029 0.631,10.433c0,8.771 0.807,19.494 3.968,27.477c0.211,2.204 0.719,6.652 1.618,10.375l-0.114,2.29c-0.031,0.735 -0.061,1.469 -0.091,2.203l-0.013,0.591l-0.272,1.2l0,0.002l-0.043,0.144l-0.166,0.689l-0.021,0.082l-0.004,0.02l-0.045,0.188l-0.106,0.563l-0.03,0.148l-0.009,0.057l-0.041,0.216l-0.061,0.444l-0.032,0.203l-0.012,0.113l-0.031,0.226l-0.03,0.336l-0.026,0.243l-0.012,0.19l-0.019,0.218l-0.009,0.241l-0.017,0.268l-0.005,0.285l-0.007,0.192l0.001,0.159l-0.004,0.277l0.011,0.402l0.002,0.146l0.005,0.089l0.007,0.271l0.041,0.55l0.004,0.069l0.003,0.03c0.186,2.272 0.758,4.48 1.669,6.534l0.009,0.023l0.024,0.05l0.233,0.512l0.128,0.252l0.032,0.068l0.055,0.103l0.189,0.372l0.153,0.272l0.062,0.115l0.072,0.122l0.151,0.268l0.18,0.288l0.097,0.163l0.079,0.12l0.117,0.186l0.207,0.302l0.139,0.21l0.076,0.104l0.084,0.121l0.236,0.314l0.186,0.253l0.065,0.08l0.051,0.068l0.268,0.325l0.238,0.293l0.045,0.05l0.02,0.024l0.315,0.349l0.282,0.315l0.291,0.294l0.348,0.352l0.017,0.016l0.045,0.045l0.284,0.26l0.318,0.294l0.06,0.052l0.077,0.069l0.254,0.211l0.302,0.256l0.113,0.087l0.107,0.088l0.22,0.164l0.283,0.219l0.175,0.122l0.136,0.102l0.183,0.123l0.258,0.18l0.246,0.157l0.164,0.11l0.147,0.088l0.222,0.141l0.327,0.188l0.19,0.114l0.115,0.061l0.175,0.1l0.41,0.211l0.222,0.118l0.087,0.041l0.115,0.059l0.459,0.21l0.285,0.133l0.066,0.027l0.05,0.023l0.452,0.182c0.628,0.259 1.264,0.477 1.906,0.66l0.295,0.089l0.032,0.008l0.095,0.028l0.458,0.11l0.312,0.078l0.074,0.015l0.135,0.033l0.386,0.073l0.304,0.061l0.125,0.02l0.169,0.032l0.319,0.044l0.29,0.045l0.181,0.02l0.197,0.027l0.255,0.022l0.27,0.03l0.249,0.016l0.213,0.019l0.194,0.007l0.248,0.016l0.331,0.007l0.213,0.008l0.137,-0.001l0.22,0.004l0.438,-0.011l0.188,-0.002l0.083,-0.005l0.19,-0.004l0.592,-0.041l0.114,-0.007l0.033,-0.004c1.936,-0.16 3.836,-0.601 5.639,-1.299l0.014,-0.005l0.026,-0.011l0.517,-0.204l0.321,-0.144l0.037,-0.015l0.045,-0.021l0.412,-0.184l0.367,-0.184l0.058,-0.027l0.052,-0.028l0.323,-0.161l0.409,-0.228l0.078,-0.042l0.051,-0.03l0.244,-0.136l0.45,-0.277l0.096,-0.057l0.043,-0.029l0.174,-0.107l0.492,-0.334l0.109,-0.072l0.032,-0.024l0.111,-0.075l0.544,-0.406l0.105,-0.077l0.018,-0.015l0.056,-0.042l0.665,-0.543l0.027,-0.023l0.002,-0.001c0.238,-0.204 0.472,-0.414 0.701,-0.629l0.035,-0.031l0.298,-0.296l0.302,-0.296l0.035,-0.037l0.072,-0.072l0.303,-0.331l0.216,-0.232l0.051,-0.061l0.106,-0.115l0.268,-0.325l0.173,-0.203l0.068,-0.088l0.132,-0.161l0.224,-0.3l0.145,-0.187l0.087,-0.123l0.151,-0.203l0.176,-0.263l0.125,-0.178l0.11,-0.173l0.159,-0.237l0.128,-0.214l0.111,-0.174l0.026,-0.054c0.271,-0.439 0.521,-0.896 0.756,-1.366c0.361,-0.721 0.977,-2.252 0.977,-2.252l-0.147,0.276c0.5,-1.069 0.946,-2.076 1.058,-2.468c0.635,-2.208 0.859,-4.2 0.836,-5.954c0.23,-1.464 0.39,-2.907 0.39,-4.021c0,-4.904 -0.135,-12.007 -1.487,-17.099c-0.22,-2.5 -1.136,-11.388 -3.083,-15.282c-1.583,-3.165 -0.77,-8.017 -0.77,-11.797c0,-1.66 -0.361,-6.234 -0.545,-8.407c1.209,-3.594 1.798,-7.512 1.86,-11.622c0.04,-2.703 -0.147,-7.949 -0.178,-8.76c0.863,-3.27 1.227,-7.733 1.363,-9.989c0.665,-4.314 0.837,-8.706 0.837,-8.706c0,-0 -0.291,1.781 -0.741,3.525c1.029,-4.348 1.005,-10.899 0.906,-14.319c0.719,-3.846 0.867,-8.162 0.867,-11.63c0,-4.772 -0.221,-12.383 -1.489,-18.18c-0.081,-0.874 -0.187,-1.87 -0.324,-2.905c-0.062,-1.386 -0.26,-4.597 -0.762,-7.682c-0.007,-1.155 -0.091,-6.424 -0.789,-11.206c-0.019,-1.785 -0.132,-5.877 -0.647,-9.639c0.186,1.136 0.275,1.949 0.275,1.949c0,-0 -0.18,-5.167 -1.011,-9.51c0.163,0.721 0.259,1.226 0.259,1.226c0,-0 0.119,-2.624 0.119,-3.766c0,-3.232 -0.065,-10.5 -0.073,-11.383c1.831,-5.506 1.803,-15.652 1.725,-19.157c1.867,-6.695 1.746,-15.905 1.746,-22.376c0,-6.059 -0.527,-15.922 -2.431,-22.955c-0.037,-2.568 -0.204,-6.54 -0.777,-9.957c0.239,1.066 0.391,1.869 0.391,1.869c0,-0 0.39,-4.494 0.39,-5.853c0,-7.416 -1.412,-16.356 -4.57,-22.672c-5.011,-10.021 -17.215,-14.089 -27.236,-9.078c-10.021,5.01 -14.089,17.214 -9.078,27.235c0.618,1.235 0.284,3.064 0.284,4.515c0,-0.162 0.012,-0.53 0.012,-0.53c0,-0 -0.537,6.735 -0.235,9.585c0.149,1.406 0.403,2.721 0.736,3.935Zm5.331,246.59l0.594,-1.079l-0.114,-0.049l-0.48,1.128Zm34.81,-72.919l-0.255,0.585c0.089,-0.177 0.175,-0.374 0.255,-0.585Zm-35.816,-26.295l0.218,-0.5c-0.075,0.151 -0.149,0.318 -0.218,0.5Zm-1.012,-21.778c0.081,0.216 0.169,0.416 0.259,0.597l-0.259,-0.597Zm-0.508,-5.886c0.088,0.239 0.183,0.459 0.282,0.657l-0.282,-0.657Zm37.792,-5.828c-0.073,-0.181 -0.148,-0.351 -0.226,-0.506l0.226,0.506Zm-0.468,-5.291c-0.077,-0.201 -0.159,-0.387 -0.243,-0.555l0.243,0.555Zm-38.719,-10.091c0.07,0.184 0.144,0.354 0.22,0.506l-0.22,-0.506Zm36.826,-16.966c-0.091,-0.249 -0.189,-0.479 -0.292,-0.685l0.292,0.685Z"/></svg>