<?xml version="1.0" encoding="UTF-8" standalone="no"?><!DOCTYPE svg PUBLIC "-//W3C//DTD SVG 1.1//EN" "http://www.w3.org/Graphics/SVG/1.1/DTD/svg11.dtd"><svg width="100%" height="100%" viewBox="0 0 301 401" version="1.1" xmlns="http://www.w3.org/2000/svg" xmlns:xlink="http://www.w3.org/1999/xlink" xml:space="preserve" xmlns:serif="http://www.serif.com/" style="fill-rule:evenodd;clip-rule:evenodd;stroke-linejoin:round;stroke-miterlimit:2;"><path d="M196.541,96.247c-0.375,-0.023 -0.754,-0.034 -1.135,-0.034c-7.431,0 -12.586,2.794 -16.367,6.327c-4.746,4.434 -7.664,11.012 -7.595,18.428c0.076,8.233 4.779,16.722 7.666,19.609c3.014,3.014 11.947,6.291 12.722,6.571c2.305,1.118 4.718,2.052 6.638,2.268c7.689,0.864 13.386,-2.196 17.116,-5.926c1.788,-1.788 7.809,-9.847 9.356,-16.481c2.05,-8.799 -0.452,-16.432 -5.958,-21.937c-1.62,-1.62 -5.219,-3.91 -6.619,-4.774c-4.125,-2.857 -10.071,-4.491 -15.824,-4.051Zm-5.087,50.715c-3.822,-1.89 -7.249,-4.203 -7.489,-4.443c1.546,1.546 6.066,3.767 7.489,4.443Z"/><path d="M175.684,185.223l-0.458,0.437c-4.189,4.189 -6.349,9.422 -6.227,15.546c0.083,4.177 4.746,13.793 4.746,13.793c0,0 -0.684,-1.174 -0.865,-1.537c2.545,5.09 7.813,10.323 14.935,12.899c9.345,3.38 20.996,2.065 29.228,-6.167c16.657,-16.657 4.306,-34.597 -3.399,-42.301c-3.425,-3.425 -8.268,-5.983 -14.295,-6.337c-5.631,-0.33 -13.18,2.09 -17.822,6.066c-2.635,2.257 -4.558,4.856 -5.843,7.601Zm28.131,29.237c-0.39,0.093 -0.787,0.171 -1.188,0.238c0.353,-0.059 0.874,-0.049 1.188,-0.238Z"/><path d="M214.6,254.668c-2.453,-2.066 -5.896,-3.756 -9.809,-4.595c-5.666,-2.232 -12.268,-1.9 -17.887,1.471c-7.287,4.373 -12.333,7.861 -15.48,14.155c-5.303,10.605 -0.371,21.686 6.23,28.287c2.521,2.522 12.307,8.492 20.452,9.197c7.939,0.687 14.682,-2.029 19.422,-6.769c2.436,-2.436 8.11,-10.603 9.03,-17.691c0.964,-7.427 -1.118,-14.271 -6.603,-19.756c-1.187,-1.188 -4.707,-3.82 -5.355,-4.299Z"/><path d="M243.879,71.89c-1.144,4.852 -1.292,10.356 -1.292,15.495c-0,0.916 0.24,3.871 0.24,3.871c-0,0 0.115,-0.721 0.309,-1.743c-0.341,2.515 -0.491,5.115 -0.557,6.984c-1.309,5.614 -1.934,13.084 -1.934,17.103l-0,12.623c-0,0.916 0.24,3.871 0.24,3.871l0.051,-0.299c-0.497,4.221 -0.558,8.674 -0.55,10.837c-1.53,6.035 -1.683,14.281 -1.683,19.574c-0,10.909 0.485,21.242 0.485,32.041c-0,7.091 -0.468,14.641 -0.482,21.93c-0.071,0.923 -0.504,6.841 -0.226,9.462c0.22,2.071 0.668,3.947 1.243,5.598l-0.049,5.246c-0,5.985 0.485,12.634 0.485,18.933c-0,4.083 0.432,14.777 0.432,14.777c-0,0 0.118,-0.375 0.273,-0.82c-0.917,2.766 -1.254,7.124 -1.373,10.374c-2.351,9.346 -1.759,21.397 -1.759,31.013c-0,2.33 -0.611,7.119 -0.281,10.257c0.161,1.535 0.442,2.964 0.81,4.274c0.15,3.287 0.553,8.204 1.612,11.297c-0.334,-0.898 -0.665,-1.895 -0.665,-1.895c-0,0 0.466,8.464 0.466,9.079c-0,11.204 9.096,20.3 20.3,20.3c11.204,0 20.3,-9.096 20.3,-20.3c0,-1.077 -0.099,-10.35 -1.042,-15.889c-0.246,-1.45 -0.566,-2.787 -0.924,-3.985c-0.107,-2.378 -0.347,-5.579 -0.875,-8.346c0.266,1.097 0.446,1.96 0.446,1.96c0,0 0.453,-5.211 0.453,-6.752c0,-6.49 -1.563,-14.834 0.415,-20.767c0.643,-1.929 0.79,-5.553 0.786,-8.468c0.792,-2.595 1.332,-5.471 1.576,-8.54c0.458,-5.765 -0.35,-12.747 -0.35,-17.569c0,-6.299 -0.485,-12.948 -0.485,-18.933c0,-4.357 -0.233,-10.174 -1.277,-15.082c0.118,-1.411 0.306,-3.872 0.306,-4.822c0,-7.413 0.485,-15.11 0.485,-22.332c0,-10.799 -0.485,-21.132 -0.485,-32.041c0,-2.271 -0.127,-8.501 -0.127,-8.501l-0.093,0.304c1.673,-6.443 1.435,-17.209 1.435,-17.209c0,0 -0.623,3.769 -1.416,5.356c1.545,-3.09 2.115,-14.85 2.115,-14.85c0,0 0.028,0.666 0.028,0.917l0,-12.623c0,-1.542 0.282,-6.598 0.282,-6.598c0,0 -0.239,0.721 -0.506,1.433c1.734,-4.965 1.734,-14.793 1.734,-14.793c0,0 -0.592,5.437 -1.711,7.676c1.545,-3.09 2.114,-14.85 2.114,-14.85c0,0 0.029,0.666 0.029,0.917c0,-1.841 0.088,-5.507 0.096,-5.822c0.955,-3.513 0.898,-9.603 0.792,-12.722c2.178,-8.982 -2.037,-18.607 -10.653,-22.916c-10.021,-5.01 -22.225,-0.942 -27.236,9.079c-2.14,4.28 -2.334,13.061 -2.307,16.886Zm-2.801,194.895l0.254,-0.601c-0.078,0.156 -0.167,0.37 -0.254,0.601Zm39.781,-157.917l-0.301,0.703c0.088,-0.175 0.193,-0.426 0.301,-0.703Zm-36.821,-16.989l0.206,-0.465c-0.071,0.142 -0.14,0.298 -0.206,0.465Zm0.506,-8.284l0.186,-0.434c-0.062,0.124 -0.125,0.27 -0.186,0.434Z"/></svg>