<?xml version="1.0" encoding="UTF-8" standalone="no"?><!DOCTYPE svg PUBLIC "-//W3C//DTD SVG 1.1//EN" "http://www.w3.org/Graphics/SVG/1.1/DTD/svg11.dtd"><svg width="100%" height="100%" viewBox="0 0 250 400" version="1.1" xmlns="http://www.w3.org/2000/svg" xmlns:xlink="http://www.w3.org/1999/xlink" xml:space="preserve" xmlns:serif="http://www.serif.com/" style="fill-rule:evenodd;clip-rule:evenodd;stroke-linejoin:round;stroke-miterlimit:2;"><path d="M26.299,57.235c-0.504,2.029 -0.78,4.313 -0.929,6.25c-0.537,3.194 -0.963,6.791 -0.963,6.791c0,0 0.164,-0.782 0.414,-1.848c-0.809,4.56 -1.027,9.651 -1.039,9.942c-0.854,5.762 -0.825,12.496 -0.825,12.496c0,0 0.647,-3.983 1.491,-5.67c-1.639,3.278 -2.16,15.801 -2.16,15.801c0,0 -0.02,-0.529 -0.02,-0.755l0,15.981c0,18.27 -0.485,35.934 -0.485,54.237c0,3.394 0.287,12.469 0.312,13.243c-1.75,6.106 -1.863,16.033 -0.322,22.627c0.133,1.71 0.419,4.681 0.948,7.567c0.012,2.586 0.147,8.689 1.091,11.519c1.405,4.218 0.393,10.219 0.393,14.778c0,2.872 -0.104,7.026 0.313,10.54c0.01,1.361 0.085,5.144 0.503,8.387c0.011,2.012 0.133,7.973 1.064,11.308l0.057,9.958c0,3.484 0.556,11.068 1.692,16.531l0.009,0.465l0.028,0.246l-0.304,1.667c-0.105,0.685 -0.21,1.37 -0.316,2.055l-0.12,0.909c-5.135,11.555 -6.316,23.854 -6.316,37.207c0,11.397 9.253,20.65 20.65,20.65c11.397,0 20.65,-9.253 20.65,-20.65c-0,-7.621 -0.121,-14.738 3.147,-21.273c1.505,-3.01 2.414,-9.381 2.754,-12.18c0.767,-2.622 1.323,-6.013 1.17,-9.659c-0.14,-3.317 -0.872,-6.821 -1.642,-9.465c-0.016,-0.845 -0.102,-5.249 -0.102,-6.503c-0,-5.855 0.07,-13.685 -1.294,-19.811c-0.03,-1.799 -0.136,-4.764 -0.485,-7.394c-0.014,-1.384 -0.094,-4.75 -0.452,-7.76c0.055,-0.71 0.294,-3.928 0.294,-5.228c-0,-7.783 0.118,-17.705 -1.824,-25.426c-0.12,-2.225 -0.382,-5.583 -0.919,-8.554c0.113,0.55 0.174,0.909 0.174,0.909c-0,0 -0.161,-6.771 -1.113,-10.692l0.002,-1.529c1.844,-6.713 1.258,-17.789 1.258,-24.442c-0,-18.303 0.485,-35.967 0.485,-54.237l-0,-15.981c-0,-1.044 -0.276,-4.38 -0.276,-4.38l-0.072,0.401c0.588,-4.513 0.662,-9.296 0.666,-10.961c0.88,-4.776 1.087,-10.227 1.087,-10.227c-0,0 -0.724,4.467 -1.648,6.315c1.044,-2.089 2.379,-12.144 2.379,-12.144c-0,0 -0.507,1.393 -1.243,3.265l0.117,-0.423l0.024,-0.097c2.693,-6.045 2.84,-15.772 2.84,-22.596c-0,-11.397 -9.253,-20.65 -20.65,-20.65c-11.397,0 -20.65,9.253 -20.65,20.65c-0,2.13 0.136,7.102 0.157,7.84Zm1.624,240.114c0.458,-2.37 1.075,-4.788 1.852,-6.342c-0.54,1.08 -1.893,3.655 -1.941,5.911l0.072,0.359l0.017,0.072l-0.052,0.28l0.025,0.218c0.303,1.79 1.031,3.155 1.394,3.882c-0.522,-1.044 -0.978,-2.583 -1.367,-4.38Zm-3.688,-77.943c0.068,0.175 0.14,0.336 0.213,0.483l-0.213,-0.483Zm40.382,-147.478c1.301,-3.347 1.55,-8.997 1.55,-8.997c-0,0 -0.358,4.304 -1.55,8.997Z"/><path d="M84.704,70.429l-0.21,2.181c-0,0 0.237,-0.882 0.335,-1.174c-0.809,2.424 -0.925,6.869 -0.893,9.931c-0.729,3.065 -1.084,6.207 -1.221,9.391c-0.092,2.144 0.251,4.342 -0.267,6.413c-2.002,8.01 -1.379,16.655 -3.389,24.697c-3.943,15.77 -4.975,32.912 -4.975,49.561c-0,8.251 -1.071,19.519 0.708,28.052c-0.123,2.623 -0.251,7.563 0.275,11.233c0.029,1.06 0.295,9.062 1.529,12.765c1.179,3.536 0.858,7.43 1.101,11.197c0.315,4.873 0.928,9.657 2.245,14.206c0.149,2.284 0.588,7.707 1.497,10.433c3.712,11.138 2.66,24.446 6.295,35.351c1.809,5.427 0.393,12.736 0.393,18.651c-0,1.556 0.217,5.525 0.217,5.525c-0,0 0.183,-0.858 0.452,-1.902c-0.637,2.848 -0.944,6.423 -1.091,9.08c-0.858,2.616 -1.389,5.443 -1.582,8.424c-0.278,4.311 0.551,9.289 0.551,13.256c-0,-0.233 0.029,-0.967 0.029,-0.967c-0,0 -0.217,8.533 0.244,10.554c0.557,2.441 1.433,4.395 2.308,5.917c4.442,7.723 11.02,10.473 18.069,10.473c11.398,0 20.65,-9.253 20.65,-20.65c-0,-0.873 -0.054,-1.734 -0.166,-2.578c0.082,-1.072 0.166,-2.295 0.166,-2.749c-0,-3.061 -0.593,-10.075 -0.635,-10.566c0.744,-3.419 1.026,-7.823 1.13,-10.444c0.832,-4.418 0.958,-9.579 0.958,-13.373c0,-10.085 0.573,-22.456 -2.512,-31.712c-3.449,-10.347 -2.678,-22.859 -5.77,-33.623c-0.148,-2.26 -0.588,-7.725 -1.494,-10.444c-1.155,-3.465 -0.816,-7.325 -1.064,-11.1c-0.319,-4.864 -0.939,-9.671 -2.272,-14.274c-0.065,-1.686 -0.249,-5.16 -0.701,-8.206c0.163,-3.037 0.418,-10.692 -0.806,-14.362c-0.659,-1.979 -0.094,-4.581 0.05,-7.095c0.225,-3.924 0.526,-7.774 0.526,-11.072c0,-13.277 0.598,-26.968 3.741,-39.544c2.011,-8.042 1.388,-16.688 3.39,-24.697c0.93,-3.718 1.262,-7.555 1.371,-11.419c0.043,-1.516 -0.352,-3.067 0.123,-4.493c0.858,-2.573 0.936,-7.422 0.884,-10.479c0.672,-3.454 1.272,-8.244 1.184,-12.171c-0.1,-4.417 -1.074,-8.201 -2.165,-10.81l-0.018,-3.709c4.264,-9.962 0.064,-21.662 -9.756,-26.572c-10.194,-5.097 -22.608,-0.959 -27.705,9.235c-4.089,8.178 -4.503,23.648 -1.729,33.659Zm41.79,269.537l-0.215,0.504c0.071,-0.144 0.144,-0.315 0.215,-0.504Z"/><path d="M137.63,85.13c-1.018,6.171 -0.414,12.659 -1.644,18.811c-2.871,14.354 -3.307,28.66 -3.307,43.759c0,7.29 -0.658,15.809 0.878,22.907c-0.07,1.073 -0.393,6.227 -0.393,8.57c0,9.869 0.064,22.083 2.259,31.823c-0.08,1.207 -0.322,5.104 -0.322,6.918l0,23.244c0,5.257 -0.095,11.593 1.321,16.455l-0.513,7.575c-0.419,5.588 -0.195,11.048 1.174,16.08c0.051,2.492 0.311,9.832 1.499,13.394c2.095,6.286 1.845,14.204 1.845,21.072c0,8.139 -0.538,19.328 1.683,27.167l0.853,6.513c0.16,1.379 0.354,2.175 0.386,2.318c2.473,11.026 10.266,13.68 11.692,14.321c5.6,2.514 10.982,2.391 16.122,0.336c1.431,-0.572 12.986,-4.334 12.986,-19.178c0,-0.867 -0.054,-1.722 -0.164,-2.561l0.003,0.002l-0.031,-0.218l-0.046,-0.366l-0.023,-0.124c-0.347,-2.493 -1.544,-10.824 -2.252,-12.948c-1.409,-4.228 0.091,-10.668 0.091,-15.262c0,-10.552 -0.502,-22.541 -3.44,-32.449c-0.052,-2.38 -0.288,-8.84 -1.272,-12.548l0.515,-7.603c0.426,-5.685 0.187,-11.24 -1.248,-16.346c0.034,-1.114 0.119,-4.107 0.119,-5.63l0,-23.244c0,-4.735 0.526,-11.091 -0.617,-15.662c-1.73,-6.919 -1.32,-15.904 -1.32,-23.079c0,-5.349 0.67,-12.45 -0.617,-17.599c-1.057,-4.228 0.132,-9.451 0.132,-13.878c0,-12.3 0.166,-23.967 2.505,-35.66c1.269,-6.348 0.154,-13.113 1.721,-19.38c0.59,-2.358 0.582,-6.629 0.512,-9.151c2.325,-12.605 -1.348,-26.213 -1.348,-38.473c0,-11.397 -9.253,-20.65 -20.65,-20.65c-11.397,0 -20.65,9.253 -20.65,20.65c0,5.462 0.756,11.181 1.534,16.959c0.627,4.66 1.655,9.388 0.535,13.868c-0.598,2.395 -0.58,6.762 -0.508,9.267Zm18.204,242.913c-1.431,0.572 -12.985,4.332 -12.985,19.172c0,-8.687 5.377,-16.13 12.985,-19.172Z"/><path d="M191.063,112.408c-0.632,3.506 -0.732,7.122 -0.577,10.769c0.071,1.677 0.543,3.369 0.221,4.977c-1.829,9.148 -1.074,18.929 -2.905,28.087c-2.486,12.428 -2.822,26.05 -2.822,38.916c-0,6.753 -0.511,14.543 1.1,20.989c0.701,2.802 0.328,5.824 0.385,8.791c0.088,4.596 0.466,9.138 1.552,13.485c1.201,4.801 0.283,10.179 0.234,15.375c-0.063,6.648 0.49,13.128 2.336,19.116c-0.052,1.285 -0.29,7.654 -0.153,10.912c0.156,3.691 0.753,7.199 1.84,10.438c0.058,1.694 0.18,3.791 0.417,5.878c-0.117,2.549 -0.353,10.727 0.853,15.896c-0.479,-1.934 -0.73,-3.907 -0.73,-3.907c-0,0 0.233,9.694 2.289,14.606c0.02,0.474 0.53,12.682 0.53,17.09c-0,11.397 9.253,20.65 20.65,20.65c11.397,0 20.65,-9.253 20.65,-20.65c-0,-8.205 -0.132,-21.902 -3.103,-31.145c-0.113,-1.702 -0.322,-3.935 -0.691,-6.15c0.098,-2.94 0.158,-8.788 -0.591,-13.268c0.35,1.832 0.53,3.455 0.53,3.455c-0,0 0.084,-9.026 -1.366,-14.498c0.022,-0.683 0.169,-5.323 0.202,-7.754c0.066,-4.885 -0.476,-9.556 -1.852,-13.684c-1.355,-4.066 -0.455,-8.74 -0.351,-13.322c0.148,-6.556 -0.122,-13.034 -1.627,-19.054c-0.701,-2.807 -0.33,-5.832 -0.386,-8.798c-0.088,-4.597 -0.465,-9.137 -1.551,-13.478c-0.841,-3.366 0.133,-7.447 0.133,-10.973c-0,-10.183 0.052,-20.979 2.02,-30.817c1.831,-9.157 1.076,-18.939 2.905,-28.087c0.747,-3.732 0.872,-7.593 0.707,-11.489c-0.071,-1.678 -0.544,-3.369 -0.222,-4.976c0.729,-3.645 0.558,-11.035 0.508,-12.674c1.857,-8.257 1.83,-18.84 1.83,-27.211c-0,-4.165 -0.559,-14.109 -0.652,-15.722c4.198,-9.942 -0.007,-21.583 -9.795,-26.477c-10.194,-5.097 -22.608,-0.958 -27.705,9.235c-2.56,5.121 -3.837,11.433 -3.902,18.16c-0.049,5.112 0.754,10.593 0.754,14.804c-0,5.624 0.516,12.827 -0.837,18.236c-1.033,4.133 -0.863,12.895 -0.828,14.269Zm2.669,204.368l0.039,0.123l-0.054,-0.184l0.015,0.061Zm0.447,-9.808c0.076,0.209 0.159,0.401 0.245,0.572l-0.245,-0.572Zm37.395,-6.282c-0.068,-0.173 -0.138,-0.333 -0.211,-0.478l0.211,0.478Z"/></svg>