<?xml version="1.0" encoding="UTF-8" standalone="no"?><!DOCTYPE svg PUBLIC "-//W3C//DTD SVG 1.1//EN" "http://www.w3.org/Graphics/SVG/1.1/DTD/svg11.dtd"><svg width="100%" height="100%" viewBox="0 0 301 401" version="1.1" xmlns="http://www.w3.org/2000/svg" xmlns:xlink="http://www.w3.org/1999/xlink" xml:space="preserve" xmlns:serif="http://www.serif.com/" style="fill-rule:evenodd;clip-rule:evenodd;stroke-linejoin:round;stroke-miterlimit:2;"><path d="M178.987,101.17c-0.271,1.358 -1.397,7.15 -1.56,10.168c-0.209,3.874 0.268,7.488 1.302,10.688c0.03,2.3 0.162,6.316 0.651,10.07l-0.111,-0.802c0,0 0.496,7.281 1.92,11.221c-0.27,-0.697 -0.53,-1.436 -0.53,-1.436l0.28,3.848l0.064,-0.299c-0.759,4.226 -0.77,10.864 -0.739,13.457c-1.561,5.399 -1.76,12.259 -1.76,17.656c0,4.902 -0.97,9.968 -0.97,15.05c0,3.038 0.42,9.961 0.468,10.729c-0.881,3.757 -1.168,7.624 -1.193,11.532c-0.014,2.117 0.385,4.271 -0.126,6.313c-0.908,3.633 -0.527,11.639 -0.527,11.639c0,0 0.202,-1.611 0.581,-3.339c-0.531,2.615 -0.755,5.836 -0.845,8.372c-2.465,10.041 -1.271,23.163 -1.271,33.4c0,3.587 0.058,8.374 0.683,12.678c-0.077,0.99 -0.198,2.684 -0.198,3.343l0,14.078c0,11.096 -1.456,21.251 -1.456,32.041c0,2.754 -0.747,8.269 -0.362,11.903c0.298,2.81 0.978,5.284 1.839,7.351c0.419,10.831 9.345,19.494 20.279,19.494c11.204,0 20.3,-9.096 20.3,-20.3c0,-3.171 -0.754,-7.637 -1.913,-11.431c0.161,-1.898 0.457,-5.638 0.457,-7.017c0,-10.79 1.456,-20.945 1.456,-32.041l0,-14.078c0,0.22 -0.022,0.812 -0.022,0.812c0,0 -0.562,-12.113 -2.121,-15.231c0.636,1.272 1.395,4.678 1.395,4.678c0,0 0.263,-4.516 0.263,-6.28c0,-7.171 -2.276,-16.58 -0.071,-23.194c0.871,-2.613 0.835,-8.29 0.75,-11.165c0.362,-2.888 0.491,-5.75 0.537,-7.493c0.706,-3.448 0.947,-6.974 0.971,-10.527c0.014,-2.118 -0.388,-4.265 0.119,-6.294c1.457,-5.826 0.607,-13.92 0.607,-19.973c0,-5.082 0.97,-10.148 0.97,-15.05c0,-1.411 -0.057,-4.233 -0.087,-5.552c0.954,-2.544 1.559,-5.339 1.77,-8.334c0.17,-2.423 -0.085,-7.232 -0.174,-8.75c0.719,-3.384 1.118,-8.197 0.78,-12.961c-0.283,-3.988 -1.081,-7.871 -1.992,-10.853c-0.125,-0.996 -0.287,-2.086 -0.489,-3.166c0.01,-1.772 -0.039,-7.882 -0.87,-13.007c0.322,-1.742 1.548,-8.589 1.548,-11.169c0,-13.469 -0.486,-26.945 -0.486,-39.809c0,-11.203 -9.096,-20.3 -20.3,-20.3c-11.203,0 -20.3,9.097 -20.3,20.3c0,12.616 0.467,25.82 0.483,39.03Zm35.311,140.844l-0.249,0.577c0.087,-0.175 0.17,-0.368 0.249,-0.577Zm3.855,-116.125c-0.071,-0.176 -0.145,-0.34 -0.221,-0.492l0.221,0.492Z"/><path d="M238.724,65.965c0.084,2.569 0.472,6.587 0.575,7.607c-0.9,4.816 -0.456,12.447 -0.254,15.129c-0.586,3.032 -0.959,6.694 -1.065,7.822c-3.436,10.994 -3.646,24.134 -3.646,36.011c-0,14.07 -1.942,27.746 -1.942,42.236c-0,2.848 -0.882,6.681 -0.957,10.024c-0.073,3.285 0.272,6.381 0.987,9.14c0.101,2.264 0.471,8.451 1.497,11.529c2.165,6.495 0.415,15.27 0.415,22.223c-0,2.562 -0.845,5.872 -0.922,8.837c-0.1,3.855 0.411,7.489 1.478,10.691c1.794,5.381 0.9,13.359 0.9,19.31c-0,4.319 -0.382,10.9 0.62,15.513c-0.117,1.134 -0.564,5.604 -0.703,7.989c-0.288,4.925 0.169,9.664 1.61,13.988c0.47,1.41 -0.037,3.227 -0.131,4.991c-0.179,3.333 -0.425,6.612 -0.425,9.465c-0,11.84 1.457,23.348 1.457,34.468c-0,11.204 9.096,20.3 20.3,20.3c11.203,0 20.3,-9.096 20.3,-20.3c0,-11.12 -1.457,-22.628 -1.457,-34.468c0,-7.77 0.925,-18.232 -1.105,-25.872c0.13,-1.279 0.552,-5.545 0.689,-7.839c0.241,-4.047 -0.022,-7.958 -0.927,-11.605c0.117,-1.505 0.372,-5.064 0.372,-6.63c0,-9.089 0.01,-20.925 -2.288,-29.752c0.245,-1.931 0.832,-6.815 0.832,-9.086c0,-10.397 0.827,-23.295 -1.982,-33.349c-0.082,-1.785 -0.324,-5.808 -0.891,-8.94c0.178,-1.474 0.931,-7.888 0.931,-10.627c0,-14.49 1.942,-28.166 1.942,-42.236c0,-7.969 -0.559,-16.876 1.871,-24.165c1.136,-3.408 1.784,-10.645 1.83,-11.173c0.98,-4.711 0.548,-12.495 0.336,-15.363c1.09,-5.536 0.332,-11.569 0.332,-16.78c0,-2.425 -0.56,-8.671 -1.891,-12.055c-1.839,-4.676 -4.807,-7.863 -7.739,-9.915c-9.178,-6.425 -21.846,-4.19 -28.271,4.989c-3.792,5.416 -4.567,12.047 -2.678,17.893Z"/></svg>