<?xml version="1.0" encoding="UTF-8" standalone="no"?><!DOCTYPE svg PUBLIC "-//W3C//DTD SVG 1.1//EN" "http://www.w3.org/Graphics/SVG/1.1/DTD/svg11.dtd"><svg width="100%" height="100%" viewBox="0 0 301 401" version="1.1" xmlns="http://www.w3.org/2000/svg" xmlns:xlink="http://www.w3.org/1999/xlink" xml:space="preserve" xmlns:serif="http://www.serif.com/" style="fill-rule:evenodd;clip-rule:evenodd;stroke-linejoin:round;stroke-miterlimit:2;"><path d="M238.82,185.392c-1.698,1.684 -3.194,3.605 -4.389,5.736c-5.415,9.657 -5.163,21.453 3.907,30.523c2.239,2.239 8.314,5.384 8.314,5.384c0,0 -3.541,-2.067 -4.916,-3.442c0.75,0.75 8.269,5.955 14.409,6.887c8.323,1.262 14.859,-2.106 18.669,-5.916c1.633,-1.634 4.523,-3.552 6.311,-5.34c3.016,-3.017 5.475,-7.327 6.23,-12.665c0.736,-5.2 -0.822,-11.927 -2.428,-15.137c-3.523,-7.047 -8.476,-11.212 -13.888,-13.537c-5.534,-2.379 -12.113,-3.127 -19.912,-0.527c-3.333,1.111 -8.957,4.357 -12.307,8.034Z"/></svg>