<?xml version="1.0" encoding="UTF-8" standalone="no"?><!DOCTYPE svg PUBLIC "-//W3C//DTD SVG 1.1//EN" "http://www.w3.org/Graphics/SVG/1.1/DTD/svg11.dtd"><svg width="100%" height="100%" viewBox="0 0 301 400" version="1.1" xmlns="http://www.w3.org/2000/svg" xmlns:xlink="http://www.w3.org/1999/xlink" xml:space="preserve" xmlns:serif="http://www.serif.com/" style="fill-rule:evenodd;clip-rule:evenodd;stroke-linejoin:round;stroke-miterlimit:2;"><path d="M230.82,80.149c-1.115,0.741 -2.172,1.603 -3.154,2.586c-7.879,7.878 -8.055,20.561 -0.526,28.65c0.695,1.02 3.289,4.769 4.884,6.364c2.712,2.712 7.105,5.62 13.41,6.204c4.754,0.44 13.52,-1.945 15.269,-2.82c4.492,-2.245 11.558,-9.05 14.001,-16.567c2.867,-8.826 1.305,-17.704 -5.728,-24.737c-0.315,-0.315 -6.003,-4.829 -12.541,-6.651c-5.924,-1.651 -11.993,-1.094 -15.753,0.297c-4.018,1.487 -7.405,3.646 -9.862,6.674Zm36.899,15.042c-0.284,4.804 -2.215,9.167 -5.236,12.533c3.085,-2.949 5.001,-7.015 5.236,-12.533Z"/><path d="M234.116,148.998c0.881,-0.743 2.131,-1.672 2.131,-1.672c0,0 -5.419,3.433 -7.128,5.142c-4.571,4.571 -7.769,14.662 -5.52,22.226c0.45,1.514 1.012,2.94 1.685,4.266c1.607,6.203 5.771,12.371 13.56,16.265c8.599,4.3 17.102,3.228 24.436,-1.338c5.591,-3.481 10.031,-9.799 11.501,-12.739c0.886,-1.772 3.181,-9.46 2.787,-13.909c-0.519,-5.849 -3.105,-10.252 -6.171,-13.318c-5.779,-5.779 -9.298,-9.922 -21.381,-9.922c2.257,0 9.086,2.179 9.086,2.179c0,0 -18.332,-2.469 -24.986,2.82Zm28.509,29.817l-0.001,0.002l0.056,-0.051l-0.055,0.049Zm-16.01,-29.855c-0.78,-0.08 -1.584,-0.118 -2.41,-0.118c0.77,0 1.531,0.042 2.278,0.128l0.028,-0.003l0.104,-0.007Z"/><path d="M223.674,231.367c-2.351,5.5 -3.333,12.601 1.092,21.451c1.006,2.012 2.885,4.97 6.398,7.636c2.642,2.006 8.439,4.81 13.013,5.62c9.107,1.612 16.142,-2.137 19.956,-5.952c2.166,-2.165 4.513,-4.028 6.78,-6.295c7.048,-7.049 8.354,-15.462 4.696,-24.233c-2.485,-5.96 -10.57,-12.482 -12.968,-13.681c-5.682,-2.841 -12.766,-3.537 -19.377,-1.933c-5.83,1.414 -11.003,4.596 -14.145,7.738c-2.761,2.761 -4.576,6.112 -5.445,9.649Zm34.138,20.04c0.181,-0.164 0.351,-0.327 0.51,-0.486l-0.51,0.486Z"/><path d="M226,300.728c-5.948,8.683 -4.319,20.722 2.15,27.191c1.106,1.106 4.219,3.456 5.195,4.181c5.963,5.516 12.934,7.156 20.131,6.128c7.673,-1.095 16.145,-7.564 18.405,-9.825c4.136,-4.135 6.273,-9.19 6.584,-14.819c0.257,-4.653 -1.46,-10.38 -3.2,-13.86c-5.491,-10.984 -14.408,-18.679 -28.639,-18.679c-11.073,0 -20.123,8.735 -20.626,19.683Zm-1.443,12.773c0.204,4.456 1.621,7.918 3.686,10.659c-2.139,-3.051 -3.47,-6.708 -3.686,-10.659Z"/></svg>