<?xml version="1.0" encoding="UTF-8" standalone="no"?><!DOCTYPE svg PUBLIC "-//W3C//DTD SVG 1.1//EN" "http://www.w3.org/Graphics/SVG/1.1/DTD/svg11.dtd"><svg width="100%" height="100%" viewBox="0 0 301 400" version="1.1" xmlns="http://www.w3.org/2000/svg" xmlns:xlink="http://www.w3.org/1999/xlink" xml:space="preserve" xmlns:serif="http://www.serif.com/" style="fill-rule:evenodd;clip-rule:evenodd;stroke-linejoin:round;stroke-miterlimit:2;"><path d="M238.552,63.669c-0.385,1.477 -2.108,8.286 -2.441,12.588c-0.336,4.338 0.075,8.53 1.201,12.226c-0.035,0.895 -0.237,6.365 -0.214,9.207c0.033,3.971 0.512,7.816 1.606,11.429l0.035,1.177c-2.202,11.355 -3.005,29.109 -0.185,40.39c0.713,2.853 -0.152,6.001 -0.367,9.108c-0.371,5.353 -0.355,10.644 0.64,15.616c3.183,15.917 5.901,32.666 5.901,48.803c0,4.846 0.846,10.224 -0.09,14.905c-2.288,11.441 -2.331,23.025 -2.331,34.974c0,5.59 -0.744,13.082 0.606,18.483c0.623,2.493 0.309,9.995 0.289,10.448c-0.899,3.078 -1.69,9.221 -1.911,11.039c-2.166,4.943 -4.773,13.435 -5.136,20.633c-0.217,4.323 0.317,8.334 1.378,11.773c0.246,3.331 0.813,7.788 2.074,10.31c5.011,10.021 17.214,14.089 27.235,9.079c8.642,-4.321 12.856,-13.99 10.634,-22.995c-0.136,-1.846 -0.371,-4.11 -0.76,-6.183c0.116,-0.547 1.044,-4.887 1.626,-6.051c2.091,-4.182 3.637,-15.19 3.753,-16.036c2.308,-7.878 2.199,-22.885 0.388,-31.043c0.059,-0.935 0.424,-6.835 0.424,-9.457c0,-9.223 -0.224,-18.18 1.542,-27.012c1.438,-7.186 0.879,-15.426 0.879,-22.867c0,-18.763 -2.988,-38.258 -6.69,-56.766c-0.649,-3.246 0.233,-6.801 0.444,-10.289c0.341,-5.621 0.153,-11.146 -1.14,-16.319c-1.614,-6.456 -0.583,-16.66 0.696,-23.056c1.078,-5.388 0.666,-14.449 -0.909,-19.837c0.035,-0.897 0.236,-6.362 0.214,-9.199c-0.028,-3.465 -0.396,-6.833 -1.217,-10.033c0.506,-2.367 2.306,-10.938 2.306,-12.854c0,-11.204 -9.096,-20.3 -20.3,-20.3c-10.463,0 -19.088,7.933 -20.18,18.109Z"/></svg>