<?xml version="1.0" encoding="UTF-8" standalone="no"?><!DOCTYPE svg PUBLIC "-//W3C//DTD SVG 1.1//EN" "http://www.w3.org/Graphics/SVG/1.1/DTD/svg11.dtd"><svg width="100%" height="100%" viewBox="0 0 301 401" version="1.1" xmlns="http://www.w3.org/2000/svg" xmlns:xlink="http://www.w3.org/1999/xlink" xml:space="preserve" xmlns:serif="http://www.serif.com/" style="fill-rule:evenodd;clip-rule:evenodd;stroke-linejoin:round;stroke-miterlimit:2;"><path d="M206.682,169.422c-3.02,-1.79 -6.544,-2.815 -10.305,-2.815c-5.886,0 -13.934,2.816 -19.321,8.079c-7.634,7.459 -10.723,17.915 -5.147,29.067c5.927,11.854 17.495,15.999 28.908,13.526c9.346,-2.025 17.699,-9.291 20.644,-18.127c4.069,-12.207 -0.648,-21.218 -9.073,-26.987c-1.686,-1.155 -3.626,-2.071 -5.706,-2.743Z"/><path d="M232.621,85.257c-1.468,4.19 -1.71,11.884 -1.745,13.915c-0.464,3.642 -0.553,7.028 -0.553,7.028c0,-0 0.607,-5.634 1.785,-7.989c-1.642,3.283 -2.123,15.662 -2.123,15.662c0,-0 -0.02,-0.532 -0.02,-0.758c0,4.744 -0.486,8.867 -0.486,13.593l0,18.934c0,0.869 0.176,3.171 0.279,4.417c-0.617,3.55 -0.764,7.429 -0.764,10.632c0,7.502 -0.017,16.125 1.759,23.257c0.1,2.779 0.363,6.362 1.011,9.072c-0.391,-1.41 -0.67,-2.785 -0.67,-2.785c0,0 -0.159,3.128 -0.159,4.439l0,18.934c0,-0.356 0.059,-1.269 0.059,-1.269c0,0 -0.654,11.595 0.764,17.962c-0.478,-1.983 -0.746,-4.092 -0.746,-4.092c0,0 -0.305,8.992 0.921,15.109c-0.218,-0.885 -0.355,-1.557 -0.355,-1.557c0,0 -0.157,3.126 -0.157,4.431c0,4.026 0.485,8.765 0.485,13.108c0,8.642 -0.485,16.654 -0.485,25.245c0,1.211 0.25,4.363 0.404,6.146c-0.632,2.163 -1.061,4.567 -1.227,7.139c-0.254,3.959 0.337,8.819 0.337,11.959c0,-0.251 0.029,-0.917 0.029,-0.917c0,0 0.57,11.761 2.115,14.851c-0.755,-1.51 -1.519,-5.421 -1.519,-5.421c0,0 -0.139,2.88 -0.139,4.11c0,5.223 0.971,13.078 0.971,16.02c0,11.204 9.096,20.3 20.3,20.3c11.204,0 20.3,-9.096 20.3,-20.3c0,-2.942 -0.971,-10.797 -0.971,-16.02c0,-2.98 -0.127,-6.545 -0.64,-9.887c0.07,-0.935 0.154,-2.193 0.154,-2.736c0,-1.964 -0.269,-6.764 -0.379,-8.609c0.55,-1.65 0.972,-3.502 1.189,-5.529c0.365,-3.395 -0.324,-8.509 -0.324,-11.106c0,-8.591 0.485,-16.603 0.485,-25.245c0,-4.343 -0.485,-9.082 -0.485,-13.108c0,-3.646 -0.174,-8.294 -1.005,-12.311c0.025,-2.232 -0.013,-6.261 -0.438,-10.044c0.097,-0.634 0.957,-6.347 0.957,-8.229l0,-18.934c0,-3.252 -0.133,-7.28 -0.75,-10.956c0.054,-3.048 -0.009,-7.724 -0.777,-10.027c-1.262,-3.787 -0.414,-8.775 -0.414,-13c0,-1.229 -0.139,-4.109 -0.139,-4.109c0,0 -0.764,3.911 -1.519,5.42c1.78,-3.559 2.127,-17.001 2.127,-17.001c0,0 0.016,0.45 0.016,0.641l0,-18.934c0,-4.726 0.486,-8.849 0.486,-13.593c0,-1.034 -0.28,-4.368 -0.28,-4.368c0,0 -0.095,0.555 -0.256,1.375c0.586,-4.055 0.679,-8.15 0.679,-8.15l-0.027,0.216c0.191,-1.671 0.297,-3.298 0.359,-4.627c0.941,-3.561 1.549,-7.686 1.842,-10.494c1.115,-10.672 2.263,-21.34 3.395,-32.01c1.182,-11.141 -6.904,-21.146 -18.046,-22.327c-11.141,-1.182 -21.146,6.904 -22.328,18.045c-1.133,10.691 -2.284,21.381 -3.401,32.073c-0.108,1.032 -0.409,3.912 -0.409,3.912c0,0 0.249,-0.761 0.528,-1.503Zm-0.69,145.752l0.045,0.147l-0.069,-0.245l0.024,0.098Zm0.386,-36.164c0.091,0.248 0.184,0.47 0.276,0.655l-0.276,-0.655Zm36.853,-85.4l-0.263,0.612c0.092,-0.185 0.181,-0.39 0.263,-0.612Zm-36.822,-16.979l0.245,-0.566c-0.086,0.171 -0.168,0.361 -0.245,0.566Z"/></svg>