<?xml version="1.0" encoding="UTF-8" standalone="no"?>
<!DOCTYPE svg PUBLIC "-//W3C//DTD SVG 1.1//EN" "http://www.w3.org/Graphics/SVG/1.1/DTD/svg11.dtd">
<svg width="100%" height="100%" viewBox="0 0 3491 3491" version="1.1" xmlns="http://www.w3.org/2000/svg" xmlns:xlink="http://www.w3.org/1999/xlink" xml:space="preserve" xmlns:serif="http://www.serif.com/" style="fill-rule:evenodd;clip-rule:evenodd;stroke-linecap:round;stroke-linejoin:round;stroke-miterlimit:1.5;">
    <g transform="matrix(1,0,0,1,-1226.63,-2062.79)">
        <g id="Page-1" serif:id="Page 1" transform="matrix(8.33333,0,0,8.33333,0,0)">
            <rect x="0" y="0" width="712" height="807" style="fill:none;"/>
            <g id="Layer-1" serif:id="Layer 1">
                <g transform="matrix(0.12,0,0,0.12,3.44077,7.74174)">
                    <path d="M4688.9,2521.92C4688.9,2232.91 4454.27,1998.28 4165.26,1998.28L1721.6,1998.28C1432.59,1998.28 1197.95,2232.91 1197.95,2521.92L1197.95,4965.58C1197.95,5254.59 1432.59,5489.22 1721.6,5489.22L4165.26,5489.22C4454.27,5489.22 4688.9,5254.59 4688.9,4965.58L4688.9,2521.92Z" style="fill:rgb(191,171,145);"/>
                </g>
                <g id="Layer1" transform="matrix(0.12,0,0,0.12,-4.26326e-16,0)">
                    <path d="M4068.56,2062.79C4305.88,2586.3 4438.01,3167.26 4438.01,3778.8C4438.01,4413.38 4295.74,5015.04 4041.29,5553.74L3090.99,5553.74C3415.55,5039.5 3603.33,4430.88 3603.33,3778.8C3603.33,3151.45 3429.51,2564.32 3127.34,2062.79L4068.56,2062.79Z" style="fill:rgb(139,42,2);"/>
                    <path d="M1864.92,2058.39C2823.92,2058.39 3602.51,2843.4 3602.51,3810.32C3602.51,4777.23 2823.92,5562.24 1864.92,5562.24L2037.03,5553.74L1750.27,5553.74C1461.26,5553.74 1226.63,5319.1 1226.63,5030.1L1226.63,4641.25C1403.01,4779.25 1624.52,4861.47 1864.92,4861.47C2440.32,4861.47 2907.47,4390.47 2907.47,3810.32C2907.47,3230.17 2440.32,2759.16 1864.92,2759.16C1624.52,2759.16 1403.01,2841.38 1226.63,2979.38L1226.63,2586.43C1226.63,2327.66 1414.75,2112.47 1661.58,2070.28C1687.46,2067.24 1713.41,2064.8 1739.4,2062.9C1743,2062.83 1746.63,2062.79 1750.27,2062.79L1988.88,2062.79L1864.92,2058.39Z" style="fill:rgb(246,220,188);"/>
                    <g transform="matrix(6.9371,0,0,20.3387,222.792,-2606.89)">
                        <g transform="matrix(0.12,0,0,0.12,26.3616,-0.183304)">
                            <path d="M1021.23,2620.77C1193.4,2348.15 1295.48,2162.17 1573.63,2161.63" style="fill:none;stroke:rgb(139,42,2);stroke-width:126.88px;"/>
                        </g>
                        <g transform="matrix(-0.12,0,0,0.12,403.347,-0.0907988)">
                            <path d="M1021.23,2620.77C1193.4,2348.15 1295.48,2162.17 1573.63,2161.63" style="fill:none;stroke:rgb(139,42,2);stroke-width:126.88px;"/>
                        </g>
                        <g transform="matrix(0.12,0,0,0.12,289.556,-0.465399)">
                            <path d="M1021.23,2620.77C1193.4,2348.15 1295.48,2162.17 1573.63,2161.63" style="fill:none;stroke:rgb(139,42,2);stroke-width:126.88px;"/>
                        </g>
                        <g transform="matrix(-0.12,0,0,0.12,666.541,-0.372894)">
                            <path d="M1021.23,2620.77C1193.4,2348.15 1295.48,2162.17 1573.63,2161.63" style="fill:none;stroke:rgb(139,42,2);stroke-width:126.88px;"/>
                        </g>
                        <g transform="matrix(0.12,0,0,-0.12,157.938,628.523)">
                            <path d="M1021.23,2620.77C1193.4,2348.15 1295.48,2162.17 1573.63,2161.63" style="fill:none;stroke:rgb(139,42,2);stroke-width:126.88px;"/>
                        </g>
                        <g transform="matrix(-0.12,0,0,-0.12,534.923,628.43)">
                            <path d="M1021.23,2620.77C1193.4,2348.15 1295.48,2162.17 1573.63,2161.63" style="fill:none;stroke:rgb(139,42,2);stroke-width:126.88px;"/>
                        </g>
                    </g>
                </g>
            </g>
        </g>
    </g>
</svg>
